neythal-bold.ufo
<glyph name="exclam" format="1">
  <advance width="145"/>
  <unicode hex="0021"/>
  <outline>
    <contour>
      <point x="91" y="206" type="line"/>
      <point x="95" y="222"/>
      <point x="96" y="241"/>
      <point x="96" y="263" type="curve" smooth="yes"/>
      <point x="96" y="292"/>
      <point x="93" y="324"/>
      <point x="89" y="353" type="curve" smooth="yes"/>
      <point x="86" y="375"/>
      <point x="83" y="398"/>
      <point x="82" y="418" type="curve"/>
      <point x="89" y="422"/>
      <point x="95" y="429"/>
      <point x="97" y="438" type="curve" smooth="yes"/>
      <point x="110" y="531"/>
      <point x="124" y="621"/>
      <point x="128" y="715" type="curve"/>
      <point x="128" y="714" type="line"/>
      <point x="130" y="738"/>
      <point x="109" y="751"/>
      <point x="87" y="744" type="curve"/>
      <point x="17" y="720"/>
      <point x="19" y="616"/>
      <point x="20" y="552" type="curve"/>
      <point x="20" y="534" type="line"/>
      <point x="21" y="429"/>
      <point x="21" y="304"/>
      <point x="46" y="205" type="curve" smooth="yes"/>
      <point x="52" y="178"/>
      <point x="84" y="180"/>
      <point x="91" y="205" type="curve"/>
    </contour>
    <contour>
      <point x="67" y="665" type="line"/>
      <point x="64" y="626"/>
      <point x="59" y="586"/>
      <point x="54" y="547" type="curve"/>
      <point x="74" y="546" type="line"/>
      <point x="72" y="589"/>
      <point x="75" y="631"/>
      <point x="85" y="660" type="curve"/>
    </contour>
    <contour>
      <point x="95" y="80" type="curve" smooth="yes"/>
      <point x="91" y="85"/>
      <point x="84" y="89"/>
      <point x="78" y="88" type="curve"/>
      <point x="72" y="91"/>
      <point x="65" y="92"/>
      <point x="59" y="92" type="curve" smooth="yes"/>
      <point x="50" y="92"/>
      <point x="37" y="83"/>
      <point x="33" y="72" type="curve" smooth="yes"/>
      <point x="29" y="61"/>
      <point x="32" y="47"/>
      <point x="40" y="39" type="curve"/>
      <point x="25" y="11"/>
      <point x="63" y="-18"/>
      <point x="88" y="0" type="curve" smooth="yes"/>
      <point x="107" y="15"/>
      <point x="133" y="42"/>
      <point x="108" y="69" type="curve"/>
      <point x="105" y="71"/>
      <point x="101" y="75"/>
      <point x="96" y="78" type="curve" smooth="yes"/>
      <point x="95" y="79"/>
      <point x="95" y="79"/>
    </contour>
  </outline>
</glyph>
<glyph name="quotedbl" format="1">
  <advance width="293"/>
  <unicode hex="0022"/>
  <outline>
    <contour>
      <point x="110" y="741" type="curve" smooth="yes"/>
      <point x="104" y="741"/>
      <point x="98" y="741"/>
      <point x="91" y="740" type="curve"/>
      <point x="93" y="765"/>
      <point x="104" y="788"/>
      <point x="127" y="809" type="curve" smooth="yes"/>
      <point x="151" y="830"/>
      <point x="126" y="874"/>
      <point x="94" y="858" type="curve" smooth="yes"/>
      <point x="45" y="834"/>
      <point x="26" y="786"/>
      <point x="26" y="737" type="curve" smooth="yes"/>
      <point x="26" y="709"/>
      <point x="31" y="680"/>
      <point x="42" y="654" type="curve"/>
      <point x="42" y="654" type="line"/>
      <point x="48" y="639"/>
      <point x="63" y="632"/>
      <point x="77" y="634" type="curve" smooth="yes"/>
      <point x="80" y="634"/>
      <point x="84" y="635"/>
      <point x="87" y="635" type="curve" smooth="yes"/>
      <point x="93" y="636"/>
      <point x="99" y="637"/>
      <point x="105" y="637" type="curve" smooth="yes"/>
      <point x="120" y="637"/>
      <point x="137" y="648"/>
      <point x="137" y="666" type="curve"/>
      <point x="136" y="676"/>
      <point x="136" y="690"/>
      <point x="137" y="700" type="curve" smooth="yes"/>
      <point x="137" y="704"/>
      <point x="137" y="709"/>
      <point x="135" y="712" type="curve"/>
      <point x="135" y="725"/>
      <point x="124" y="741"/>
    </contour>
    <contour>
      <point x="219" y="842" type="curve"/>
      <point x="183" y="813"/>
      <point x="156" y="779"/>
      <point x="150" y="733" type="curve" smooth="yes"/>
      <point x="145" y="686"/>
      <point x="173" y="647"/>
      <point x="215" y="629" type="curve"/>
      <point x="239" y="621"/>
      <point x="257" y="647"/>
      <point x="250" y="666" type="curve" smooth="yes"/>
      <point x="248" y="670"/>
      <point x="247" y="675"/>
      <point x="246" y="681" type="curve"/>
      <point x="254" y="688"/>
      <point x="256" y="700"/>
      <point x="253" y="713" type="curve"/>
      <point x="254" y="712" type="line"/>
      <point x="249" y="729" type="line"/>
      <point x="246" y="744"/>
      <point x="235" y="753"/>
      <point x="223" y="754" type="curve"/>
      <point x="228" y="769"/>
      <point x="238" y="782"/>
      <point x="251" y="793" type="curve"/>
      <point x="277" y="820"/>
      <point x="249" y="862"/>
    </contour>
  </outline>
</glyph>
<glyph name="numbersign" format="1">
  <advance width="479"/>
  <unicode hex="0023"/>
  <outline>
    <contour>
      <point x="423" y="357" type="curve" smooth="yes"/>
      <point x="389" y="357"/>
      <point x="357" y="356"/>
      <point x="323" y="354" type="curve"/>
      <point x="327" y="375"/>
      <point x="330" y="397"/>
      <point x="333" y="418" type="curve"/>
      <point x="361" y="417"/>
      <point x="391" y="416"/>
      <point x="420" y="412" type="curve"/>
      <point x="443" y="410"/>
      <point x="455" y="442"/>
      <point x="433" y="453" type="curve"/>
      <point x="401" y="463"/>
      <point x="369" y="470"/>
      <point x="339" y="473" type="curve"/>
      <point x="341" y="496"/>
      <point x="342" y="518"/>
      <point x="342" y="541" type="curve" smooth="yes"/>
      <point x="342" y="571"/>
      <point x="340" y="602"/>
      <point x="336" y="629" type="curve" smooth="yes"/>
      <point x="333" y="649"/>
      <point x="299" y="650"/>
      <point x="299" y="627" type="curve" smooth="yes"/>
      <point x="299" y="575"/>
      <point x="293" y="526"/>
      <point x="285" y="475" type="curve"/>
      <point x="274" y="476"/>
      <point x="270" y="475"/>
      <point x="257" y="475" type="curve"/>
      <point x="249" y="475" type="line"/>
      <point x="252" y="508"/>
      <point x="253" y="532"/>
      <point x="253" y="565" type="curve" smooth="yes"/>
      <point x="253" y="604"/>
      <point x="250" y="644"/>
      <point x="246" y="681" type="curve" smooth="yes"/>
      <point x="243" y="698"/>
      <point x="214" y="699"/>
      <point x="212" y="681" type="curve" smooth="yes"/>
      <point x="206" y="609"/>
      <point x="200" y="542"/>
      <point x="191" y="472" type="curve"/>
      <point x="167" y="471"/>
      <point x="152" y="471"/>
      <point x="129" y="471" type="curve" smooth="yes"/>
      <point x="101" y="471"/>
      <point x="73" y="473"/>
      <point x="45" y="477" type="curve" smooth="yes"/>
      <point x="31" y="479"/>
      <point x="28" y="441"/>
      <point x="40" y="435" type="curve"/>
      <point x="85" y="427"/>
      <point x="135" y="423"/>
      <point x="186" y="421" type="curve"/>
      <point x="182" y="396"/>
      <point x="179" y="381"/>
      <point x="174" y="356" type="curve"/>
      <point x="171" y="341" type="line"/>
      <point x="130" y="336"/>
      <point x="85" y="329"/>
      <point x="46" y="320" type="curve"/>
      <point x="33" y="317"/>
      <point x="39" y="280"/>
      <point x="53" y="279" type="curve"/>
      <point x="89" y="284"/>
      <point x="124" y="286"/>
      <point x="162" y="288" type="curve"/>
      <point x="151" y="234"/>
      <point x="138" y="179"/>
      <point x="121" y="123" type="curve" smooth="yes"/>
      <point x="114" y="101"/>
      <point x="166" y="83"/>
      <point x="173" y="104" type="curve" smooth="yes"/>
      <point x="191" y="164"/>
      <point x="208" y="222"/>
      <point x="221" y="289" type="curve"/>
      <point x="228" y="289"/>
      <point x="226" y="290"/>
      <point x="234" y="290" type="curve"/>
      <point x="244" y="290" type="line"/>
      <point x="225" y="226" type="line"/>
      <point x="213" y="181"/>
      <point x="201" y="136"/>
      <point x="191" y="91" type="curve"/>
      <point x="191" y="92" type="line"/>
      <point x="183" y="62"/>
      <point x="222" y="45"/>
      <point x="236" y="75" type="curve" smooth="yes"/>
      <point x="265" y="142"/>
      <point x="292" y="219"/>
      <point x="310" y="293" type="curve"/>
      <point x="349" y="297"/>
      <point x="387" y="304"/>
      <point x="427" y="318" type="curve"/>
      <point x="427" y="317" type="line"/>
      <point x="447" y="322"/>
      <point x="451" y="357"/>
    </contour>
    <contour>
      <point x="233" y="348" type="line"/>
      <point x="239" y="376"/>
      <point x="241" y="392"/>
      <point x="245" y="420" type="curve"/>
      <point x="259" y="420"/>
      <point x="262" y="421"/>
      <point x="275" y="420" type="curve"/>
      <point x="271" y="393"/>
      <point x="266" y="376"/>
      <point x="259" y="350" type="curve"/>
      <point x="255" y="350"/>
      <point x="247" y="349"/>
      <point x="244" y="348" type="curve"/>
    </contour>
  </outline>
</glyph>
<glyph name="dollar" format="1">
  <advance width="332"/>
  <unicode hex="0024"/>
  <outline>
    <contour>
      <point x="233" y="603" type="curve" smooth="yes"/>
      <point x="233" y="592"/>
      <point x="229" y="581"/>
      <point x="219" y="571" type="curve" smooth="yes"/>
      <point x="198" y="547"/>
      <point x="223" y="514"/>
      <point x="252" y="532" type="curve"/>
      <point x="293" y="562"/>
      <point x="308" y="592"/>
      <point x="308" y="621" type="curve" smooth="yes"/>
      <point x="308" y="675"/>
      <point x="254" y="723"/>
      <point x="194" y="742" type="curve"/>
      <point x="185" y="851" type="line"/>
      <point x="184" y="877"/>
      <point x="146" y="876"/>
      <point x="144" y="850" type="curve" smooth="yes"/>
      <point x="142" y="818"/>
      <point x="140" y="784"/>
      <point x="139" y="749" type="curve"/>
      <point x="101" y="747"/>
      <point x="63" y="730"/>
      <point x="46" y="689" type="curve" smooth="yes"/>
      <point x="38" y="666"/>
      <point x="34" y="644"/>
      <point x="34" y="622" type="curve" smooth="yes"/>
      <point x="34" y="557"/>
      <point x="62" y="489"/>
      <point x="88" y="434" type="curve"/>
      <point x="100" y="410"/>
      <point x="113" y="388"/>
      <point x="127" y="365" type="curve"/>
      <point x="127" y="365"/>
      <point x="131" y="356"/>
      <point x="134" y="351" type="curve"/>
      <point x="133" y="262"/>
      <point x="131" y="170"/>
      <point x="123" y="78" type="curve"/>
      <point x="108" y="92"/>
      <point x="95" y="116"/>
      <point x="93" y="147" type="curve" smooth="yes"/>
      <point x="90" y="182"/>
      <point x="34" y="179"/>
      <point x="33" y="145" type="curve"/>
      <point x="29" y="78"/>
      <point x="68" y="32"/>
      <point x="114" y="9" type="curve"/>
      <point x="108" y="-36"/>
      <point x="102" y="-73"/>
      <point x="92" y="-119" type="curve"/>
      <point x="88" y="-140"/>
      <point x="104" y="-153"/>
      <point x="122" y="-153" type="curve" smooth="yes"/>
      <point x="135" y="-153"/>
      <point x="151" y="-144"/>
      <point x="156" y="-126" type="curve"/>
      <point x="163" y="-88"/>
      <point x="171" y="-46"/>
      <point x="177" y="-4" type="curve"/>
      <point x="234" y="-1"/>
      <point x="291" y="36"/>
      <point x="296" y="114" type="curve"/>
      <point x="301" y="209"/>
      <point x="256" y="291"/>
      <point x="206" y="370" type="curve"/>
      <point x="206" y="406" type="line"/>
      <point x="206" y="490"/>
      <point x="203" y="575"/>
      <point x="198" y="658" type="curve"/>
      <point x="218" y="644"/>
      <point x="233" y="624"/>
    </contour>
    <contour>
      <point x="117" y="541" type="line"/>
      <point x="107" y="564"/>
      <point x="102" y="590"/>
      <point x="99" y="615" type="curve" smooth="yes"/>
      <point x="93" y="662"/>
      <point x="111" y="682"/>
      <point x="137" y="682" type="curve"/>
      <point x="135" y="615"/>
      <point x="135" y="556"/>
      <point x="135" y="491" type="curve"/>
      <point x="129" y="509"/>
      <point x="123" y="524"/>
      <point x="117" y="540" type="curve"/>
    </contour>
    <contour>
      <point x="201" y="240" type="curve"/>
      <point x="213" y="213"/>
      <point x="222" y="192"/>
      <point x="230" y="162" type="curve" smooth="yes"/>
      <point x="233" y="152"/>
      <point x="234" y="142"/>
      <point x="234" y="134" type="curve" smooth="yes"/>
      <point x="234" y="97"/>
      <point x="212" y="72"/>
      <point x="185" y="65" type="curve"/>
      <point x="192" y="122"/>
      <point x="197" y="181"/>
    </contour>
    <contour>
      <point x="184" y="51" type="line"/>
      <point x="184" y="55"/>
      <point x="184" y="60"/>
      <point x="185" y="65" type="curve"/>
      <point x="181" y="63"/>
      <point x="177" y="62"/>
      <point x="173" y="62" type="curve"/>
    </contour>
  </outline>
</glyph>
<glyph name="percent" format="1">
  <advance width="461"/>
  <unicode hex="0025"/>
  <outline>
    <contour>
      <point x="14" y="598" type="curve"/>
      <point x="12" y="530"/>
      <point x="43" y="453"/>
      <point x="97" y="408" type="curve"/>
      <point x="109" y="400"/>
      <point x="128" y="402"/>
      <point x="137" y="411" type="curve" smooth="yes"/>
      <point x="188" y="459"/>
      <point x="214" y="532"/>
      <point x="214" y="600" type="curve"/>
      <point x="215" y="662"/>
      <point x="178" y="749"/>
      <point x="101" y="741" type="curve"/>
      <point x="86" y="738"/>
      <point x="79" y="728"/>
      <point x="79" y="716" type="curve"/>
      <point x="35" y="703"/>
      <point x="16" y="635"/>
    </contour>
    <contour>
      <point x="140" y="650" type="curve" smooth="yes"/>
      <point x="151" y="629"/>
      <point x="151" y="603"/>
      <point x="149" y="582" type="curve" smooth="yes"/>
      <point x="147" y="553"/>
      <point x="135" y="519"/>
      <point x="114" y="488" type="curve"/>
      <point x="93" y="518"/>
      <point x="83" y="550"/>
      <point x="79" y="579" type="curve"/>
      <point x="75" y="599"/>
      <point x="79" y="621"/>
      <point x="88" y="643" type="curve" smooth="yes"/>
      <point x="90" y="649"/>
      <point x="98" y="654"/>
      <point x="105" y="661" type="curve"/>
      <point x="117" y="672" type="line"/>
      <point x="126" y="666"/>
      <point x="134" y="660"/>
    </contour>
    <contour>
      <point x="335" y="806" type="curve"/>
      <point x="291" y="730"/>
      <point x="265" y="637"/>
      <point x="242" y="554" type="curve" smooth="yes"/>
      <point x="232" y="515"/>
      <point x="221" y="477"/>
      <point x="209" y="438" type="curve" smooth="yes"/>
      <point x="183" y="360"/>
      <point x="155" y="290"/>
      <point x="125" y="220" type="curve" smooth="yes"/>
      <point x="93" y="144"/>
      <point x="59" y="68"/>
      <point x="37" y="-3" type="curve" smooth="yes"/>
      <point x="29" y="-29"/>
      <point x="87" y="-48"/>
      <point x="95" y="-24" type="curve" smooth="yes"/>
      <point x="126" y="74"/>
      <point x="167" y="175"/>
      <point x="204" y="262" type="curve" smooth="yes"/>
      <point x="218" y="295"/>
      <point x="232" y="329"/>
      <point x="245" y="363" type="curve" smooth="yes"/>
      <point x="273" y="435"/>
      <point x="293" y="504"/>
      <point x="310" y="571" type="curve" smooth="yes"/>
      <point x="328" y="643"/>
      <point x="352" y="722"/>
      <point x="377" y="786" type="curve" smooth="yes"/>
      <point x="385" y="809"/>
      <point x="349" y="831"/>
    </contour>
    <contour>
      <point x="235" y="181" type="curve" smooth="yes"/>
      <point x="235" y="112"/>
      <point x="283" y="32"/>
      <point x="339" y="1" type="curve"/>
      <point x="353" y="-8"/>
      <point x="368" y="-5"/>
      <point x="379" y="8" type="curve" smooth="yes"/>
      <point x="415" y="50"/>
      <point x="444" y="101"/>
      <point x="444" y="156" type="curve" smooth="yes"/>
      <point x="444" y="177"/>
      <point x="440" y="199"/>
      <point x="431" y="219" type="curve" smooth="yes"/>
      <point x="408" y="272"/>
      <point x="346" y="299"/>
      <point x="290" y="299" type="curve" smooth="yes"/>
      <point x="270" y="299"/>
      <point x="252" y="296"/>
      <point x="235" y="290" type="curve" smooth="yes"/>
      <point x="207" y="279"/>
      <point x="218" y="244"/>
      <point x="242" y="239" type="curve"/>
      <point x="247" y="238" type="line"/>
      <point x="239" y="221"/>
      <point x="235" y="202"/>
    </contour>
    <contour>
      <point x="373" y="193" type="curve" smooth="yes"/>
      <point x="382" y="181"/>
      <point x="386" y="169"/>
      <point x="386" y="154" type="curve" smooth="yes"/>
      <point x="386" y="130"/>
      <point x="371" y="100"/>
      <point x="353" y="72" type="curve"/>
      <point x="319" y="108"/>
      <point x="291" y="155"/>
      <point x="291" y="194" type="curve" smooth="yes"/>
      <point x="291" y="208"/>
      <point x="294" y="220"/>
      <point x="300" y="231" type="curve"/>
      <point x="327" y="226"/>
      <point x="353" y="217"/>
    </contour>
  </outline>
</glyph>
<glyph name="ampersand" format="1">
  <advance width="649"/>
  <unicode hex="0026"/>
  <outline>
    <contour>
      <point x="565" y="629" type="curve" smooth="yes"/>
      <point x="541" y="642"/>
      <point x="518" y="648"/>
      <point x="493" y="648" type="curve" smooth="yes"/>
      <point x="456" y="648"/>
      <point x="421" y="634"/>
      <point x="391" y="612" type="curve"/>
      <point x="392" y="613" type="line"/>
      <point x="400" y="624"/>
      <point x="403" y="635"/>
      <point x="405" y="646" type="curve"/>
      <point x="410" y="650"/>
      <point x="412" y="654"/>
      <point x="412" y="660" type="curve" smooth="yes"/>
      <point x="413" y="726"/>
      <point x="375" y="753"/>
      <point x="326" y="753" type="curve" smooth="yes"/>
      <point x="255" y="753"/>
      <point x="162" y="691"/>
      <point x="162" y="614" type="curve" smooth="yes"/>
      <point x="162" y="590"/>
      <point x="170" y="565"/>
      <point x="191" y="540" type="curve"/>
      <point x="70" y="491"/>
      <point x="20" y="386"/>
      <point x="20" y="281" type="curve" smooth="yes"/>
      <point x="20" y="138"/>
      <point x="116" y="-5"/>
      <point x="264" y="-5" type="curve" smooth="yes"/>
      <point x="277" y="-5"/>
      <point x="288" y="-4"/>
      <point x="300" y="-2" type="curve"/>
      <point x="304" y="-3"/>
      <point x="306" y="-4"/>
      <point x="311" y="-4" type="curve" smooth="yes"/>
      <point x="420" y="8"/>
      <point x="539" y="117"/>
      <point x="539" y="230" type="curve" smooth="yes"/>
      <point x="539" y="263"/>
      <point x="529" y="295"/>
      <point x="507" y="326" type="curve"/>
      <point x="500" y="335" type="line"/>
      <point x="499" y="335"/>
      <point x="498" y="338"/>
      <point x="497" y="339" type="curve"/>
      <point x="497" y="340"/>
      <point x="496" y="341"/>
      <point x="496" y="341" type="curve"/>
      <point x="496" y="341"/>
      <point x="500" y="357"/>
      <point x="484" y="362" type="curve"/>
      <point x="478" y="363" type="line"/>
      <point x="487" y="368"/>
      <point x="486" y="374"/>
      <point x="451" y="382" type="curve"/>
      <point x="439" y="388"/>
      <point x="413" y="402"/>
      <point x="399" y="405" type="curve"/>
      <point x="379" y="422"/>
      <point x="371" y="444"/>
      <point x="371" y="467" type="curve" smooth="yes"/>
      <point x="371" y="512"/>
      <point x="401" y="559"/>
      <point x="456" y="578" type="curve"/>
      <point x="456" y="577" type="line"/>
      <point x="469" y="581"/>
      <point x="483" y="584"/>
      <point x="495" y="584" type="curve" smooth="yes"/>
      <point x="524" y="584"/>
      <point x="554" y="571"/>
      <point x="566" y="543" type="curve"/>
      <point x="570" y="529"/>
      <point x="558" y="516"/>
      <point x="543" y="511" type="curve" smooth="yes"/>
      <point x="531" y="507"/>
      <point x="516" y="503"/>
      <point x="503" y="503" type="curve" smooth="yes"/>
      <point x="494" y="503"/>
      <point x="487" y="504"/>
      <point x="487" y="508" type="curve" smooth="yes"/>
      <point x="487" y="512"/>
      <point x="491" y="519"/>
      <point x="501" y="531" type="curve"/>
      <point x="501" y="530" type="line"/>
      <point x="518" y="550"/>
      <point x="472" y="591"/>
      <point x="454" y="571" type="curve" smooth="yes"/>
      <point x="432" y="547"/>
      <point x="424" y="525"/>
      <point x="424" y="507" type="curve" smooth="yes"/>
      <point x="424" y="468"/>
      <point x="458" y="442"/>
      <point x="507" y="442" type="curve" smooth="yes"/>
      <point x="518" y="442"/>
      <point x="531" y="444"/>
      <point x="542" y="447" type="curve" smooth="yes"/>
      <point x="592" y="460"/>
      <point x="625" y="500"/>
      <point x="625" y="540" type="curve" smooth="yes"/>
      <point x="625" y="572"/>
      <point x="607" y="607"/>
    </contour>
    <contour>
      <point x="317" y="473" type="curve" smooth="yes"/>
      <point x="317" y="454"/>
      <point x="320" y="434"/>
      <point x="329" y="414" type="curve"/>
      <point x="329" y="413" type="line"/>
      <point x="273" y="412"/>
      <point x="205" y="392"/>
      <point x="169" y="349" type="curve"/>
      <point x="149" y="321"/>
      <point x="138" y="292"/>
      <point x="138" y="264" type="curve" smooth="yes"/>
      <point x="138" y="197"/>
      <point x="191" y="142"/>
      <point x="272" y="147" type="curve"/>
      <point x="271" y="147" type="line"/>
      <point x="341" y="150"/>
      <point x="386" y="194"/>
      <point x="386" y="243" type="curve" smooth="yes"/>
      <point x="386" y="272"/>
      <point x="372" y="302"/>
      <point x="337" y="327" type="curve" smooth="yes"/>
      <point x="311" y="346"/>
      <point x="273" y="290"/>
      <point x="297" y="270" type="curve" smooth="yes"/>
      <point x="311" y="260"/>
      <point x="318" y="251"/>
      <point x="318" y="244" type="curve" smooth="yes"/>
      <point x="318" y="229"/>
      <point x="290" y="217"/>
      <point x="262" y="213" type="curve" smooth="yes"/>
      <point x="224" y="209"/>
      <point x="206" y="233"/>
      <point x="206" y="260" type="curve" smooth="yes"/>
      <point x="206" y="287"/>
      <point x="221" y="317"/>
      <point x="247" y="331" type="curve" smooth="yes"/>
      <point x="272" y="346"/>
      <point x="301" y="352"/>
      <point x="330" y="352" type="curve" smooth="yes"/>
      <point x="344" y="352"/>
      <point x="360" y="350"/>
      <point x="373" y="348" type="curve"/>
      <point x="389" y="334"/>
      <point x="404" y="331"/>
      <point x="420" y="328" type="curve"/>
      <point x="441" y="317"/>
      <point x="456" y="302"/>
      <point x="468" y="282" type="curve" smooth="yes"/>
      <point x="480" y="262"/>
      <point x="485" y="242"/>
      <point x="485" y="224" type="curve" smooth="yes"/>
      <point x="485" y="139"/>
      <point x="378" y="71"/>
      <point x="301" y="53" type="curve" smooth="yes"/>
      <point x="297" y="52"/>
      <point x="291" y="48"/>
      <point x="289" y="46" type="curve"/>
      <point x="160" y="51"/>
      <point x="83" y="170"/>
      <point x="83" y="284" type="curve" smooth="yes"/>
      <point x="83" y="376"/>
      <point x="140" y="466"/>
      <point x="261" y="493" type="curve"/>
      <point x="289" y="500"/>
      <point x="298" y="537"/>
      <point x="275" y="553" type="curve" smooth="yes"/>
      <point x="244" y="574"/>
      <point x="232" y="598"/>
      <point x="232" y="619" type="curve" smooth="yes"/>
      <point x="232" y="655"/>
      <point x="266" y="687"/>
      <point x="301" y="694" type="curve"/>
      <point x="293" y="689"/>
      <point x="289" y="682"/>
      <point x="288" y="673" type="curve" smooth="yes"/>
      <point x="286" y="655"/>
      <point x="287" y="634"/>
      <point x="288" y="615" type="curve" smooth="yes"/>
      <point x="289" y="603"/>
      <point x="302" y="591"/>
      <point x="316" y="589" type="curve"/>
      <point x="333" y="588"/>
      <point x="355" y="588"/>
      <point x="373" y="598" type="curve"/>
      <point x="339" y="565"/>
      <point x="317" y="519"/>
    </contour>
    <contour>
      <point x="361" y="664" type="curve"/>
      <point x="358" y="657" type="line"/>
      <point x="359" y="660" type="line"/>
      <point x="357" y="657"/>
      <point x="355" y="654"/>
      <point x="354" y="650" type="curve"/>
      <point x="349" y="646" type="line"/>
      <point x="349" y="653"/>
      <point x="348" y="666"/>
      <point x="347" y="675" type="curve" smooth="yes"/>
      <point x="346" y="679"/>
      <point x="345" y="682"/>
      <point x="344" y="686" type="curve"/>
      <point x="350" y="682"/>
      <point x="356" y="674"/>
    </contour>
  </outline>
</glyph>
<glyph name="quotesingle" format="1">
  <advance width="145"/>
  <unicode hex="0027"/>
  <outline>
    <contour>
      <point x="79" y="842" type="curve" smooth="yes"/>
      <point x="43" y="814"/>
      <point x="18" y="781"/>
      <point x="10" y="733" type="curve" smooth="yes"/>
      <point x="3" y="684"/>
      <point x="33" y="646"/>
      <point x="75" y="629" type="curve"/>
      <point x="98" y="620"/>
      <point x="118" y="647"/>
      <point x="109" y="666" type="curve" smooth="yes"/>
      <point x="107" y="670"/>
      <point x="106" y="675"/>
      <point x="105" y="681" type="curve"/>
      <point x="113" y="688"/>
      <point x="117" y="700"/>
      <point x="113" y="712" type="curve"/>
      <point x="108" y="729" type="line"/>
      <point x="105" y="744"/>
      <point x="95" y="753"/>
      <point x="83" y="754" type="curve"/>
      <point x="89" y="769"/>
      <point x="99" y="782"/>
      <point x="111" y="793" type="curve"/>
      <point x="137" y="820"/>
      <point x="107" y="862"/>
    </contour>
  </outline>
</glyph>
<glyph name="parenleft" format="1">
  <advance width="303"/>
  <unicode hex="0028"/>
  <outline>
    <contour>
      <point x="225" y="728" type="curve" smooth="yes"/>
      <point x="135" y="664"/>
      <point x="91" y="507"/>
      <point x="91" y="346" type="curve" smooth="yes"/>
      <point x="91" y="161"/>
      <point x="147" y="-27"/>
      <point x="257" y="-90" type="curve" smooth="yes"/>
      <point x="285" y="-106"/>
      <point x="254" y="-166"/>
      <point x="227" y="-153" type="curve"/>
      <point x="98" y="-75"/>
      <point x="20" y="153"/>
      <point x="20" y="365" type="curve" smooth="yes"/>
      <point x="20" y="543"/>
      <point x="73" y="715"/>
      <point x="188" y="782" type="curve" smooth="yes"/>
      <point x="224" y="802"/>
      <point x="260" y="753"/>
    </contour>
  </outline>
</glyph>
<glyph name="parenright" format="1">
  <advance width="287"/>
  <unicode hex="0029"/>
  <outline>
    <contour>
      <point x="63" y="728" type="curve" smooth="yes"/>
      <point x="152" y="664"/>
      <point x="196" y="506"/>
      <point x="196" y="344" type="curve" smooth="yes"/>
      <point x="196" y="162"/>
      <point x="138" y="-25"/>
      <point x="31" y="-90" type="curve" smooth="yes"/>
      <point x="3" y="-106"/>
      <point x="34" y="-166"/>
      <point x="61" y="-153" type="curve"/>
      <point x="190" y="-75"/>
      <point x="268" y="153"/>
      <point x="268" y="365" type="curve" smooth="yes"/>
      <point x="268" y="543"/>
      <point x="215" y="715"/>
      <point x="100" y="782" type="curve" smooth="yes"/>
      <point x="64" y="802"/>
      <point x="28" y="753"/>
    </contour>
  </outline>
</glyph>
<glyph name="asterisk" format="1">
  <advance width="388"/>
  <unicode hex="002A"/>
  <outline>
    <contour>
      <point x="346" y="645" type="line"/>
      <point x="315" y="655"/>
      <point x="276" y="641"/>
      <point x="242" y="627" type="curve"/>
      <point x="243" y="627" type="line"/>
      <point x="221" y="620" type="line"/>
      <point x="243" y="660"/>
      <point x="265" y="702"/>
      <point x="289" y="739" type="curve"/>
      <point x="289" y="738" type="line"/>
      <point x="304" y="760"/>
      <point x="275" y="791"/>
      <point x="253" y="769" type="curve" smooth="yes"/>
      <point x="235" y="751"/>
      <point x="220" y="733"/>
      <point x="204" y="713" type="curve"/>
      <point x="204" y="721"/>
      <point x="203" y="730"/>
      <point x="203" y="738" type="curve" smooth="yes"/>
      <point x="203" y="758"/>
      <point x="153" y="761"/>
      <point x="150" y="740" type="curve"/>
      <point x="149" y="716"/>
      <point x="149" y="691"/>
      <point x="149" y="667" type="curve"/>
      <point x="149" y="654" type="line"/>
      <point x="125" y="672"/>
      <point x="106" y="689"/>
      <point x="87" y="712" type="curve" smooth="yes"/>
      <point x="71" y="733"/>
      <point x="42" y="711"/>
      <point x="49" y="691" type="curve" smooth="yes"/>
      <point x="59" y="656"/>
      <point x="73" y="632"/>
      <point x="98" y="606" type="curve"/>
      <point x="83" y="608"/>
      <point x="67" y="611"/>
      <point x="53" y="617" type="curve" smooth="yes"/>
      <point x="33" y="625"/>
      <point x="6" y="599"/>
      <point x="20" y="579" type="curve"/>
      <point x="19" y="580" type="line"/>
      <point x="32" y="557"/>
      <point x="55" y="544"/>
      <point x="77" y="538" type="curve"/>
      <point x="73" y="532" type="line"/>
      <point x="65" y="520"/>
      <point x="54" y="504"/>
      <point x="42" y="491" type="curve"/>
      <point x="19" y="461"/>
      <point x="62" y="421"/>
      <point x="91" y="446" type="curve"/>
      <point x="90" y="446" type="line"/>
      <point x="116" y="468"/>
      <point x="138" y="492"/>
      <point x="158" y="519" type="curve"/>
      <point x="162" y="496"/>
      <point x="167" y="474"/>
      <point x="172" y="452" type="curve"/>
      <point x="177" y="437"/>
      <point x="192" y="429"/>
      <point x="204" y="429" type="curve" smooth="yes"/>
      <point x="222" y="429"/>
      <point x="237" y="441"/>
      <point x="233" y="464" type="curve"/>
      <point x="224" y="503" type="line"/>
      <point x="225" y="502"/>
      <point x="226" y="502"/>
      <point x="226" y="501" type="curve"/>
      <point x="227" y="501"/>
      <point x="227" y="501"/>
      <point x="229" y="500" type="curve"/>
      <point x="228" y="500" type="line"/>
      <point x="275" y="468" type="line"/>
      <point x="304" y="452"/>
      <point x="343" y="507"/>
      <point x="317" y="528" type="curve"/>
      <point x="318" y="527" type="line"/>
      <point x="306" y="539"/>
      <point x="296" y="548"/>
      <point x="283" y="557" type="curve"/>
      <point x="318" y="567"/>
      <point x="349" y="581"/>
      <point x="361" y="603" type="curve" smooth="yes"/>
      <point x="369" y="620"/>
      <point x="365" y="640"/>
      <point x="346" y="646" type="curve"/>
    </contour>
  </outline>
</glyph>
<glyph name="plus" format="1">
  <advance width="485"/>
  <unicode hex="002B"/>
  <outline>
    <contour>
      <point x="414" y="376" type="curve"/>
      <point x="374" y="379"/>
      <point x="323" y="383"/>
      <point x="281" y="385" type="curve"/>
      <point x="285" y="430"/>
      <point x="288" y="475"/>
      <point x="287" y="520" type="curve" smooth="yes"/>
      <point x="287" y="548"/>
      <point x="225" y="552"/>
      <point x="224" y="525" type="curve" smooth="yes"/>
      <point x="223" y="478"/>
      <point x="223" y="433"/>
      <point x="221" y="387" type="curve"/>
      <point x="190" y="387" type="line"/>
      <point x="145" y="387"/>
      <point x="101" y="386"/>
      <point x="57" y="383" type="curve" smooth="yes"/>
      <point x="24" y="380"/>
      <point x="28" y="328"/>
      <point x="58" y="325" type="curve" smooth="yes"/>
      <point x="101" y="322"/>
      <point x="144" y="320"/>
      <point x="186" y="320" type="curve"/>
      <point x="219" y="320" type="line"/>
      <point x="217" y="264"/>
      <point x="214" y="218"/>
      <point x="211" y="164" type="curve" smooth="yes"/>
      <point x="210" y="140"/>
      <point x="224" y="129"/>
      <point x="242" y="129" type="curve" smooth="yes"/>
      <point x="258" y="129"/>
      <point x="275" y="142"/>
      <point x="274" y="165" type="curve" smooth="yes"/>
      <point x="273" y="181"/>
      <point x="273" y="195"/>
      <point x="273" y="210" type="curve" smooth="yes"/>
      <point x="273" y="243"/>
      <point x="275" y="284"/>
      <point x="276" y="318" type="curve"/>
      <point x="320" y="316"/>
      <point x="364" y="313"/>
      <point x="408" y="307" type="curve" smooth="yes"/>
      <point x="431" y="304"/>
      <point x="444" y="323"/>
      <point x="444" y="342" type="curve" smooth="yes"/>
      <point x="444" y="357"/>
      <point x="435" y="375"/>
    </contour>
  </outline>
</glyph>
<glyph name="hyphen" format="1">
  <advance width="261"/>
  <unicode hex="002D"/>
  <outline>
    <contour>
      <point x="206" y="375" type="line"/>
      <point x="180" y="378"/>
      <point x="153" y="381"/>
      <point x="124" y="381" type="curve" smooth="yes"/>
      <point x="94" y="381"/>
      <point x="66" y="379"/>
      <point x="46" y="374" type="curve"/>
      <point x="20" y="364"/>
      <point x="13" y="319"/>
      <point x="44" y="320" type="curve"/>
      <point x="56" y="320"/>
      <point x="69" y="321"/>
      <point x="80" y="321" type="curve" smooth="yes"/>
      <point x="96" y="322"/>
      <point x="112" y="322"/>
      <point x="128" y="322" type="curve" smooth="yes"/>
      <point x="151" y="322"/>
      <point x="174" y="321"/>
      <point x="199" y="317" type="curve" smooth="yes"/>
      <point x="223" y="313"/>
      <point x="232" y="371"/>
      <point x="207" y="375" type="curve"/>
    </contour>
  </outline>
</glyph>
<glyph name="period" format="1">
  <advance width="97"/>
  <unicode hex="002E"/>
  <outline>
    <contour>
      <point x="71" y="86" type="curve"/>
      <point x="72" y="85" type="line"/>
      <point x="67" y="86"/>
      <point x="67" y="87"/>
      <point x="65" y="87" type="curve"/>
      <point x="59" y="91"/>
      <point x="55" y="91"/>
      <point x="49" y="91" type="curve" smooth="yes"/>
      <point x="45" y="91"/>
      <point x="43" y="91"/>
      <point x="39" y="89" type="curve"/>
      <point x="38" y="90"/>
      <point x="38" y="89"/>
      <point x="37" y="89" type="curve" smooth="yes"/>
      <point x="26" y="89"/>
      <point x="14" y="82"/>
      <point x="11" y="70" type="curve" smooth="yes"/>
      <point x="7" y="62"/>
      <point x="7" y="39"/>
      <point x="15" y="23" type="curve" smooth="yes"/>
      <point x="20" y="15"/>
      <point x="28" y="10"/>
      <point x="38" y="9" type="curve"/>
      <point x="57" y="9"/>
      <point x="73" y="19"/>
      <point x="82" y="30" type="curve"/>
      <point x="86" y="38"/>
      <point x="88" y="45"/>
      <point x="88" y="50" type="curve" smooth="yes"/>
      <point x="89" y="55"/>
      <point x="90" y="61"/>
      <point x="88" y="68" type="curve" smooth="yes"/>
      <point x="86" y="73"/>
      <point x="81" y="83"/>
    </contour>
  </outline>
</glyph>
<glyph name="slash" format="1">
  <advance width="358"/>
  <unicode hex="002F"/>
  <outline>
    <contour>
      <point x="297" y="787" type="curve" smooth="yes"/>
      <point x="240" y="661"/>
      <point x="207" y="521"/>
      <point x="175" y="388" type="curve" smooth="yes"/>
      <point x="139" y="238"/>
      <point x="91" y="57"/>
      <point x="18" y="-79" type="curve"/>
      <point x="45" y="-40"/>
      <point x="99" y="-67"/>
      <point x="78" y="-111" type="curve" smooth="yes"/>
      <point x="183" y="111"/>
      <point x="246" y="374"/>
      <point x="303" y="612" type="curve"/>
      <point x="341" y="771" type="line"/>
      <point x="341" y="770" type="line"/>
      <point x="350" y="800"/>
      <point x="310" y="815"/>
    </contour>
  </outline>
</glyph>
<glyph name="zero" format="1">
  <advance width="370"/>
  <unicode hex="0030"/>
  <outline>
    <contour>
      <point x="332" y="431" type="line"/>
      <point x="326" y="541"/>
      <point x="307" y="748"/>
      <point x="177" y="748" type="curve" smooth="yes"/>
      <point x="158" y="748"/>
      <point x="136" y="743"/>
      <point x="112" y="733" type="curve"/>
      <point x="113" y="733" type="line"/>
      <point x="94" y="726"/>
      <point x="95" y="707"/>
      <point x="104" y="696" type="curve"/>
      <point x="56" y="614"/>
      <point x="19" y="438"/>
      <point x="19" y="286" type="curve" smooth="yes"/>
      <point x="19" y="129"/>
      <point x="57" y="-7"/>
      <point x="164" y="-7" type="curve" smooth="yes"/>
      <point x="182" y="-7"/>
      <point x="202" y="-3"/>
      <point x="224" y="6" type="curve" smooth="yes"/>
      <point x="320" y="42"/>
      <point x="338" y="176"/>
      <point x="338" y="292" type="curve" smooth="yes"/>
      <point x="338" y="337"/>
      <point x="335" y="380"/>
      <point x="333" y="413" type="curve" smooth="yes"/>
      <point x="333" y="419"/>
      <point x="332" y="425"/>
      <point x="332" y="430" type="curve"/>
    </contour>
    <contour>
      <point x="171" y="48" type="curve" smooth="yes"/>
      <point x="92" y="67"/>
      <point x="65" y="162"/>
      <point x="65" y="276" type="curve" smooth="yes"/>
      <point x="65" y="428"/>
      <point x="114" y="610"/>
      <point x="154" y="688" type="curve"/>
      <point x="249" y="676"/>
      <point x="285" y="527"/>
      <point x="285" y="375" type="curve" smooth="yes"/>
      <point x="285" y="205"/>
      <point x="239" y="32"/>
    </contour>
  </outline>
</glyph>
<glyph name="one" format="1">
  <advance width="138"/>
  <unicode hex="0031"/>
  <outline>
    <contour>
      <point x="80" y="740" type="line"/>
      <point x="35" y="700"/>
      <point x="26" y="627"/>
      <point x="26" y="557" type="curve" smooth="yes"/>
      <point x="26" y="533"/>
      <point x="27" y="509"/>
      <point x="28" y="487" type="curve" smooth="yes"/>
      <point x="29" y="474"/>
      <point x="30" y="463"/>
      <point x="30" y="452" type="curve" smooth="yes"/>
      <point x="31" y="406"/>
      <point x="34" y="355"/>
      <point x="37" y="310" type="curve" smooth="yes"/>
      <point x="40" y="257"/>
      <point x="44" y="205"/>
      <point x="44" y="153" type="curve" smooth="yes"/>
      <point x="44" y="110"/>
      <point x="41" y="68"/>
      <point x="35" y="24" type="curve" smooth="yes"/>
      <point x="32" y="0"/>
      <point x="89" y="-5"/>
      <point x="93" y="18" type="curve" smooth="yes"/>
      <point x="102" y="79"/>
      <point x="105" y="142"/>
      <point x="105" y="204" type="curve" smooth="yes"/>
      <point x="105" y="253"/>
      <point x="103" y="303"/>
      <point x="101" y="352" type="curve" smooth="yes"/>
      <point x="99" y="400"/>
      <point x="98" y="448"/>
      <point x="98" y="495" type="curve" smooth="yes"/>
      <point x="98" y="571"/>
      <point x="102" y="646"/>
      <point x="115" y="722" type="curve"/>
      <point x="117" y="740"/>
      <point x="93" y="752"/>
      <point x="80" y="741" type="curve"/>
    </contour>
  </outline>
</glyph>
<glyph name="two" format="1">
  <advance width="339"/>
  <unicode hex="0032"/>
  <outline>
    <contour>
      <point x="130" y="535" type="line"/>
      <point x="119" y="558"/>
      <point x="111" y="582"/>
      <point x="111" y="603" type="curve" smooth="yes"/>
      <point x="111" y="630"/>
      <point x="124" y="655"/>
      <point x="156" y="673" type="curve" smooth="yes"/>
      <point x="170" y="680"/>
      <point x="182" y="683"/>
      <point x="190" y="683" type="curve" smooth="yes"/>
      <point x="236" y="683"/>
      <point x="248" y="605"/>
      <point x="248" y="542" type="curve" smooth="yes"/>
      <point x="248" y="511"/>
      <point x="244" y="481"/>
      <point x="241" y="466" type="curve"/>
      <point x="218" y="386"/>
      <point x="166" y="292"/>
      <point x="120" y="218" type="curve" smooth="yes"/>
      <point x="88" y="167"/>
      <point x="55" y="112"/>
      <point x="29" y="54" type="curve"/>
      <point x="23" y="39"/>
      <point x="32" y="20"/>
      <point x="45" y="14" type="curve" smooth="yes"/>
      <point x="94" y="-4"/>
      <point x="140" y="-8"/>
      <point x="188" y="-8" type="curve" smooth="yes"/>
      <point x="203" y="-8"/>
      <point x="217" y="-7"/>
      <point x="232" y="-7" type="curve"/>
      <point x="251" y="-7" type="line"/>
      <point x="278" y="-7"/>
      <point x="282" y="55"/>
      <point x="255" y="54" type="curve" smooth="yes"/>
      <point x="238" y="54"/>
      <point x="221" y="53"/>
      <point x="204" y="53" type="curve"/>
      <point x="154" y="53" type="line"/>
      <point x="118" y="53"/>
      <point x="106" y="59"/>
      <point x="106" y="70" type="curve" smooth="yes"/>
      <point x="106" y="80"/>
      <point x="118" y="100"/>
      <point x="131" y="123" type="curve"/>
      <point x="141" y="141" type="line"/>
      <point x="141" y="140" type="line"/>
      <point x="181" y="209" type="line"/>
      <point x="209" y="257"/>
      <point x="237" y="304"/>
      <point x="262" y="353" type="curve" smooth="yes"/>
      <point x="291" y="411"/>
      <point x="314" y="484"/>
      <point x="314" y="553" type="curve" smooth="yes"/>
      <point x="314" y="608"/>
      <point x="299" y="661"/>
      <point x="263" y="703" type="curve" smooth="yes"/>
      <point x="238" y="732"/>
      <point x="211" y="743"/>
      <point x="184" y="743" type="curve" smooth="yes"/>
      <point x="119" y="743"/>
      <point x="60" y="667"/>
      <point x="60" y="590" type="curve" smooth="yes"/>
      <point x="60" y="561"/>
      <point x="68" y="532"/>
      <point x="86" y="506" type="curve" smooth="yes"/>
      <point x="102" y="483"/>
      <point x="142" y="507"/>
      <point x="130" y="534" type="curve"/>
    </contour>
  </outline>
</glyph>
<glyph name="three" format="1">
  <advance width="339"/>
  <unicode hex="0033"/>
  <outline>
    <contour>
      <point x="288" y="575" type="curve" smooth="yes"/>
      <point x="288" y="621"/>
      <point x="274" y="665"/>
      <point x="245" y="702" type="curve" smooth="yes"/>
      <point x="218" y="736"/>
      <point x="182" y="749"/>
      <point x="148" y="749" type="curve" smooth="yes"/>
      <point x="80" y="749"/>
      <point x="14" y="695"/>
      <point x="14" y="635" type="curve" smooth="yes"/>
      <point x="14" y="605"/>
      <point x="29" y="574"/>
      <point x="67" y="548" type="curve" smooth="yes"/>
      <point x="83" y="539"/>
      <point x="109" y="576"/>
      <point x="97" y="590" type="curve"/>
      <point x="81" y="603"/>
      <point x="71" y="620"/>
      <point x="71" y="633" type="curve" smooth="yes"/>
      <point x="71" y="662"/>
      <point x="101" y="687"/>
      <point x="140" y="687" type="curve" smooth="yes"/>
      <point x="189" y="688"/>
      <point x="216" y="648"/>
      <point x="225" y="602" type="curve" smooth="yes"/>
      <point x="227" y="593"/>
      <point x="228" y="583"/>
      <point x="228" y="573" type="curve" smooth="yes"/>
      <point x="228" y="502"/>
      <point x="185" y="422"/>
      <point x="116" y="404" type="curve" smooth="yes"/>
      <point x="94" y="400"/>
      <point x="88" y="376"/>
      <point x="94" y="361" type="curve"/>
      <point x="89" y="343"/>
      <point x="103" y="324"/>
      <point x="125" y="327" type="curve" smooth="yes"/>
      <point x="212" y="340"/>
      <point x="241" y="210"/>
      <point x="236" y="139" type="curve"/>
      <point x="231" y="94"/>
      <point x="189" y="44"/>
      <point x="142" y="61" type="curve" smooth="yes"/>
      <point x="105" y="73"/>
      <point x="99" y="109"/>
      <point x="95" y="143" type="curve"/>
      <point x="90" y="175" type="line"/>
      <point x="84" y="202"/>
      <point x="49" y="203"/>
      <point x="38" y="180" type="curve" smooth="yes"/>
      <point x="31" y="166"/>
      <point x="29" y="153"/>
      <point x="29" y="139" type="curve" smooth="yes"/>
      <point x="29" y="88"/>
      <point x="68" y="30"/>
      <point x="112" y="8" type="curve" smooth="yes"/>
      <point x="127" y="0"/>
      <point x="147" y="-4"/>
      <point x="161" y="-4" type="curve" smooth="yes"/>
      <point x="216" y="-4"/>
      <point x="261" y="39"/>
      <point x="287" y="90" type="curve" smooth="yes"/>
      <point x="296" y="108"/>
      <point x="300" y="133"/>
      <point x="300" y="161" type="curve" smooth="yes"/>
      <point x="300" y="242"/>
      <point x="261" y="348"/>
      <point x="197" y="380" type="curve"/>
      <point x="254" y="426"/>
      <point x="288" y="502"/>
    </contour>
  </outline>
</glyph>
<glyph name="four" format="1">
  <advance width="386"/>
  <unicode hex="0034"/>
  <outline>
    <contour>
      <point x="346" y="290" type="curve" smooth="yes"/>
      <point x="323" y="295"/>
      <point x="300" y="298"/>
      <point x="276" y="299" type="curve"/>
      <point x="282" y="397"/>
      <point x="288" y="484"/>
      <point x="288" y="580" type="curve" smooth="yes"/>
      <point x="288" y="616"/>
      <point x="287" y="651"/>
      <point x="285" y="686" type="curve"/>
      <point x="286" y="689"/>
      <point x="288" y="690"/>
      <point x="289" y="693" type="curve"/>
      <point x="288" y="690" type="line"/>
      <point x="293" y="699" type="line"/>
      <point x="311" y="728"/>
      <point x="277" y="761"/>
      <point x="253" y="736" type="curve" smooth="yes"/>
      <point x="177" y="650"/>
      <point x="131" y="535"/>
      <point x="86" y="423" type="curve"/>
      <point x="67" y="372"/>
      <point x="45" y="318"/>
      <point x="23" y="271" type="curve" smooth="yes"/>
      <point x="15" y="254"/>
      <point x="29" y="232"/>
      <point x="48" y="231" type="curve" smooth="yes"/>
      <point x="84" y="229"/>
      <point x="125" y="232"/>
      <point x="163" y="236" type="curve" smooth="yes"/>
      <point x="180" y="237"/>
      <point x="194" y="239"/>
      <point x="212" y="240" type="curve"/>
      <point x="208" y="166"/>
      <point x="205" y="101"/>
      <point x="203" y="27" type="curve" smooth="yes"/>
      <point x="202" y="1"/>
      <point x="265" y="-3"/>
      <point x="264" y="23" type="curve" smooth="yes"/>
      <point x="263" y="97"/>
      <point x="266" y="168"/>
      <point x="271" y="240" type="curve"/>
      <point x="287" y="239"/>
      <point x="307" y="237"/>
      <point x="326" y="232" type="curve" smooth="yes"/>
      <point x="352" y="225"/>
      <point x="372" y="283"/>
    </contour>
    <contour>
      <point x="148" y="405" type="curve" smooth="yes"/>
      <point x="174" y="464"/>
      <point x="202" y="529"/>
      <point x="235" y="593" type="curve"/>
      <point x="225" y="478"/>
      <point x="221" y="414"/>
      <point x="215" y="299" type="curve"/>
      <point x="176" y="295" type="line"/>
      <point x="149" y="292"/>
      <point x="123" y="291"/>
      <point x="97" y="291" type="curve"/>
      <point x="114" y="328"/>
      <point x="132" y="368"/>
    </contour>
    <contour>
      <point x="90" y="277" type="line"/>
      <point x="97" y="291" type="line"/>
      <point x="82" y="291" type="line"/>
    </contour>
  </outline>
</glyph>
<glyph name="five" format="1">
  <advance width="332"/>
  <unicode hex="0035"/>
  <outline>
    <contour>
      <point x="274" y="396" type="line"/>
      <point x="244" y="454"/>
      <point x="192" y="487"/>
      <point x="134" y="487" type="curve" smooth="yes"/>
      <point x="121" y="487"/>
      <point x="109" y="485"/>
      <point x="97" y="482" type="curve"/>
      <point x="97" y="527" type="line"/>
      <point x="97" y="543"/>
      <point x="97" y="557"/>
      <point x="97" y="571" type="curve" smooth="yes"/>
      <point x="97" y="607"/>
      <point x="96" y="648"/>
      <point x="89" y="682" type="curve"/>
      <point x="125" y="682"/>
      <point x="151" y="682"/>
      <point x="188" y="682" type="curve" smooth="yes"/>
      <point x="207" y="682"/>
      <point x="226" y="681"/>
      <point x="244" y="681" type="curve" smooth="yes"/>
      <point x="265" y="681"/>
      <point x="278" y="699"/>
      <point x="278" y="715" type="curve" smooth="yes"/>
      <point x="278" y="731"/>
      <point x="268" y="744"/>
      <point x="248" y="744" type="curve" smooth="yes"/>
      <point x="236" y="744"/>
      <point x="223" y="743"/>
      <point x="210" y="743" type="curve" smooth="yes"/>
      <point x="161" y="742"/>
      <point x="105" y="742"/>
      <point x="55" y="739" type="curve" smooth="yes"/>
      <point x="32" y="738"/>
      <point x="27" y="705"/>
      <point x="41" y="691" type="curve"/>
      <point x="44" y="638"/>
      <point x="46" y="592"/>
      <point x="46" y="540" type="curve" smooth="yes"/>
      <point x="46" y="513"/>
      <point x="45" y="487"/>
      <point x="43" y="460" type="curve"/>
      <point x="41" y="459"/>
      <point x="42" y="457"/>
      <point x="42" y="457" type="curve"/>
      <point x="19" y="442"/>
      <point x="29" y="409"/>
      <point x="50" y="402" type="curve"/>
      <point x="63" y="389"/>
      <point x="87" y="396"/>
      <point x="96" y="413" type="curve"/>
      <point x="110" y="417"/>
      <point x="124" y="420"/>
      <point x="138" y="420" type="curve" smooth="yes"/>
      <point x="171" y="420"/>
      <point x="201" y="399"/>
      <point x="223" y="359" type="curve"/>
      <point x="239" y="325"/>
      <point x="252" y="279"/>
      <point x="252" y="241" type="curve" smooth="yes"/>
      <point x="252" y="217"/>
      <point x="248" y="193"/>
      <point x="239" y="169" type="curve"/>
      <point x="223" y="118"/>
      <point x="183" y="67"/>
      <point x="130" y="54" type="curve" smooth="yes"/>
      <point x="80" y="42"/>
      <point x="71" y="96"/>
      <point x="71" y="138" type="curve" smooth="yes"/>
      <point x="71" y="149"/>
      <point x="72" y="162"/>
      <point x="73" y="172" type="curve"/>
      <point x="71" y="195"/>
      <point x="33" y="209"/>
      <point x="26" y="181" type="curve"/>
      <point x="26" y="182" type="line"/>
      <point x="21" y="164"/>
      <point x="18" y="142"/>
      <point x="18" y="119" type="curve" smooth="yes"/>
      <point x="18" y="65"/>
      <point x="39" y="10"/>
      <point x="97" y="-2" type="curve"/>
      <point x="174" y="-13"/>
      <point x="249" y="54"/>
      <point x="280" y="117" type="curve" smooth="yes"/>
      <point x="299" y="158"/>
      <point x="309" y="204"/>
      <point x="309" y="249" type="curve" smooth="yes"/>
      <point x="309" y="299"/>
      <point x="297" y="349"/>
      <point x="274" y="395" type="curve"/>
    </contour>
  </outline>
</glyph>
<glyph name="six" format="1">
  <advance width="311"/>
  <unicode hex="0036"/>
  <outline>
    <contour>
      <point x="286" y="290" type="curve" smooth="yes"/>
      <point x="266" y="376"/>
      <point x="224" y="409"/>
      <point x="170" y="409" type="curve" smooth="yes"/>
      <point x="144" y="409"/>
      <point x="116" y="403"/>
      <point x="87" y="389" type="curve"/>
      <point x="91" y="422"/>
      <point x="93" y="434"/>
      <point x="100" y="465" type="curve" smooth="yes"/>
      <point x="106" y="491"/>
      <point x="110" y="518"/>
      <point x="114" y="544" type="curve"/>
      <point x="114" y="543" type="line"/>
      <point x="120" y="568" type="line"/>
      <point x="124" y="588"/>
      <point x="128" y="606"/>
      <point x="134" y="627" type="curve"/>
      <point x="137" y="648"/>
      <point x="144" y="658"/>
      <point x="154" y="658" type="curve" smooth="yes"/>
      <point x="170" y="658"/>
      <point x="195" y="644"/>
      <point x="226" y="615" type="curve"/>
      <point x="233" y="593"/>
      <point x="287" y="602"/>
      <point x="288" y="627" type="curve"/>
      <point x="279" y="702"/>
      <point x="232" y="745"/>
      <point x="184" y="745" type="curve" smooth="yes"/>
      <point x="141" y="745"/>
      <point x="94" y="713"/>
      <point x="74" y="648" type="curve" smooth="yes"/>
      <point x="42" y="544"/>
      <point x="17" y="420"/>
      <point x="17" y="298" type="curve" smooth="yes"/>
      <point x="17" y="194"/>
      <point x="36" y="93"/>
      <point x="83" y="8" type="curve"/>
      <point x="83" y="9" type="line"/>
      <point x="89" y="-2"/>
      <point x="101" y="-8"/>
      <point x="113" y="-8" type="curve"/>
      <point x="232" y="7"/>
      <point x="293" y="112"/>
      <point x="293" y="221" type="curve" smooth="yes"/>
      <point x="293" y="244"/>
      <point x="290" y="267"/>
    </contour>
    <contour>
      <point x="234" y="201" type="curve"/>
      <point x="233" y="142"/>
      <point x="204" y="89"/>
      <point x="152" y="59" type="curve" smooth="yes"/>
      <point x="102" y="29"/>
      <point x="89" y="163"/>
      <point x="85" y="208" type="curve" smooth="yes"/>
      <point x="85" y="210"/>
      <point x="84" y="214"/>
      <point x="84" y="217" type="curve" smooth="yes"/>
      <point x="81" y="237"/>
      <point x="80" y="259"/>
      <point x="80" y="280" type="curve" smooth="yes"/>
      <point x="80" y="295"/>
      <point x="80" y="310"/>
      <point x="81" y="324" type="curve"/>
      <point x="139" y="348" type="line"/>
      <point x="149" y="351"/>
      <point x="158" y="353"/>
      <point x="167" y="353" type="curve" smooth="yes"/>
      <point x="230" y="353"/>
      <point x="236" y="238"/>
    </contour>
  </outline>
</glyph>
<glyph name="seven" format="1">
  <advance width="388"/>
  <unicode hex="0037"/>
  <outline>
    <contour>
      <point x="319" y="751" type="line"/>
      <point x="278" y="743"/>
      <point x="239" y="743"/>
      <point x="198" y="742" type="curve" smooth="yes"/>
      <point x="145" y="741"/>
      <point x="94" y="740"/>
      <point x="46" y="727" type="curve" smooth="yes"/>
      <point x="10" y="717"/>
      <point x="19" y="664"/>
      <point x="56" y="668" type="curve" smooth="yes"/>
      <point x="96" y="673"/>
      <point x="135" y="674"/>
      <point x="174" y="675" type="curve" smooth="yes"/>
      <point x="214" y="676"/>
      <point x="251" y="676"/>
      <point x="290" y="681" type="curve"/>
      <point x="280" y="574"/>
      <point x="238" y="474"/>
      <point x="194" y="377" type="curve" smooth="yes"/>
      <point x="143" y="266"/>
      <point x="94" y="154"/>
      <point x="93" y="28" type="curve" smooth="yes"/>
      <point x="93" y="6"/>
      <point x="110" y="-5"/>
      <point x="128" y="-5" type="curve" smooth="yes"/>
      <point x="143" y="-5"/>
      <point x="158" y="4"/>
      <point x="158" y="24" type="curve" smooth="yes"/>
      <point x="159" y="148"/>
      <point x="207" y="258"/>
      <point x="256" y="368" type="curve" smooth="yes"/>
      <point x="305" y="479"/>
      <point x="356" y="590"/>
      <point x="357" y="716" type="curve" smooth="yes"/>
      <point x="357" y="738"/>
      <point x="342" y="754"/>
      <point x="320" y="751" type="curve"/>
    </contour>
  </outline>
</glyph>
<glyph name="eight" format="1">
  <advance width="328"/>
  <unicode hex="0038"/>
  <outline>
    <contour>
      <point x="278" y="622" type="curve" smooth="yes"/>
      <point x="278" y="654"/>
      <point x="268" y="686"/>
      <point x="243" y="713" type="curve" smooth="yes"/>
      <point x="219" y="739"/>
      <point x="192" y="751"/>
      <point x="166" y="751" type="curve" smooth="yes"/>
      <point x="87" y="751"/>
      <point x="11" y="645"/>
      <point x="11" y="542" type="curve" smooth="yes"/>
      <point x="11" y="494"/>
      <point x="26" y="449"/>
      <point x="64" y="413" type="curve"/>
      <point x="65" y="403"/>
      <point x="70" y="395"/>
      <point x="83" y="389" type="curve" smooth="yes"/>
      <point x="91" y="386"/>
      <point x="100" y="381"/>
      <point x="110" y="376" type="curve"/>
      <point x="66" y="303"/>
      <point x="24" y="224"/>
      <point x="24" y="145" type="curve" smooth="yes"/>
      <point x="24" y="121"/>
      <point x="28" y="97"/>
      <point x="38" y="72" type="curve" smooth="yes"/>
      <point x="60" y="21"/>
      <point x="98" y="-7"/>
      <point x="138" y="-7" type="curve" smooth="yes"/>
      <point x="199" y="-7"/>
      <point x="265" y="44"/>
      <point x="290" y="103" type="curve" smooth="yes"/>
      <point x="300" y="125"/>
      <point x="304" y="148"/>
      <point x="304" y="171" type="curve" smooth="yes"/>
      <point x="304" y="252"/>
      <point x="253" y="341"/>
      <point x="190" y="396" type="curve"/>
      <point x="230" y="462"/>
      <point x="278" y="546"/>
    </contour>
    <contour>
      <point x="64" y="548" type="curve" smooth="yes"/>
      <point x="64" y="585"/>
      <point x="76" y="624"/>
      <point x="100" y="657" type="curve" smooth="yes"/>
      <point x="115" y="679"/>
      <point x="142" y="690"/>
      <point x="166" y="690" type="curve" smooth="yes"/>
      <point x="196" y="690"/>
      <point x="223" y="673"/>
      <point x="224" y="635" type="curve" smooth="yes"/>
      <point x="225" y="586"/>
      <point x="200" y="538"/>
      <point x="177" y="494" type="curve"/>
      <point x="170" y="476"/>
      <point x="157" y="456"/>
      <point x="144" y="432" type="curve"/>
      <point x="131" y="438"/>
      <point x="120" y="443"/>
      <point x="108" y="446" type="curve"/>
      <point x="77" y="475"/>
      <point x="64" y="511"/>
    </contour>
    <contour>
      <point x="111" y="443" type="line"/>
      <point x="108" y="446" type="line"/>
      <point x="107" y="446" type="line"/>
    </contour>
    <contour>
      <point x="143" y="63" type="curve" smooth="yes"/>
      <point x="108" y="63"/>
      <point x="87" y="84"/>
      <point x="80" y="127" type="curve"/>
      <point x="80" y="126" type="line"/>
      <point x="77" y="152"/>
      <point x="81" y="177"/>
      <point x="89" y="200" type="curve"/>
      <point x="100" y="243"/>
      <point x="126" y="288"/>
      <point x="151" y="329" type="curve"/>
      <point x="157" y="342" type="line"/>
      <point x="157" y="341" type="line"/>
      <point x="157" y="342"/>
      <point x="158" y="341"/>
      <point x="158" y="342" type="curve"/>
      <point x="204" y="297"/>
      <point x="235" y="231"/>
      <point x="235" y="170" type="curve" smooth="yes"/>
      <point x="235" y="134"/>
      <point x="225" y="102"/>
      <point x="201" y="75" type="curve"/>
      <point x="178" y="67"/>
      <point x="159" y="63"/>
    </contour>
    <contour>
      <point x="203" y="76" type="line"/>
      <point x="202" y="75"/>
      <point x="201" y="75"/>
      <point x="201" y="75" type="curve"/>
      <point x="200" y="74" type="line"/>
    </contour>
  </outline>
</glyph>
<glyph name="nine" format="1">
  <advance width="397"/>
  <unicode hex="0039"/>
  <outline>
    <contour>
      <point x="358" y="468" type="line"/>
      <point x="356" y="487" type="line"/>
      <point x="349" y="556"/>
      <point x="337" y="677"/>
      <point x="271" y="705" type="curve" smooth="yes"/>
      <point x="265" y="707"/>
      <point x="262" y="708"/>
      <point x="259" y="708" type="curve"/>
      <point x="241" y="734"/>
      <point x="219" y="746"/>
      <point x="198" y="746" type="curve" smooth="yes"/>
      <point x="124" y="746"/>
      <point x="45" y="599"/>
      <point x="30" y="537" type="curve" smooth="yes"/>
      <point x="25" y="517"/>
      <point x="23" y="497"/>
      <point x="23" y="479" type="curve" smooth="yes"/>
      <point x="23" y="427"/>
      <point x="42" y="385"/>
      <point x="85" y="346" type="curve"/>
      <point x="114" y="320"/>
      <point x="151" y="305"/>
      <point x="187" y="305" type="curve" smooth="yes"/>
      <point x="225" y="305"/>
      <point x="262" y="321"/>
      <point x="290" y="358" type="curve" smooth="yes"/>
      <point x="300" y="371"/>
      <point x="262" y="397"/>
      <point x="253" y="383" type="curve" smooth="yes"/>
      <point x="239" y="362"/>
      <point x="221" y="353"/>
      <point x="200" y="353" type="curve" smooth="yes"/>
      <point x="159" y="353"/>
      <point x="113" y="390"/>
      <point x="91" y="426" type="curve"/>
      <point x="83" y="438"/>
      <point x="81" y="455"/>
      <point x="81" y="472" type="curve" smooth="yes"/>
      <point x="81" y="494"/>
      <point x="86" y="520"/>
      <point x="92" y="542" type="curve" smooth="yes"/>
      <point x="103" y="584"/>
      <point x="148" y="689"/>
      <point x="197" y="689" type="curve" smooth="yes"/>
      <point x="208" y="689"/>
      <point x="221" y="682"/>
      <point x="233" y="665" type="curve" smooth="yes"/>
      <point x="235" y="663"/>
      <point x="239" y="659"/>
      <point x="241" y="658" type="curve"/>
      <point x="283" y="546"/>
      <point x="302" y="441"/>
      <point x="307" y="317" type="curve"/>
      <point x="307" y="308" type="line"/>
      <point x="307" y="294"/>
      <point x="308" y="281"/>
      <point x="308" y="267" type="curve" smooth="yes"/>
      <point x="308" y="229"/>
      <point x="305" y="190"/>
      <point x="295" y="153" type="curve" smooth="yes"/>
      <point x="282" y="103"/>
      <point x="243" y="53"/>
      <point x="188" y="52" type="curve" smooth="yes"/>
      <point x="152" y="51"/>
      <point x="144" y="82"/>
      <point x="144" y="113" type="curve" smooth="yes"/>
      <point x="144" y="129"/>
      <point x="147" y="149"/>
      <point x="149" y="162" type="curve" smooth="yes"/>
      <point x="154" y="188"/>
      <point x="117" y="194"/>
      <point x="107" y="174" type="curve" smooth="yes"/>
      <point x="96" y="153"/>
      <point x="90" y="125"/>
      <point x="90" y="99" type="curve" smooth="yes"/>
      <point x="90" y="51"/>
      <point x="111" y="5"/>
      <point x="169" y="-4" type="curve"/>
      <point x="168" y="-4" type="line"/>
      <point x="263" y="-19"/>
      <point x="333" y="65"/>
      <point x="353" y="148" type="curve"/>
      <point x="353" y="147" type="line"/>
      <point x="365" y="194"/>
      <point x="370" y="245"/>
      <point x="370" y="297" type="curve" smooth="yes"/>
      <point x="370" y="356"/>
      <point x="364" y="415"/>
      <point x="358" y="469" type="curve"/>
    </contour>
  </outline>
</glyph>
<glyph name="colon" format="1">
  <advance width="104"/>
  <unicode hex="003A"/>
  <outline>
    <contour>
      <point x="18" y="430" type="curve" smooth="yes"/>
      <point x="30" y="406"/>
      <point x="64" y="409"/>
      <point x="84" y="428" type="curve"/>
      <point x="95" y="440"/>
      <point x="98" y="456"/>
      <point x="92" y="476" type="curve" smooth="yes"/>
      <point x="88" y="487"/>
      <point x="75" y="494"/>
      <point x="66" y="497" type="curve"/>
      <point x="58" y="497" type="line"/>
      <point x="41" y="506"/>
      <point x="15" y="489"/>
      <point x="15" y="468" type="curve"/>
      <point x="14" y="455"/>
      <point x="14" y="438"/>
    </contour>
    <contour>
      <point x="89" y="256" type="curve" smooth="yes"/>
      <point x="86" y="271"/>
      <point x="69" y="282"/>
      <point x="51" y="274" type="curve" smooth="yes"/>
      <point x="20" y="261"/>
      <point x="8" y="224"/>
      <point x="19" y="194" type="curve"/>
      <point x="18" y="195" type="line"/>
      <point x="20" y="187"/>
      <point x="25" y="182"/>
      <point x="30" y="180" type="curve"/>
      <point x="18" y="166"/>
      <point x="37" y="171"/>
      <point x="52" y="177" type="curve"/>
      <point x="53" y="177"/>
      <point x="53" y="178"/>
      <point x="54" y="178" type="curve" smooth="yes"/>
      <point x="61" y="180"/>
      <point x="67" y="182"/>
      <point x="69" y="184" type="curve"/>
      <point x="75" y="188" type="line"/>
      <point x="78" y="189"/>
      <point x="81" y="191"/>
      <point x="84" y="194" type="curve" smooth="yes"/>
      <point x="91" y="201"/>
      <point x="94" y="212"/>
      <point x="92" y="222" type="curve"/>
      <point x="93" y="229"/>
      <point x="92" y="236"/>
      <point x="89" y="242" type="curve"/>
      <point x="90" y="246"/>
      <point x="90" y="251"/>
    </contour>
  </outline>
</glyph>
<glyph name="semicolon" format="1">
  <advance width="170"/>
  <unicode hex="003B"/>
  <outline>
    <contour>
      <point x="123" y="524" type="curve" smooth="yes"/>
      <point x="108" y="531"/>
      <point x="94" y="524"/>
      <point x="84" y="515" type="curve"/>
      <point x="78" y="518"/>
      <point x="74" y="518"/>
      <point x="68" y="518" type="curve" smooth="yes"/>
      <point x="51" y="518"/>
      <point x="35" y="509"/>
      <point x="33" y="487" type="curve"/>
      <point x="30" y="484"/>
      <point x="28" y="480"/>
      <point x="27" y="476" type="curve" smooth="yes"/>
      <point x="11" y="446"/>
      <point x="29" y="419"/>
      <point x="56" y="406" type="curve" smooth="yes"/>
      <point x="67" y="401"/>
      <point x="85" y="404"/>
      <point x="95" y="412" type="curve" smooth="yes"/>
      <point x="101" y="417"/>
      <point x="108" y="423"/>
      <point x="116" y="433" type="curve"/>
      <point x="132" y="436"/>
      <point x="139" y="448"/>
      <point x="141" y="460" type="curve"/>
      <point x="145" y="484"/>
      <point x="151" y="514"/>
    </contour>
    <contour>
      <point x="30" y="227" type="curve"/>
      <point x="13" y="206"/>
      <point x="36" y="174"/>
      <point x="60" y="171" type="curve"/>
      <point x="62" y="149"/>
      <point x="56" y="126"/>
      <point x="52" y="104" type="curve" smooth="yes"/>
      <point x="49" y="90"/>
      <point x="45" y="74"/>
      <point x="43" y="59" type="curve" smooth="yes"/>
      <point x="40" y="37"/>
      <point x="72" y="19"/>
      <point x="89" y="36" type="curve"/>
      <point x="118" y="67"/>
      <point x="132" y="109"/>
      <point x="132" y="152" type="curve" smooth="yes"/>
      <point x="132" y="180"/>
      <point x="126" y="208"/>
      <point x="115" y="233" type="curve" smooth="yes"/>
      <point x="109" y="248"/>
      <point x="90" y="256"/>
      <point x="76" y="253" type="curve"/>
      <point x="56" y="269"/>
      <point x="30" y="249"/>
    </contour>
  </outline>
</glyph>
<glyph name="less" format="1">
  <advance width="440"/>
  <unicode hex="003C"/>
  <outline>
    <contour>
      <point x="389" y="478" type="curve" smooth="yes"/>
      <point x="320" y="479"/>
      <point x="248" y="456"/>
      <point x="179" y="431" type="curve" smooth="yes"/>
      <point x="146" y="419"/>
      <point x="94" y="402"/>
      <point x="54" y="394" type="curve" smooth="yes"/>
      <point x="27" y="388"/>
      <point x="22" y="354"/>
      <point x="43" y="339" type="curve" smooth="yes"/>
      <point x="84" y="305"/>
      <point x="130" y="278"/>
      <point x="177" y="254" type="curve" smooth="yes"/>
      <point x="183" y="251"/>
      <point x="190" y="247"/>
      <point x="197" y="243" type="curve" smooth="yes"/>
      <point x="245" y="219"/>
      <point x="304" y="188"/>
      <point x="357" y="190" type="curve"/>
      <point x="381" y="192"/>
      <point x="394" y="219"/>
      <point x="373" y="235" type="curve" smooth="yes"/>
      <point x="349" y="252"/>
      <point x="315" y="264"/>
      <point x="285" y="275" type="curve" smooth="yes"/>
      <point x="270" y="280"/>
      <point x="256" y="286"/>
      <point x="238" y="293" type="curve" smooth="yes"/>
      <point x="201" y="310"/>
      <point x="167" y="327"/>
      <point x="132" y="349" type="curve"/>
      <point x="180" y="361"/>
      <point x="206" y="370"/>
      <point x="253" y="385" type="curve" smooth="yes"/>
      <point x="299" y="400"/>
      <point x="347" y="415"/>
      <point x="394" y="428" type="curve"/>
      <point x="420" y="437"/>
      <point x="421" y="478"/>
    </contour>
  </outline>
</glyph>
<glyph name="equal" format="1">
  <advance width="398"/>
  <unicode hex="003D"/>
  <outline>
    <contour>
      <point x="345" y="415" type="curve" smooth="yes"/>
      <point x="370" y="416"/>
      <point x="374" y="473"/>
      <point x="349" y="473" type="curve" smooth="yes"/>
      <point x="243" y="473"/>
      <point x="130" y="464"/>
      <point x="26" y="445" type="curve"/>
      <point x="0" y="439"/>
      <point x="3" y="407"/>
      <point x="27" y="403" type="curve" smooth="yes"/>
      <point x="50" y="399"/>
      <point x="76" y="398"/>
      <point x="100" y="398" type="curve" smooth="yes"/>
      <point x="143" y="398"/>
      <point x="189" y="402"/>
      <point x="231" y="406" type="curve" smooth="yes"/>
      <point x="270" y="410"/>
      <point x="307" y="414"/>
    </contour>
    <contour>
      <point x="340" y="303" type="curve" smooth="yes"/>
      <point x="323" y="304"/>
      <point x="305" y="306"/>
      <point x="286" y="308" type="curve" smooth="yes"/>
      <point x="248" y="312"/>
      <point x="206" y="315"/>
      <point x="166" y="315" type="curve" smooth="yes"/>
      <point x="129" y="315"/>
      <point x="93" y="312"/>
      <point x="61" y="304" type="curve" smooth="yes"/>
      <point x="57" y="303"/>
      <point x="52" y="300"/>
      <point x="48" y="297" type="curve"/>
      <point x="42" y="309"/>
      <point x="37" y="292"/>
      <point x="31" y="265" type="curve" smooth="yes"/>
      <point x="28" y="249"/>
      <point x="45" y="238"/>
      <point x="57" y="240" type="curve"/>
      <point x="62" y="238"/>
      <point x="69" y="238"/>
      <point x="74" y="239" type="curve" smooth="yes"/>
      <point x="96" y="243"/>
      <point x="122" y="245"/>
      <point x="144" y="245" type="curve" smooth="yes"/>
      <point x="172" y="245"/>
      <point x="199" y="243"/>
      <point x="227" y="241" type="curve" smooth="yes"/>
      <point x="264" y="239"/>
      <point x="305" y="237"/>
      <point x="342" y="238" type="curve" smooth="yes"/>
      <point x="360" y="239"/>
      <point x="370" y="255"/>
      <point x="370" y="269" type="curve" smooth="yes"/>
      <point x="370" y="286"/>
      <point x="360" y="302"/>
    </contour>
  </outline>
</glyph>
<glyph name="greater" format="1">
  <advance width="433"/>
  <unicode hex="003E"/>
  <outline>
    <contour>
      <point x="46" y="478" type="curve" smooth="yes"/>
      <point x="117" y="479"/>
      <point x="189" y="456"/>
      <point x="259" y="431" type="curve" smooth="yes"/>
      <point x="292" y="419"/>
      <point x="344" y="402"/>
      <point x="382" y="394" type="curve" smooth="yes"/>
      <point x="411" y="388"/>
      <point x="416" y="354"/>
      <point x="394" y="339" type="curve"/>
      <point x="353" y="306"/>
      <point x="306" y="278"/>
      <point x="259" y="254" type="curve"/>
      <point x="241" y="245" type="line"/>
      <point x="242" y="245" type="line"/>
      <point x="194" y="220"/>
      <point x="132" y="188"/>
      <point x="79" y="190" type="curve"/>
      <point x="54" y="192"/>
      <point x="42" y="219"/>
      <point x="64" y="235" type="curve" smooth="yes"/>
      <point x="88" y="252"/>
      <point x="120" y="265"/>
      <point x="152" y="275" type="curve" smooth="yes"/>
      <point x="165" y="280"/>
      <point x="181" y="285"/>
      <point x="199" y="293" type="curve"/>
      <point x="235" y="309"/>
      <point x="270" y="328"/>
      <point x="303" y="349" type="curve"/>
      <point x="265" y="359"/>
      <point x="227" y="372"/>
      <point x="183" y="386" type="curve"/>
      <point x="183" y="385" type="line"/>
      <point x="136" y="400"/>
      <point x="96" y="413"/>
      <point x="48" y="426" type="curve"/>
      <point x="22" y="435"/>
      <point x="17" y="478"/>
    </contour>
  </outline>
</glyph>
<glyph name="question" format="1">
  <advance width="287"/>
  <unicode hex="003F"/>
  <outline>
    <contour>
      <point x="224" y="693" type="line"/>
      <point x="198" y="733"/>
      <point x="164" y="750"/>
      <point x="131" y="750" type="curve" smooth="yes"/>
      <point x="68" y="750"/>
      <point x="9" y="691"/>
      <point x="9" y="618" type="curve" smooth="yes"/>
      <point x="9" y="602"/>
      <point x="12" y="586"/>
      <point x="19" y="569" type="curve" smooth="yes"/>
      <point x="31" y="535"/>
      <point x="84" y="552"/>
      <point x="78" y="587" type="curve" smooth="yes"/>
      <point x="76" y="596"/>
      <point x="75" y="604"/>
      <point x="75" y="613" type="curve" smooth="yes"/>
      <point x="75" y="649"/>
      <point x="88" y="683"/>
      <point x="122" y="683" type="curve" smooth="yes"/>
      <point x="127" y="683"/>
      <point x="138" y="682"/>
      <point x="146" y="679" type="curve" smooth="yes"/>
      <point x="186" y="664"/>
      <point x="203" y="614"/>
      <point x="203" y="567" type="curve" smooth="yes"/>
      <point x="203" y="536"/>
      <point x="197" y="506"/>
      <point x="189" y="486" type="curve" smooth="yes"/>
      <point x="177" y="460"/>
      <point x="159" y="429"/>
      <point x="143" y="403" type="curve" smooth="yes"/>
      <point x="110" y="346"/>
      <point x="78" y="292"/>
      <point x="82" y="207" type="curve" smooth="yes"/>
      <point x="83" y="187"/>
      <point x="97" y="179"/>
      <point x="113" y="179" type="curve" smooth="yes"/>
      <point x="131" y="179"/>
      <point x="152" y="192"/>
      <point x="149" y="217" type="curve" smooth="yes"/>
      <point x="141" y="287"/>
      <point x="175" y="343"/>
      <point x="211" y="398" type="curve" smooth="yes"/>
      <point x="224" y="419"/>
      <point x="238" y="439"/>
      <point x="250" y="461" type="curve" smooth="yes"/>
      <point x="264" y="489"/>
      <point x="271" y="520"/>
      <point x="271" y="551" type="curve" smooth="yes"/>
      <point x="271" y="601"/>
      <point x="252" y="652"/>
      <point x="224" y="694" type="curve"/>
    </contour>
    <contour>
      <point x="103" y="80" type="curve"/>
      <point x="85" y="70"/>
      <point x="77" y="52"/>
      <point x="94" y="32" type="curve"/>
      <point x="93" y="36" type="line"/>
      <point x="95" y="32" type="line"/>
      <point x="98" y="14"/>
      <point x="105" y="-3"/>
      <point x="122" y="-8" type="curve" smooth="yes"/>
      <point x="151" y="-14"/>
      <point x="192" y="12"/>
      <point x="191" y="42" type="curve"/>
      <point x="191" y="74"/>
      <point x="167" y="85"/>
      <point x="140" y="88" type="curve"/>
      <point x="141" y="87" type="line"/>
      <point x="127" y="92"/>
      <point x="112" y="89"/>
    </contour>
  </outline>
</glyph>
<glyph name="at" format="1">
  <advance width="766"/>
  <unicode hex="0040"/>
  <outline>
    <contour>
      <point x="675" y="123" type="curve" smooth="yes"/>
      <point x="603" y="51"/>
      <point x="524" y="9"/>
      <point x="439" y="9" type="curve" smooth="yes"/>
      <point x="393" y="9"/>
      <point x="343" y="22"/>
      <point x="291" y="51" type="curve" smooth="yes"/>
      <point x="179" y="113"/>
      <point x="86" y="242"/>
      <point x="98" y="374" type="curve"/>
      <point x="109" y="500"/>
      <point x="229" y="555"/>
      <point x="345" y="555" type="curve" smooth="yes"/>
      <point x="402" y="555"/>
      <point x="460" y="540"/>
      <point x="505" y="516" type="curve"/>
      <point x="570" y="478"/>
      <point x="610" y="412"/>
      <point x="610" y="348" type="curve" smooth="yes"/>
      <point x="610" y="313"/>
      <point x="599" y="275"/>
      <point x="579" y="242" type="curve" smooth="yes"/>
      <point x="566" y="222"/>
      <point x="540" y="203"/>
      <point x="518" y="203" type="curve" smooth="yes"/>
      <point x="505" y="203"/>
      <point x="491" y="210"/>
      <point x="481" y="230" type="curve" smooth="yes"/>
      <point x="470" y="249"/>
      <point x="472" y="274"/>
      <point x="473" y="297" type="curve"/>
      <point x="473" y="305" type="line"/>
      <point x="475" y="343"/>
      <point x="483" y="382"/>
      <point x="495" y="420" type="curve"/>
      <point x="506" y="460"/>
      <point x="452" y="480"/>
      <point x="433" y="443" type="curve" smooth="yes"/>
      <point x="429" y="436"/>
      <point x="427" y="430"/>
      <point x="424" y="423" type="curve"/>
      <point x="399" y="435"/>
      <point x="372" y="441"/>
      <point x="347" y="441" type="curve" smooth="yes"/>
      <point x="255" y="441"/>
      <point x="167" y="363"/>
      <point x="167" y="275" type="curve" smooth="yes"/>
      <point x="167" y="243"/>
      <point x="178" y="209"/>
      <point x="206" y="178" type="curve" smooth="yes"/>
      <point x="226" y="156"/>
      <point x="253" y="148"/>
      <point x="279" y="148" type="curve" smooth="yes"/>
      <point x="319" y="148"/>
      <point x="361" y="166"/>
      <point x="387" y="191" type="curve" smooth="yes"/>
      <point x="396" y="200"/>
      <point x="406" y="210"/>
      <point x="414" y="222" type="curve"/>
      <point x="423" y="195"/>
      <point x="438" y="171"/>
      <point x="461" y="153" type="curve" smooth="yes"/>
      <point x="481" y="138"/>
      <point x="501" y="129"/>
      <point x="521" y="129" type="curve" smooth="yes"/>
      <point x="600" y="129"/>
      <point x="657" y="249"/>
      <point x="672" y="309" type="curve" smooth="yes"/>
      <point x="675" y="322"/>
      <point x="677" y="337"/>
      <point x="677" y="351" type="curve" smooth="yes"/>
      <point x="677" y="449"/>
      <point x="601" y="543"/>
      <point x="517" y="587" type="curve" smooth="yes"/>
      <point x="464" y="614"/>
      <point x="400" y="629"/>
      <point x="343" y="629" type="curve" smooth="yes"/>
      <point x="272" y="629"/>
      <point x="202" y="608"/>
      <point x="141" y="565" type="curve" smooth="yes"/>
      <point x="57" y="504"/>
      <point x="22" y="426"/>
      <point x="22" y="347" type="curve" smooth="yes"/>
      <point x="22" y="147"/>
      <point x="245" y="-67"/>
      <point x="460" y="-67" type="curve" smooth="yes"/>
      <point x="554" y="-67"/>
      <point x="650" y="-18"/>
      <point x="722" y="79" type="curve" smooth="yes"/>
      <point x="742" y="108"/>
      <point x="701" y="148"/>
    </contour>
    <contour>
      <point x="360" y="265" type="curve" smooth="yes"/>
      <point x="344" y="237"/>
      <point x="313" y="219"/>
      <point x="285" y="219" type="curve" smooth="yes"/>
      <point x="259" y="219"/>
      <point x="237" y="236"/>
      <point x="236" y="276" type="curve" smooth="yes"/>
      <point x="234" y="344"/>
      <point x="297" y="386"/>
      <point x="359" y="386" type="curve" smooth="yes"/>
      <point x="374" y="386"/>
      <point x="391" y="383"/>
      <point x="404" y="378" type="curve" smooth="yes"/>
      <point x="405" y="377"/>
      <point x="406" y="377"/>
      <point x="407" y="377" type="curve"/>
      <point x="395" y="342"/>
      <point x="381" y="305"/>
    </contour>
  </outline>
</glyph>
<glyph name="A" format="1">
  <advance width="416"/>
  <unicode hex="0041"/>
  <outline>
    <contour>
      <point x="390" y="22" type="line"/>
      <point x="380" y="138"/>
      <point x="347" y="253"/>
      <point x="313" y="362" type="curve" smooth="yes"/>
      <point x="305" y="386"/>
      <point x="297" y="410"/>
      <point x="290" y="435" type="curve" smooth="yes"/>
      <point x="283" y="456"/>
      <point x="277" y="478"/>
      <point x="272" y="500" type="curve" smooth="yes"/>
      <point x="253" y="565"/>
      <point x="234" y="634"/>
      <point x="203" y="694" type="curve"/>
      <point x="206" y="736" type="line"/>
      <point x="207" y="750"/>
      <point x="180" y="756"/>
      <point x="165" y="751" type="curve"/>
      <point x="152" y="754"/>
      <point x="136" y="738"/>
      <point x="140" y="722" type="curve"/>
      <point x="143" y="704"/>
      <point x="147" y="684"/>
      <point x="152" y="665" type="curve"/>
      <point x="133" y="457"/>
      <point x="83" y="235"/>
      <point x="17" y="39" type="curve" smooth="yes"/>
      <point x="8" y="15"/>
      <point x="61" y="-3"/>
      <point x="70" y="19" type="curve" smooth="yes"/>
      <point x="87" y="69"/>
      <point x="104" y="121"/>
      <point x="118" y="171" type="curve"/>
      <point x="174" y="169"/>
      <point x="238" y="178"/>
      <point x="292" y="188" type="curve"/>
      <point x="306" y="126"/>
      <point x="318" y="73"/>
      <point x="334" y="12" type="curve" smooth="yes"/>
      <point x="343" y="-21"/>
      <point x="392" y="-15"/>
      <point x="390" y="21" type="curve"/>
    </contour>
    <contour>
      <point x="190" y="548" type="curve"/>
      <point x="202" y="511" type="line"/>
      <point x="217" y="470"/>
      <point x="232" y="423"/>
      <point x="244" y="383" type="curve"/>
      <point x="257" y="337"/>
      <point x="269" y="293"/>
      <point x="279" y="248" type="curve"/>
      <point x="227" y="239"/>
      <point x="183" y="234"/>
      <point x="131" y="228" type="curve"/>
      <point x="157" y="332"/>
      <point x="177" y="440"/>
    </contour>
    <contour>
      <point x="128" y="215" type="line"/>
      <point x="131" y="228" type="line"/>
      <point x="126" y="228"/>
      <point x="122" y="227"/>
      <point x="118" y="227" type="curve"/>
    </contour>
  </outline>
</glyph>
<glyph name="B" format="1">
  <advance width="291"/>
  <unicode hex="0042"/>
  <outline>
    <contour>
      <point x="272" y="546" type="curve" smooth="yes"/>
      <point x="272" y="648"/>
      <point x="206" y="749"/>
      <point x="115" y="749" type="curve" smooth="yes"/>
      <point x="89" y="749"/>
      <point x="63" y="741"/>
      <point x="33" y="721" type="curve"/>
      <point x="33" y="722" type="line"/>
      <point x="25" y="718"/>
      <point x="20" y="708"/>
      <point x="21" y="700" type="curve"/>
      <point x="21" y="693" type="line"/>
      <point x="19" y="598"/>
      <point x="16" y="490"/>
      <point x="13" y="395" type="curve" smooth="yes"/>
      <point x="10" y="278"/>
      <point x="7" y="162"/>
      <point x="5" y="45" type="curve" smooth="yes"/>
      <point x="5" y="27"/>
      <point x="20" y="18"/>
      <point x="34" y="16" type="curve"/>
      <point x="56" y="4"/>
      <point x="81" y="-1"/>
      <point x="102" y="-1" type="curve" smooth="yes"/>
      <point x="201" y="-1"/>
      <point x="271" y="109"/>
      <point x="271" y="214" type="curve" smooth="yes"/>
      <point x="271" y="277"/>
      <point x="244" y="339"/>
      <point x="179" y="371" type="curve"/>
      <point x="245" y="411"/>
      <point x="272" y="479"/>
    </contour>
    <contour>
      <point x="65" y="608" type="curve"/>
      <point x="65" y="683" type="line"/>
      <point x="72" y="684"/>
      <point x="83" y="684"/>
      <point x="89" y="684" type="curve" smooth="yes"/>
      <point x="177" y="684"/>
      <point x="221" y="625"/>
      <point x="221" y="560" type="curve" smooth="yes"/>
      <point x="221" y="486"/>
      <point x="167" y="408"/>
      <point x="63" y="394" type="curve"/>
      <point x="64" y="465"/>
      <point x="65" y="537"/>
    </contour>
    <contour>
      <point x="57" y="393" type="curve"/>
      <point x="56" y="393" type="line"/>
      <point x="55" y="393"/>
      <point x="54" y="392"/>
      <point x="53" y="392" type="curve"/>
      <point x="63" y="382" type="line"/>
      <point x="63" y="394" type="line"/>
      <point x="61" y="393"/>
      <point x="59" y="393"/>
    </contour>
    <contour>
      <point x="63" y="333" type="curve"/>
      <point x="66" y="330"/>
      <point x="62" y="333"/>
      <point x="67" y="334" type="curve"/>
      <point x="169" y="340"/>
      <point x="215" y="273"/>
      <point x="215" y="204" type="curve" smooth="yes"/>
      <point x="215" y="136"/>
      <point x="170" y="65"/>
      <point x="91" y="65" type="curve" smooth="yes"/>
      <point x="83" y="65"/>
      <point x="72" y="65"/>
      <point x="61" y="68" type="curve"/>
      <point x="61" y="155"/>
      <point x="62" y="246"/>
    </contour>
    <contour>
      <point x="61" y="60" type="line"/>
      <point x="61" y="68" type="line"/>
      <point x="58" y="68"/>
      <point x="56" y="69"/>
      <point x="54" y="70" type="curve"/>
    </contour>
  </outline>
</glyph>
<glyph name="C" format="1">
  <advance width="335"/>
  <unicode hex="0043"/>
  <outline>
    <contour>
      <point x="312" y="674" type="curve" smooth="yes"/>
      <point x="303" y="730"/>
      <point x="256" y="752"/>
      <point x="202" y="752" type="curve" smooth="yes"/>
      <point x="154" y="752"/>
      <point x="104" y="734"/>
      <point x="76" y="712" type="curve" smooth="yes"/>
      <point x="28" y="674"/>
      <point x="17" y="602"/>
      <point x="17" y="529" type="curve" smooth="yes"/>
      <point x="17" y="501"/>
      <point x="19" y="467"/>
      <point x="21" y="440" type="curve" smooth="yes"/>
      <point x="23" y="411"/>
      <point x="24" y="379"/>
      <point x="23" y="359" type="curve" smooth="yes"/>
      <point x="23" y="349"/>
      <point x="22" y="337"/>
      <point x="21" y="327" type="curve" smooth="yes"/>
      <point x="20" y="300"/>
      <point x="18" y="273"/>
      <point x="18" y="244" type="curve" smooth="yes"/>
      <point x="18" y="152"/>
      <point x="33" y="56"/>
      <point x="121" y="15" type="curve" smooth="yes"/>
      <point x="143" y="4"/>
      <point x="165" y="-1"/>
      <point x="183" y="-1" type="curve" smooth="yes"/>
      <point x="241" y="-1"/>
      <point x="274" y="45"/>
      <point x="274" y="109" type="curve" smooth="yes"/>
      <point x="274" y="121"/>
      <point x="273" y="133"/>
      <point x="271" y="144" type="curve" smooth="yes"/>
      <point x="266" y="171"/>
      <point x="213" y="162"/>
      <point x="209" y="137" type="curve"/>
      <point x="196" y="91"/>
      <point x="181" y="66"/>
      <point x="163" y="66" type="curve" smooth="yes"/>
      <point x="150" y="66"/>
      <point x="136" y="76"/>
      <point x="118" y="97" type="curve"/>
      <point x="91" y="121"/>
      <point x="89" y="163"/>
      <point x="86" y="197" type="curve" smooth="yes"/>
      <point x="86" y="199"/>
      <point x="85" y="202"/>
      <point x="85" y="204" type="curve" smooth="yes"/>
      <point x="82" y="227"/>
      <point x="81" y="251"/>
      <point x="81" y="274" type="curve" smooth="yes"/>
      <point x="81" y="300"/>
      <point x="82" y="327"/>
      <point x="84" y="353" type="curve"/>
      <point x="87" y="409" type="line"/>
      <point x="88" y="436"/>
      <point x="87" y="463"/>
      <point x="86" y="489" type="curve" smooth="yes"/>
      <point x="85" y="512"/>
      <point x="85" y="534"/>
      <point x="85" y="557" type="curve" smooth="yes"/>
      <point x="86" y="631"/>
      <point x="135" y="694"/>
      <point x="195" y="694" type="curve" smooth="yes"/>
      <point x="221" y="694"/>
      <point x="249" y="682"/>
      <point x="276" y="655" type="curve"/>
      <point x="291" y="639"/>
      <point x="316" y="652"/>
    </contour>
  </outline>
</glyph>
<glyph name="D" format="1">
  <advance width="398"/>
  <unicode hex="0044"/>
  <outline>
    <contour>
      <point x="317" y="680" type="curve" smooth="yes"/>
      <point x="269" y="740"/>
      <point x="213" y="752"/>
      <point x="149" y="752" type="curve" smooth="yes"/>
      <point x="133" y="752"/>
      <point x="109" y="751"/>
      <point x="92" y="750" type="curve" smooth="yes"/>
      <point x="85" y="750"/>
      <point x="78" y="749"/>
      <point x="71" y="749" type="curve"/>
      <point x="41" y="746"/>
      <point x="42" y="699"/>
      <point x="72" y="697" type="curve"/>
      <point x="81" y="697" type="line"/>
      <point x="95" y="586"/>
      <point x="106" y="476"/>
      <point x="106" y="367" type="curve" smooth="yes"/>
      <point x="106" y="264"/>
      <point x="98" y="166"/>
      <point x="76" y="61" type="curve"/>
      <point x="65" y="60"/>
      <point x="50" y="59"/>
      <point x="40" y="58" type="curve" smooth="yes"/>
      <point x="9" y="52"/>
      <point x="13" y="11"/>
      <point x="41" y="5" type="curve" smooth="yes"/>
      <point x="63" y="1"/>
      <point x="92" y="-2"/>
      <point x="113" y="-2" type="curve" smooth="yes"/>
      <point x="288" y="-2"/>
      <point x="354" y="143"/>
      <point x="363" y="319" type="curve" smooth="yes"/>
      <point x="364" y="338"/>
      <point x="366" y="359"/>
      <point x="368" y="379" type="curve" smooth="yes"/>
      <point x="371" y="414"/>
      <point x="374" y="450"/>
      <point x="374" y="487" type="curve" smooth="yes"/>
      <point x="374" y="556"/>
      <point x="362" y="623"/>
    </contour>
    <contour>
      <point x="306" y="326" type="line"/>
      <point x="305" y="312"/>
      <point x="302" y="295"/>
      <point x="301" y="282" type="curve" smooth="yes"/>
      <point x="295" y="229"/>
      <point x="289" y="172"/>
      <point x="259" y="124" type="curve"/>
      <point x="235" y="81"/>
      <point x="187" y="69"/>
      <point x="138" y="64" type="curve"/>
      <point x="159" y="163"/>
      <point x="169" y="267"/>
      <point x="169" y="370" type="curve" smooth="yes"/>
      <point x="169" y="482"/>
      <point x="158" y="592"/>
      <point x="136" y="697" type="curve"/>
      <point x="197" y="697"/>
      <point x="248" y="685"/>
      <point x="289" y="620" type="curve"/>
      <point x="312" y="580"/>
      <point x="320" y="532"/>
      <point x="320" y="486" type="curve" smooth="yes"/>
      <point x="320" y="444"/>
      <point x="314" y="400"/>
      <point x="310" y="359" type="curve"/>
    </contour>
  </outline>
</glyph>
<glyph name="E" format="1">
  <advance width="386"/>
  <unicode hex="0045"/>
  <outline>
    <contour>
      <point x="331" y="739" type="curve" smooth="yes"/>
      <point x="302" y="739"/>
      <point x="270" y="741"/>
      <point x="238" y="744" type="curve" smooth="yes"/>
      <point x="205" y="747"/>
      <point x="172" y="750"/>
      <point x="139" y="750" type="curve" smooth="yes"/>
      <point x="119" y="750"/>
      <point x="101" y="749"/>
      <point x="83" y="747" type="curve"/>
      <point x="70" y="759"/>
      <point x="43" y="757"/>
      <point x="38" y="735" type="curve"/>
      <point x="29" y="725"/>
      <point x="28" y="711"/>
      <point x="37" y="702" type="curve"/>
      <point x="33" y="585"/>
      <point x="28" y="474"/>
      <point x="28" y="357" type="curve" smooth="yes"/>
      <point x="28" y="249"/>
      <point x="32" y="139"/>
      <point x="44" y="33" type="curve" smooth="yes"/>
      <point x="46" y="19"/>
      <point x="57" y="9"/>
      <point x="72" y="7" type="curve" smooth="yes"/>
      <point x="109" y="2"/>
      <point x="147" y="0"/>
      <point x="184" y="-2" type="curve" smooth="yes"/>
      <point x="221" y="-4"/>
      <point x="259" y="-6"/>
      <point x="296" y="-10" type="curve" smooth="yes"/>
      <point x="326" y="-13"/>
      <point x="337" y="31"/>
      <point x="308" y="42" type="curve" smooth="yes"/>
      <point x="265" y="57"/>
      <point x="231" y="59"/>
      <point x="188" y="61" type="curve" smooth="yes"/>
      <point x="175" y="61"/>
      <point x="161" y="61"/>
      <point x="149" y="62" type="curve" smooth="yes"/>
      <point x="136" y="62"/>
      <point x="124" y="63"/>
      <point x="112" y="64" type="curve" smooth="yes"/>
      <point x="63" y="66"/>
      <point x="70" y="241"/>
      <point x="70" y="245" type="curve"/>
      <point x="89" y="245" type="line"/>
      <point x="88" y="281"/>
      <point x="88" y="316"/>
      <point x="88" y="352" type="curve"/>
      <point x="115" y="342"/>
      <point x="144" y="343"/>
      <point x="172" y="343" type="curve"/>
      <point x="191" y="343" type="line"/>
      <point x="221" y="343"/>
      <point x="273" y="342"/>
      <point x="288" y="367" type="curve"/>
      <point x="294" y="378"/>
      <point x="295" y="396"/>
      <point x="282" y="404" type="curve" smooth="yes"/>
      <point x="262" y="415"/>
      <point x="239" y="409"/>
      <point x="219" y="406" type="curve"/>
      <point x="220" y="406" type="line"/>
      <point x="199" y="402" type="line"/>
      <point x="186" y="401"/>
      <point x="173" y="400"/>
      <point x="160" y="400" type="curve" smooth="yes"/>
      <point x="137" y="400"/>
      <point x="113" y="402"/>
      <point x="88" y="405" type="curve"/>
      <point x="88" y="439"/>
      <point x="89" y="464"/>
      <point x="90" y="498" type="curve" smooth="yes"/>
      <point x="91" y="546"/>
      <point x="91" y="594"/>
      <point x="91" y="641" type="curve"/>
      <point x="91" y="689" type="line"/>
      <point x="156" y="679"/>
      <point x="225" y="678"/>
      <point x="291" y="678" type="curve"/>
      <point x="327" y="678" type="line"/>
      <point x="353" y="678"/>
      <point x="358" y="739"/>
    </contour>
  </outline>
</glyph>
<glyph name="F" format="1">
  <advance width="358"/>
  <unicode hex="0046"/>
  <outline>
    <contour>
      <point x="264" y="754" type="curve" smooth="yes"/>
      <point x="251" y="754"/>
      <point x="235" y="752"/>
      <point x="222" y="751" type="curve" smooth="yes"/>
      <point x="215" y="750"/>
      <point x="207" y="749"/>
      <point x="203" y="749" type="curve"/>
      <point x="166" y="749" type="line"/>
      <point x="151" y="749"/>
      <point x="136" y="750"/>
      <point x="121" y="750" type="curve" smooth="yes"/>
      <point x="105" y="750"/>
      <point x="90" y="749"/>
      <point x="76" y="748" type="curve"/>
      <point x="76" y="750"/>
      <point x="75" y="752"/>
      <point x="74" y="757" type="curve"/>
      <point x="75" y="756" type="line"/>
      <point x="67" y="789"/>
      <point x="19" y="780"/>
      <point x="24" y="747" type="curve" smooth="yes"/>
      <point x="24" y="744"/>
      <point x="25" y="742"/>
      <point x="25" y="740" type="curve"/>
      <point x="25" y="738" type="line"/>
      <point x="8" y="728"/>
      <point x="9" y="705"/>
      <point x="28" y="698" type="curve"/>
      <point x="33" y="643"/>
      <point x="35" y="588"/>
      <point x="35" y="534" type="curve" smooth="yes"/>
      <point x="35" y="473"/>
      <point x="33" y="411"/>
      <point x="31" y="351" type="curve" smooth="yes"/>
      <point x="29" y="287"/>
      <point x="27" y="221"/>
      <point x="27" y="157" type="curve" smooth="yes"/>
      <point x="27" y="111"/>
      <point x="28" y="64"/>
      <point x="31" y="19" type="curve" smooth="yes"/>
      <point x="34" y="-11"/>
      <point x="84" y="-9"/>
      <point x="88" y="21" type="curve"/>
      <point x="98" y="126"/>
      <point x="105" y="243"/>
      <point x="105" y="351" type="curve"/>
      <point x="164" y="352"/>
      <point x="263" y="362"/>
      <point x="263" y="408" type="curve"/>
      <point x="256" y="441"/>
      <point x="216" y="431"/>
      <point x="193" y="424" type="curve" smooth="yes"/>
      <point x="189" y="423"/>
      <point x="181" y="421"/>
      <point x="183" y="422" type="curve"/>
      <point x="185" y="423" type="line"/>
      <point x="159" y="417"/>
      <point x="132" y="411"/>
      <point x="105" y="404" type="curve"/>
      <point x="104" y="500"/>
      <point x="98" y="598"/>
      <point x="85" y="690" type="curve"/>
      <point x="105" y="688"/>
      <point x="114" y="688"/>
      <point x="135" y="688" type="curve" smooth="yes"/>
      <point x="146" y="688"/>
      <point x="159" y="689"/>
      <point x="171" y="689" type="curve" smooth="yes"/>
      <point x="184" y="689"/>
      <point x="199" y="690"/>
      <point x="213" y="690" type="curve" smooth="yes"/>
      <point x="219" y="690"/>
      <point x="227" y="689"/>
      <point x="236" y="688" type="curve" smooth="yes"/>
      <point x="246" y="687"/>
      <point x="258" y="686"/>
      <point x="269" y="686" type="curve" smooth="yes"/>
      <point x="291" y="686"/>
      <point x="309" y="690"/>
      <point x="320" y="704" type="curve"/>
      <point x="329" y="713"/>
      <point x="329" y="728"/>
      <point x="319" y="735" type="curve"/>
      <point x="307" y="749"/>
      <point x="287" y="754"/>
    </contour>
  </outline>
</glyph>
<glyph name="G" format="1">
  <advance width="366"/>
  <unicode hex="0047"/>
  <outline>
    <contour>
      <point x="326" y="654" type="curve" smooth="yes"/>
      <point x="305" y="709"/>
      <point x="244" y="753"/>
      <point x="184" y="753" type="curve" smooth="yes"/>
      <point x="160" y="753"/>
      <point x="136" y="745"/>
      <point x="115" y="731" type="curve"/>
      <point x="39" y="676"/>
      <point x="26" y="569"/>
      <point x="20" y="485" type="curve" smooth="yes"/>
      <point x="17" y="447"/>
      <point x="13" y="397"/>
      <point x="13" y="345" type="curve" smooth="yes"/>
      <point x="13" y="203"/>
      <point x="39" y="39"/>
      <point x="174" y="3" type="curve" smooth="yes"/>
      <point x="187" y="0"/>
      <point x="199" y="-2"/>
      <point x="212" y="-2" type="curve" smooth="yes"/>
      <point x="319" y="-2"/>
      <point x="348" y="134"/>
      <point x="348" y="237" type="curve" smooth="yes"/>
      <point x="348" y="267"/>
      <point x="346" y="295"/>
      <point x="343" y="315" type="curve" smooth="yes"/>
      <point x="334" y="358"/>
      <point x="290" y="393"/>
      <point x="247" y="393" type="curve" smooth="yes"/>
      <point x="228" y="393"/>
      <point x="210" y="387"/>
      <point x="195" y="374" type="curve"/>
      <point x="196" y="374" type="line"/>
      <point x="167" y="350"/>
      <point x="158" y="311"/>
      <point x="158" y="270" type="curve" smooth="yes"/>
      <point x="158" y="238"/>
      <point x="163" y="208"/>
      <point x="167" y="180" type="curve" smooth="yes"/>
      <point x="169" y="169"/>
      <point x="171" y="159"/>
      <point x="172" y="149" type="curve" smooth="yes"/>
      <point x="175" y="124"/>
      <point x="234" y="133"/>
      <point x="231" y="160" type="curve" smooth="yes"/>
      <point x="227" y="204"/>
      <point x="222" y="248"/>
      <point x="224" y="292" type="curve"/>
      <point x="224" y="291" type="line"/>
      <point x="226" y="312"/>
      <point x="243" y="325"/>
      <point x="259" y="325" type="curve" smooth="yes"/>
      <point x="269" y="325"/>
      <point x="279" y="319"/>
      <point x="282" y="304" type="curve" smooth="yes"/>
      <point x="290" y="273"/>
      <point x="293" y="242"/>
      <point x="294" y="211" type="curve" smooth="yes"/>
      <point x="296" y="148"/>
      <point x="257" y="64"/>
      <point x="201" y="64" type="curve" smooth="yes"/>
      <point x="185" y="64"/>
      <point x="166" y="72"/>
      <point x="147" y="91" type="curve" smooth="yes"/>
      <point x="78" y="155"/>
      <point x="79" y="274"/>
      <point x="79" y="368" type="curve"/>
      <point x="79" y="403" type="line"/>
      <point x="78" y="452"/>
      <point x="81" y="506"/>
      <point x="88" y="556" type="curve"/>
      <point x="100" y="619"/>
      <point x="141" y="690"/>
      <point x="192" y="690" type="curve" smooth="yes"/>
      <point x="219" y="690"/>
      <point x="252" y="671"/>
      <point x="286" y="630" type="curve" smooth="yes"/>
      <point x="303" y="609"/>
      <point x="336" y="631"/>
    </contour>
  </outline>
</glyph>
<glyph name="H" format="1">
  <advance width="349"/>
  <unicode hex="0048"/>
  <outline>
    <contour>
      <point x="304" y="729" type="line"/>
      <point x="302" y="757"/>
      <point x="262" y="754"/>
      <point x="260" y="728" type="curve" smooth="yes"/>
      <point x="255" y="675"/>
      <point x="253" y="619"/>
      <point x="253" y="564" type="curve" smooth="yes"/>
      <point x="253" y="511"/>
      <point x="254" y="457"/>
      <point x="256" y="404" type="curve"/>
      <point x="249" y="405"/>
      <point x="245" y="405"/>
      <point x="239" y="405" type="curve" smooth="yes"/>
      <point x="221" y="405"/>
      <point x="207" y="402"/>
      <point x="192" y="400" type="curve"/>
      <point x="173" y="397" type="line"/>
      <point x="171" y="397"/>
      <point x="169" y="396"/>
      <point x="167" y="396" type="curve" smooth="yes"/>
      <point x="145" y="393"/>
      <point x="120" y="389"/>
      <point x="97" y="383" type="curve"/>
      <point x="98" y="408"/>
      <point x="97" y="420"/>
      <point x="97" y="446" type="curve" smooth="yes"/>
      <point x="97" y="546"/>
      <point x="89" y="648"/>
      <point x="66" y="742" type="curve"/>
      <point x="60" y="759"/>
      <point x="15" y="751"/>
      <point x="15" y="731" type="curve"/>
      <point x="26" y="674"/>
      <point x="30" y="611"/>
      <point x="30" y="555" type="curve" smooth="yes"/>
      <point x="30" y="491"/>
      <point x="26" y="429"/>
      <point x="22" y="367" type="curve" smooth="yes"/>
      <point x="18" y="304"/>
      <point x="13" y="241"/>
      <point x="13" y="179" type="curve" smooth="yes"/>
      <point x="13" y="125"/>
      <point x="17" y="70"/>
      <point x="26" y="17" type="curve" smooth="yes"/>
      <point x="30" y="-11"/>
      <point x="75" y="-10"/>
      <point x="75" y="19" type="curve"/>
      <point x="77" y="73"/>
      <point x="81" y="128"/>
      <point x="85" y="183" type="curve" smooth="yes"/>
      <point x="88" y="230"/>
      <point x="92" y="274"/>
      <point x="94" y="321" type="curve"/>
      <point x="107" y="322"/>
      <point x="120" y="325"/>
      <point x="134" y="328" type="curve" smooth="yes"/>
      <point x="145" y="330"/>
      <point x="157" y="332"/>
      <point x="169" y="333" type="curve" smooth="yes"/>
      <point x="175" y="333"/>
      <point x="181" y="334"/>
      <point x="187" y="334" type="curve" smooth="yes"/>
      <point x="210" y="335"/>
      <point x="237" y="336"/>
      <point x="260" y="343" type="curve"/>
      <point x="260" y="303"/>
      <point x="260" y="277"/>
      <point x="260" y="236" type="curve" smooth="yes"/>
      <point x="260" y="163"/>
      <point x="258" y="89"/>
      <point x="244" y="15" type="curve" smooth="yes"/>
      <point x="240" y="-10"/>
      <point x="295" y="-16"/>
      <point x="299" y="7" type="curve" smooth="yes"/>
      <point x="319" y="98"/>
      <point x="326" y="194"/>
      <point x="326" y="291" type="curve" smooth="yes"/>
      <point x="326" y="386"/>
      <point x="319" y="482"/>
      <point x="313" y="576" type="curve" smooth="yes"/>
      <point x="309" y="628"/>
      <point x="306" y="678"/>
      <point x="304" y="728" type="curve"/>
    </contour>
  </outline>
</glyph>
<glyph name="I" format="1">
  <advance width="122"/>
  <unicode hex="0049"/>
  <outline>
    <contour>
      <point x="39" y="730" type="curve"/>
      <point x="39" y="674" type="line"/>
      <point x="39" y="628"/>
      <point x="40" y="567"/>
      <point x="41" y="521" type="curve" smooth="yes"/>
      <point x="42" y="465"/>
      <point x="44" y="410"/>
      <point x="44" y="355" type="curve" smooth="yes"/>
      <point x="44" y="248"/>
      <point x="38" y="140"/>
      <point x="15" y="33" type="curve"/>
      <point x="15" y="34" type="line"/>
      <point x="9" y="11"/>
      <point x="25" y="-1"/>
      <point x="44" y="-1" type="curve" smooth="yes"/>
      <point x="57" y="-1"/>
      <point x="71" y="8"/>
      <point x="76" y="24" type="curve"/>
      <point x="98" y="133"/>
      <point x="105" y="244"/>
      <point x="105" y="355" type="curve" smooth="yes"/>
      <point x="105" y="438"/>
      <point x="101" y="521"/>
      <point x="97" y="602" type="curve" smooth="yes"/>
      <point x="95" y="644"/>
      <point x="93" y="685"/>
      <point x="92" y="727" type="curve"/>
      <point x="90" y="761"/>
      <point x="41" y="765"/>
    </contour>
  </outline>
</glyph>
<glyph name="J" format="1">
  <advance width="324"/>
  <unicode hex="004A"/>
  <outline>
    <contour>
      <point x="298" y="744" type="line"/>
      <point x="286" y="752"/>
      <point x="270" y="755"/>
      <point x="254" y="755" type="curve" smooth="yes"/>
      <point x="231" y="755"/>
      <point x="206" y="748"/>
      <point x="188" y="742" type="curve"/>
      <point x="188" y="743" type="line"/>
      <point x="167" y="736"/>
      <point x="178" y="683"/>
      <point x="200" y="691" type="curve"/>
      <point x="200" y="690" type="line"/>
      <point x="211" y="693" type="line"/>
      <point x="217" y="601"/>
      <point x="219" y="524"/>
      <point x="219" y="435" type="curve" smooth="yes"/>
      <point x="219" y="407"/>
      <point x="219" y="377"/>
      <point x="218" y="348" type="curve" smooth="yes"/>
      <point x="217" y="295"/>
      <point x="214" y="239"/>
      <point x="208" y="185" type="curve" smooth="yes"/>
      <point x="203" y="148"/>
      <point x="196" y="117"/>
      <point x="176" y="81" type="curve" smooth="yes"/>
      <point x="161" y="54"/>
      <point x="144" y="42"/>
      <point x="130" y="42" type="curve" smooth="yes"/>
      <point x="93" y="42"/>
      <point x="59" y="102"/>
      <point x="69" y="148" type="curve" smooth="yes"/>
      <point x="76" y="177"/>
      <point x="39" y="190"/>
      <point x="27" y="164" type="curve"/>
      <point x="16" y="141"/>
      <point x="12" y="119"/>
      <point x="12" y="100" type="curve" smooth="yes"/>
      <point x="12" y="38"/>
      <point x="61" y="-1"/>
      <point x="116" y="-1" type="curve" smooth="yes"/>
      <point x="160" y="-1"/>
      <point x="206" y="22"/>
      <point x="235" y="77" type="curve" smooth="yes"/>
      <point x="272" y="148"/>
      <point x="274" y="242"/>
      <point x="276" y="324" type="curve" smooth="yes"/>
      <point x="276" y="341"/>
      <point x="276" y="358"/>
      <point x="277" y="374" type="curve" smooth="yes"/>
      <point x="277" y="384"/>
      <point x="278" y="404"/>
      <point x="278" y="413" type="curve" smooth="yes"/>
      <point x="279" y="448"/>
      <point x="280" y="486"/>
      <point x="280" y="524" type="curve" smooth="yes"/>
      <point x="280" y="585"/>
      <point x="277" y="645"/>
      <point x="263" y="699" type="curve"/>
      <point x="274" y="700"/>
      <point x="286" y="700"/>
      <point x="296" y="708" type="curve"/>
      <point x="309" y="715"/>
      <point x="314" y="733"/>
      <point x="298" y="743" type="curve"/>
    </contour>
  </outline>
</glyph>
<glyph name="K" format="1">
  <advance width="410"/>
  <unicode hex="004B"/>
  <outline>
    <contour>
      <point x="369" y="39" type="line"/>
      <point x="327" y="164"/>
      <point x="259" y="279"/>
      <point x="186" y="386" type="curve"/>
      <point x="193" y="398"/>
      <point x="199" y="408"/>
      <point x="205" y="419" type="curve" smooth="yes"/>
      <point x="261" y="517"/>
      <point x="319" y="622"/>
      <point x="360" y="731" type="curve"/>
      <point x="367" y="755"/>
      <point x="335" y="773"/>
      <point x="322" y="752" type="curve" smooth="yes"/>
      <point x="276" y="672"/>
      <point x="228" y="585"/>
      <point x="183" y="504" type="curve"/>
      <point x="167" y="478"/>
      <point x="154" y="450"/>
      <point x="138" y="423" type="curve"/>
      <point x="132" y="421"/>
      <point x="127" y="417"/>
      <point x="125" y="411" type="curve"/>
      <point x="125" y="420" type="line"/>
      <point x="126" y="447"/>
      <point x="126" y="475"/>
      <point x="126" y="503" type="curve" smooth="yes"/>
      <point x="126" y="582"/>
      <point x="120" y="667"/>
      <point x="97" y="737" type="curve"/>
      <point x="88" y="757"/>
      <point x="60" y="749"/>
      <point x="57" y="731" type="curve" smooth="yes"/>
      <point x="53" y="704"/>
      <point x="51" y="672"/>
      <point x="51" y="642" type="curve" smooth="yes"/>
      <point x="51" y="601"/>
      <point x="54" y="556"/>
      <point x="58" y="515" type="curve"/>
      <point x="61" y="472"/>
      <point x="65" y="429"/>
      <point x="65" y="387" type="curve" smooth="yes"/>
      <point x="64" y="269"/>
      <point x="49" y="146"/>
      <point x="28" y="29" type="curve"/>
      <point x="29" y="10"/>
      <point x="81" y="-5"/>
      <point x="86" y="16" type="curve" smooth="yes"/>
      <point x="109" y="105"/>
      <point x="120" y="197"/>
      <point x="122" y="291" type="curve"/>
      <point x="129" y="291"/>
      <point x="137" y="295"/>
      <point x="140" y="301" type="curve"/>
      <point x="140" y="301"/>
      <point x="152" y="321"/>
      <point x="157" y="330" type="curve"/>
      <point x="173" y="297"/>
      <point x="191" y="265"/>
      <point x="208" y="233" type="curve" smooth="yes"/>
      <point x="246" y="162"/>
      <point x="286" y="92"/>
      <point x="311" y="14" type="curve" smooth="yes"/>
      <point x="319" y="-13"/>
      <point x="379" y="12"/>
      <point x="370" y="39" type="curve"/>
    </contour>
  </outline>
</glyph>
<glyph name="L" format="1">
  <advance width="326"/>
  <unicode hex="004C"/>
  <outline>
    <contour>
      <point x="58" y="726" type="curve" smooth="yes"/>
      <point x="57" y="630"/>
      <point x="48" y="525"/>
      <point x="40" y="429" type="curve" smooth="yes"/>
      <point x="30" y="313"/>
      <point x="20" y="193"/>
      <point x="20" y="77" type="curve" smooth="yes"/>
      <point x="20" y="62"/>
      <point x="21" y="47"/>
      <point x="21" y="32" type="curve" smooth="yes"/>
      <point x="21" y="17"/>
      <point x="32" y="-1"/>
      <point x="50" y="-1" type="curve"/>
      <point x="116" y="-1" type="line"/>
      <point x="167" y="-1"/>
      <point x="221" y="-1"/>
      <point x="271" y="3" type="curve"/>
      <point x="293" y="4"/>
      <point x="287" y="58"/>
      <point x="264" y="58" type="curve" smooth="yes"/>
      <point x="262" y="58"/>
      <point x="258" y="57"/>
      <point x="255" y="57" type="curve" smooth="yes"/>
      <point x="238" y="55"/>
      <point x="202" y="50"/>
      <point x="168" y="50" type="curve" smooth="yes"/>
      <point x="125" y="50"/>
      <point x="83" y="57"/>
      <point x="82" y="82" type="curve" smooth="yes"/>
      <point x="81" y="151"/>
      <point x="86" y="227"/>
      <point x="91" y="297" type="curve"/>
      <point x="97" y="381" type="line"/>
      <point x="102" y="462"/>
      <point x="107" y="545"/>
      <point x="107" y="626" type="curve" smooth="yes"/>
      <point x="107" y="660"/>
      <point x="106" y="694"/>
      <point x="104" y="728" type="curve" smooth="yes"/>
      <point x="103" y="745"/>
      <point x="58" y="742"/>
    </contour>
  </outline>
</glyph>
<glyph name="M" format="1">
  <advance width="457"/>
  <unicode hex="004D"/>
  <outline>
    <contour>
      <point x="411" y="737" type="curve" smooth="yes"/>
      <point x="411" y="766"/>
      <point x="380" y="778"/>
      <point x="361" y="758" type="curve"/>
      <point x="288" y="674"/>
      <point x="250" y="568"/>
      <point x="232" y="458" type="curve"/>
      <point x="197" y="561"/>
      <point x="150" y="657"/>
      <point x="69" y="738" type="curve"/>
      <point x="48" y="761"/>
      <point x="17" y="744"/>
      <point x="17" y="715" type="curve" smooth="yes"/>
      <point x="20" y="663"/>
      <point x="23" y="609"/>
      <point x="27" y="559" type="curve" smooth="yes"/>
      <point x="35" y="442"/>
      <point x="43" y="327"/>
      <point x="43" y="210" type="curve" smooth="yes"/>
      <point x="43" y="149"/>
      <point x="41" y="88"/>
      <point x="35" y="26" type="curve" smooth="yes"/>
      <point x="33" y="-2"/>
      <point x="74" y="-4"/>
      <point x="80" y="21" type="curve" smooth="yes"/>
      <point x="97" y="102"/>
      <point x="104" y="192"/>
      <point x="104" y="276" type="curve" smooth="yes"/>
      <point x="104" y="373"/>
      <point x="96" y="470"/>
      <point x="89" y="566" type="curve"/>
      <point x="83" y="630" type="line"/>
      <point x="152" y="533"/>
      <point x="185" y="420"/>
      <point x="218" y="302" type="curve"/>
      <point x="227" y="274"/>
      <point x="274" y="273"/>
      <point x="275" y="306" type="curve" smooth="yes"/>
      <point x="278" y="426"/>
      <point x="296" y="552"/>
      <point x="358" y="655" type="curve"/>
      <point x="360" y="601"/>
      <point x="362" y="577"/>
      <point x="366" y="523" type="curve" smooth="yes"/>
      <point x="370" y="442"/>
      <point x="376" y="361"/>
      <point x="376" y="280" type="curve" smooth="yes"/>
      <point x="376" y="196"/>
      <point x="370" y="112"/>
      <point x="353" y="28" type="curve"/>
      <point x="353" y="29" type="line"/>
      <point x="347" y="8"/>
      <point x="365" y="-5"/>
      <point x="382" y="-5" type="curve" smooth="yes"/>
      <point x="396" y="-5"/>
      <point x="411" y="2"/>
      <point x="415" y="20" type="curve" smooth="yes"/>
      <point x="431" y="97"/>
      <point x="436" y="176"/>
      <point x="436" y="254" type="curve" smooth="yes"/>
      <point x="436" y="340"/>
      <point x="429" y="427"/>
      <point x="423" y="514" type="curve" smooth="yes"/>
      <point x="417" y="589"/>
      <point x="412" y="662"/>
    </contour>
  </outline>
</glyph>
<glyph name="N" format="1">
  <advance width="417"/>
  <unicode hex="004E"/>
  <outline>
    <contour>
      <point x="342" y="738" type="line"/>
      <point x="334" y="760"/>
      <point x="302" y="749"/>
      <point x="301" y="727" type="curve"/>
      <point x="314" y="632"/>
      <point x="319" y="534"/>
      <point x="319" y="442" type="curve" smooth="yes"/>
      <point x="319" y="350"/>
      <point x="313" y="255"/>
      <point x="302" y="163" type="curve"/>
      <point x="286" y="207"/>
      <point x="281" y="216"/>
      <point x="267" y="258" type="curve" smooth="yes"/>
      <point x="212" y="412"/>
      <point x="156" y="571"/>
      <point x="87" y="711" type="curve"/>
      <point x="86" y="718"/>
      <point x="86" y="725"/>
      <point x="86" y="732" type="curve" smooth="yes"/>
      <point x="85" y="757"/>
      <point x="45" y="756"/>
      <point x="43" y="731" type="curve"/>
      <point x="40" y="648"/>
      <point x="40" y="565"/>
      <point x="39" y="483" type="curve" smooth="yes"/>
      <point x="38" y="330"/>
      <point x="35" y="165"/>
      <point x="18" y="11" type="curve"/>
      <point x="19" y="-9"/>
      <point x="67" y="-15"/>
      <point x="70" y="6" type="curve" smooth="yes"/>
      <point x="87" y="144"/>
      <point x="94" y="284"/>
      <point x="94" y="424" type="curve" smooth="yes"/>
      <point x="94" y="457"/>
      <point x="94" y="488"/>
      <point x="93" y="522" type="curve"/>
      <point x="130" y="393"/>
      <point x="162" y="335"/>
      <point x="214" y="211" type="curve" smooth="yes"/>
      <point x="239" y="153"/>
      <point x="262" y="97"/>
      <point x="284" y="41" type="curve"/>
      <point x="283" y="39"/>
      <point x="283" y="38"/>
      <point x="283" y="36" type="curve" smooth="yes"/>
      <point x="283" y="34"/>
      <point x="282" y="32"/>
      <point x="282" y="31" type="curve" smooth="yes"/>
      <point x="279" y="-2"/>
      <point x="332" y="-13"/>
      <point x="341" y="19" type="curve" smooth="yes"/>
      <point x="371" y="135"/>
      <point x="393" y="280"/>
      <point x="393" y="422" type="curve" smooth="yes"/>
      <point x="393" y="535"/>
      <point x="379" y="646"/>
      <point x="342" y="739" type="curve"/>
    </contour>
  </outline>
</glyph>
<glyph name="O" format="1">
  <advance width="409"/>
  <unicode hex="004F"/>
  <outline>
    <contour>
      <point x="72" y="712" type="curve" smooth="yes"/>
      <point x="60" y="703"/>
      <point x="60" y="688"/>
      <point x="65" y="678" type="curve"/>
      <point x="33" y="617"/>
      <point x="14" y="515"/>
      <point x="14" y="411" type="curve" smooth="yes"/>
      <point x="14" y="213"/>
      <point x="74" y="-4"/>
      <point x="187" y="-4" type="curve" smooth="yes"/>
      <point x="213" y="-4"/>
      <point x="241" y="8"/>
      <point x="271" y="31" type="curve" smooth="yes"/>
      <point x="353" y="97"/>
      <point x="395" y="252"/>
      <point x="395" y="403" type="curve" smooth="yes"/>
      <point x="395" y="585"/>
      <point x="332" y="759"/>
      <point x="201" y="759" type="curve" smooth="yes"/>
      <point x="163" y="759"/>
      <point x="121" y="746"/>
    </contour>
    <contour>
      <point x="259" y="91" type="curve" smooth="yes"/>
      <point x="236" y="59"/>
      <point x="216" y="46"/>
      <point x="199" y="46" type="curve" smooth="yes"/>
      <point x="128" y="46"/>
      <point x="88" y="241"/>
      <point x="83" y="299" type="curve" smooth="yes"/>
      <point x="79" y="339"/>
      <point x="75" y="384"/>
      <point x="75" y="430" type="curve" smooth="yes"/>
      <point x="75" y="515"/>
      <point x="86" y="605"/>
      <point x="121" y="675" type="curve"/>
      <point x="154" y="692"/>
      <point x="180" y="699"/>
      <point x="204" y="699" type="curve" smooth="yes"/>
      <point x="302" y="699"/>
      <point x="337" y="572"/>
      <point x="337" y="433" type="curve" smooth="yes"/>
      <point x="337" y="297"/>
      <point x="303" y="149"/>
    </contour>
  </outline>
</glyph>
<glyph name="P" format="1">
  <advance width="350"/>
  <unicode hex="0050"/>
  <outline>
    <contour>
      <point x="326" y="618" type="curve" smooth="yes"/>
      <point x="304" y="730"/>
      <point x="191" y="753"/>
      <point x="93" y="753" type="curve" smooth="yes"/>
      <point x="72" y="753"/>
      <point x="52" y="752"/>
      <point x="33" y="751" type="curve" smooth="yes"/>
      <point x="2" y="748"/>
      <point x="4" y="698"/>
      <point x="35" y="695" type="curve"/>
      <point x="43" y="695" type="line"/>
      <point x="43" y="683"/>
      <point x="42" y="680"/>
      <point x="42" y="669" type="curve" smooth="yes"/>
      <point x="42" y="595"/>
      <point x="50" y="515"/>
      <point x="57" y="442" type="curve"/>
      <point x="59" y="410" type="line"/>
      <point x="44" y="397"/>
      <point x="44" y="368"/>
      <point x="64" y="358" type="curve"/>
      <point x="66" y="321"/>
      <point x="67" y="291"/>
      <point x="67" y="254" type="curve" smooth="yes"/>
      <point x="67" y="182"/>
      <point x="60" y="110"/>
      <point x="39" y="38" type="curve" smooth="yes"/>
      <point x="32" y="13"/>
      <point x="90" y="-7"/>
      <point x="97" y="18" type="curve" smooth="yes"/>
      <point x="121" y="99"/>
      <point x="128" y="186"/>
      <point x="128" y="275" type="curve" smooth="yes"/>
      <point x="128" y="298"/>
      <point x="128" y="333"/>
      <point x="127" y="357" type="curve"/>
      <point x="244" y="369"/>
      <point x="330" y="449"/>
      <point x="330" y="570" type="curve" smooth="yes"/>
      <point x="330" y="586"/>
      <point x="329" y="602"/>
    </contour>
    <contour>
      <point x="106" y="579" type="line"/>
      <point x="102" y="617"/>
      <point x="99" y="656"/>
      <point x="95" y="694" type="curve"/>
      <point x="151" y="694"/>
      <point x="217" y="687"/>
      <point x="254" y="645" type="curve"/>
      <point x="269" y="626"/>
      <point x="277" y="598"/>
      <point x="277" y="571" type="curve" smooth="yes"/>
      <point x="277" y="536"/>
      <point x="266" y="501"/>
      <point x="250" y="477" type="curve" smooth="yes"/>
      <point x="222" y="435"/>
      <point x="171" y="420"/>
      <point x="122" y="416" type="curve"/>
    </contour>
    <contour>
      <point x="123" y="408" type="line"/>
      <point x="122" y="410"/>
      <point x="123" y="413"/>
      <point x="122" y="416" type="curve"/>
      <point x="113" y="416" type="line"/>
    </contour>
  </outline>
</glyph>
<glyph name="Q" format="1">
  <advance width="386"/>
  <unicode hex="0051"/>
  <outline>
    <contour>
      <point x="327" y="-5" type="curve" smooth="yes"/>
      <point x="313" y="-4"/>
      <point x="299" y="-4"/>
      <point x="286" y="-4" type="curve"/>
      <point x="280" y="11" type="line"/>
      <point x="273" y="32" type="line"/>
      <point x="334" y="117"/>
      <point x="351" y="343"/>
      <point x="351" y="487" type="curve" smooth="yes"/>
      <point x="351" y="539"/>
      <point x="349" y="580"/>
      <point x="347" y="601" type="curve" smooth="yes"/>
      <point x="332" y="696"/>
      <point x="257" y="751"/>
      <point x="182" y="751" type="curve" smooth="yes"/>
      <point x="125" y="751"/>
      <point x="69" y="719"/>
      <point x="39" y="648" type="curve" smooth="yes"/>
      <point x="32" y="629"/>
      <point x="48" y="616"/>
      <point x="65" y="618" type="curve"/>
      <point x="40" y="539"/>
      <point x="24" y="431"/>
      <point x="24" y="327" type="curve" smooth="yes"/>
      <point x="24" y="153"/>
      <point x="71" y="-8"/>
      <point x="216" y="-3" type="curve" smooth="yes"/>
      <point x="219" y="-3"/>
      <point x="223" y="-3"/>
      <point x="227" y="-2" type="curve"/>
      <point x="231" y="-16"/>
      <point x="241" y="-41"/>
      <point x="243" y="-50" type="curve"/>
      <point x="248" y="-56"/>
      <point x="256" y="-60"/>
      <point x="264" y="-60" type="curve"/>
      <point x="280" y="-60" type="line"/>
      <point x="295" y="-60"/>
      <point x="315" y="-60"/>
      <point x="329" y="-59" type="curve" smooth="yes"/>
      <point x="359" y="-57"/>
      <point x="358" y="-8"/>
    </contour>
    <contour>
      <point x="240" y="-44" type="curve"/>
      <point x="243" y="-50" type="line"/>
      <point x="245" y="-55"/>
      <point x="244" y="-55"/>
    </contour>
    <contour>
      <point x="119" y="144" type="curve" smooth="yes"/>
      <point x="94" y="207"/>
      <point x="81" y="289"/>
      <point x="81" y="373" type="curve" smooth="yes"/>
      <point x="81" y="484"/>
      <point x="102" y="598"/>
      <point x="141" y="678" type="curve" smooth="yes"/>
      <point x="142" y="679"/>
      <point x="143" y="679"/>
      <point x="143" y="680" type="curve"/>
      <point x="154" y="683"/>
      <point x="169" y="686"/>
      <point x="183" y="686" type="curve" smooth="yes"/>
      <point x="203" y="686"/>
      <point x="224" y="682"/>
      <point x="246" y="675" type="curve"/>
      <point x="244" y="675" type="line"/>
      <point x="284" y="653"/>
      <point x="291" y="604"/>
      <point x="291" y="561" type="curve" smooth="yes"/>
      <point x="291" y="545"/>
      <point x="290" y="529"/>
      <point x="289" y="516" type="curve" smooth="yes"/>
      <point x="289" y="513"/>
      <point x="288" y="508"/>
      <point x="288" y="504" type="curve" smooth="yes"/>
      <point x="286" y="474"/>
      <point x="286" y="442"/>
      <point x="285" y="411" type="curve" smooth="yes"/>
      <point x="284" y="370"/>
      <point x="283" y="331"/>
      <point x="280" y="291" type="curve" smooth="yes"/>
      <point x="278" y="264"/>
      <point x="270" y="161"/>
      <point x="250" y="98" type="curve"/>
      <point x="231" y="131"/>
      <point x="201" y="153"/>
      <point x="159" y="135" type="curve" smooth="yes"/>
      <point x="141" y="126"/>
      <point x="145" y="91"/>
      <point x="167" y="91" type="curve" smooth="yes"/>
      <point x="192" y="92"/>
      <point x="200" y="74"/>
      <point x="208" y="52" type="curve"/>
      <point x="161" y="58"/>
      <point x="135" y="103"/>
    </contour>
    <contour>
      <point x="208" y="52" type="line"/>
      <point x="208" y="51"/>
      <point x="208" y="50"/>
      <point x="209" y="49" type="curve"/>
      <point x="212" y="46" type="line"/>
      <point x="212" y="50"/>
      <point x="214" y="51"/>
      <point x="216" y="52" type="curve"/>
    </contour>
  </outline>
</glyph>
<glyph name="R" format="1">
  <advance width="352"/>
  <unicode hex="0052"/>
  <outline>
    <contour>
      <point x="299" y="45" type="curve" smooth="yes"/>
      <point x="266" y="74"/>
      <point x="263" y="138"/>
      <point x="261" y="196" type="curve" smooth="yes"/>
      <point x="260" y="226"/>
      <point x="258" y="256"/>
      <point x="254" y="278" type="curve" smooth="yes"/>
      <point x="246" y="307"/>
      <point x="232" y="332"/>
      <point x="215" y="350" type="curve"/>
      <point x="275" y="394"/>
      <point x="311" y="466"/>
      <point x="305" y="558" type="curve" smooth="yes"/>
      <point x="298" y="663"/>
      <point x="207" y="751"/>
      <point x="106" y="751" type="curve" smooth="yes"/>
      <point x="87" y="751"/>
      <point x="64" y="748"/>
      <point x="45" y="740" type="curve"/>
      <point x="40" y="740"/>
      <point x="34" y="738"/>
      <point x="31" y="734" type="curve"/>
      <point x="30" y="734"/>
      <point x="29" y="733"/>
      <point x="28" y="732" type="curve" smooth="yes"/>
      <point x="18" y="726"/>
      <point x="17" y="710"/>
      <point x="24" y="701" type="curve"/>
      <point x="24" y="678"/>
      <point x="23" y="659"/>
      <point x="23" y="636" type="curve" smooth="yes"/>
      <point x="23" y="555"/>
      <point x="25" y="475"/>
      <point x="27" y="394" type="curve"/>
      <point x="30" y="318"/>
      <point x="32" y="243"/>
      <point x="32" y="168" type="curve" smooth="yes"/>
      <point x="32" y="123"/>
      <point x="31" y="77"/>
      <point x="29" y="32" type="curve" smooth="yes"/>
      <point x="28" y="6"/>
      <point x="88" y="3"/>
      <point x="89" y="28" type="curve" smooth="yes"/>
      <point x="91" y="80"/>
      <point x="91" y="133"/>
      <point x="91" y="184" type="curve" smooth="yes"/>
      <point x="91" y="224"/>
      <point x="91" y="263"/>
      <point x="90" y="303" type="curve"/>
      <point x="114" y="306"/>
      <point x="136" y="310"/>
      <point x="157" y="319" type="curve"/>
      <point x="170" y="314"/>
      <point x="178" y="304"/>
      <point x="186" y="288" type="curve"/>
      <point x="186" y="289" type="line"/>
      <point x="199" y="262"/>
      <point x="202" y="227"/>
      <point x="204" y="194" type="curve" smooth="yes"/>
      <point x="204" y="189"/>
      <point x="205" y="183"/>
      <point x="205" y="179" type="curve" smooth="yes"/>
      <point x="205" y="175"/>
      <point x="206" y="169"/>
      <point x="206" y="164" type="curve" smooth="yes"/>
      <point x="209" y="105"/>
      <point x="214" y="37"/>
      <point x="261" y="-5" type="curve"/>
      <point x="261" y="-4" type="line"/>
      <point x="282" y="-23"/>
      <point x="320" y="26"/>
    </contour>
    <contour>
      <point x="75" y="696" type="curve"/>
      <point x="164" y="693"/>
      <point x="232" y="666"/>
      <point x="250" y="561" type="curve" smooth="yes"/>
      <point x="252" y="550"/>
      <point x="253" y="540"/>
      <point x="253" y="530" type="curve" smooth="yes"/>
      <point x="253" y="465"/>
      <point x="218" y="407"/>
      <point x="162" y="379" type="curve"/>
      <point x="140" y="385"/>
      <point x="117" y="381"/>
      <point x="93" y="371" type="curve" smooth="yes"/>
      <point x="92" y="370"/>
      <point x="91" y="370"/>
      <point x="90" y="370" type="curve"/>
      <point x="82" y="527" type="line"/>
      <point x="79" y="584"/>
      <point x="77" y="640"/>
    </contour>
    <contour>
      <point x="91" y="352" type="line"/>
      <point x="90" y="370" type="line"/>
      <point x="81" y="367"/>
      <point x="76" y="357"/>
      <point x="79" y="350" type="curve"/>
      <point x="85" y="357" type="line"/>
    </contour>
  </outline>
</glyph>
<glyph name="S" format="1">
  <advance width="382"/>
  <unicode hex="0053"/>
  <outline>
    <contour>
      <point x="13" y="145" type="curve" smooth="yes"/>
      <point x="39" y="69"/>
      <point x="90" y="-7"/>
      <point x="180" y="-6" type="curve" smooth="yes"/>
      <point x="248" y="-6"/>
      <point x="296" y="63"/>
      <point x="303" y="124" type="curve"/>
      <point x="303" y="123" type="line"/>
      <point x="305" y="136"/>
      <point x="306" y="149"/>
      <point x="306" y="162" type="curve" smooth="yes"/>
      <point x="306" y="247"/>
      <point x="266" y="320"/>
      <point x="213" y="389" type="curve"/>
      <point x="198" y="408" type="line"/>
      <point x="163" y="451"/>
      <point x="122" y="508"/>
      <point x="108" y="562" type="curve"/>
      <point x="96" y="619"/>
      <point x="140" y="677"/>
      <point x="194" y="689" type="curve" smooth="yes"/>
      <point x="240" y="700"/>
      <point x="277" y="658"/>
      <point x="305" y="626" type="curve"/>
      <point x="328" y="602"/>
      <point x="369" y="628"/>
      <point x="355" y="659" type="curve"/>
      <point x="325" y="722"/>
      <point x="265" y="754"/>
      <point x="206" y="754" type="curve" smooth="yes"/>
      <point x="115" y="754"/>
      <point x="25" y="686"/>
      <point x="38" y="573" type="curve"/>
      <point x="50" y="485"/>
      <point x="104" y="419"/>
      <point x="157" y="355" type="curve" smooth="yes"/>
      <point x="170" y="340"/>
      <point x="182" y="326"/>
      <point x="193" y="311" type="curve" smooth="yes"/>
      <point x="225" y="269"/>
      <point x="245" y="214"/>
      <point x="245" y="162" type="curve" smooth="yes"/>
      <point x="245" y="141"/>
      <point x="241" y="121"/>
      <point x="234" y="99" type="curve"/>
      <point x="235" y="100" type="line"/>
      <point x="223" y="65"/>
      <point x="205" y="53"/>
      <point x="186" y="53" type="curve" smooth="yes"/>
      <point x="137" y="53"/>
      <point x="74" y="127"/>
      <point x="51" y="164" type="curve"/>
      <point x="52" y="164" type="line"/>
      <point x="38" y="186"/>
      <point x="4" y="172"/>
    </contour>
  </outline>
</glyph>
<glyph name="T" format="1">
  <advance width="354"/>
  <unicode hex="0054"/>
  <outline>
    <contour>
      <point x="305" y="749" type="line"/>
      <point x="287" y="749"/>
      <point x="267" y="749"/>
      <point x="249" y="750" type="curve" smooth="yes"/>
      <point x="224" y="751"/>
      <point x="199" y="752"/>
      <point x="174" y="752" type="curve" smooth="yes"/>
      <point x="130" y="752"/>
      <point x="82" y="749"/>
      <point x="39" y="738" type="curve"/>
      <point x="16" y="733"/>
      <point x="29" y="680"/>
      <point x="50" y="680" type="curve"/>
      <point x="89" y="689"/>
      <point x="132" y="692"/>
      <point x="172" y="693" type="curve"/>
      <point x="165" y="610"/>
      <point x="166" y="538"/>
      <point x="166" y="457" type="curve" smooth="yes"/>
      <point x="166" y="313"/>
      <point x="165" y="170"/>
      <point x="134" y="25" type="curve" smooth="yes"/>
      <point x="129" y="4"/>
      <point x="146" y="-7"/>
      <point x="162" y="-7" type="curve" smooth="yes"/>
      <point x="176" y="-7"/>
      <point x="190" y="0"/>
      <point x="194" y="18" type="curve" smooth="yes"/>
      <point x="221" y="139"/>
      <point x="230" y="266"/>
      <point x="230" y="393" type="curve" smooth="yes"/>
      <point x="230" y="494"/>
      <point x="225" y="594"/>
      <point x="217" y="692" type="curve"/>
      <point x="232" y="693"/>
      <point x="237" y="692"/>
      <point x="254" y="692" type="curve"/>
      <point x="302" y="692" type="line"/>
      <point x="326" y="692"/>
      <point x="331" y="747"/>
      <point x="306" y="749" type="curve"/>
    </contour>
  </outline>
</glyph>
<glyph name="U" format="1">
  <advance width="370"/>
  <unicode hex="0055"/>
  <outline>
    <contour>
      <point x="319" y="758" type="curve" smooth="yes"/>
      <point x="308" y="783"/>
      <point x="268" y="776"/>
      <point x="268" y="749" type="curve" smooth="yes"/>
      <point x="268" y="737"/>
      <point x="267" y="724"/>
      <point x="267" y="713" type="curve" smooth="yes"/>
      <point x="267" y="672"/>
      <point x="269" y="625"/>
      <point x="272" y="584" type="curve" smooth="yes"/>
      <point x="275" y="535"/>
      <point x="279" y="486"/>
      <point x="278" y="438" type="curve"/>
      <point x="278" y="398" type="line"/>
      <point x="277" y="291"/>
      <point x="276" y="131"/>
      <point x="211" y="59" type="curve" smooth="yes"/>
      <point x="203" y="51"/>
      <point x="195" y="47"/>
      <point x="190" y="47" type="curve" smooth="yes"/>
      <point x="118" y="47"/>
      <point x="85" y="411"/>
      <point x="85" y="432" type="curve" smooth="yes"/>
      <point x="84" y="469"/>
      <point x="86" y="506"/>
      <point x="88" y="544" type="curve" smooth="yes"/>
      <point x="89" y="574"/>
      <point x="91" y="605"/>
      <point x="91" y="635" type="curve" smooth="yes"/>
      <point x="91" y="668"/>
      <point x="89" y="700"/>
      <point x="84" y="730" type="curve" smooth="yes"/>
      <point x="79" y="757"/>
      <point x="44" y="754"/>
      <point x="39" y="729" type="curve" smooth="yes"/>
      <point x="31" y="684"/>
      <point x="19" y="566"/>
      <point x="19" y="438" type="curve" smooth="yes"/>
      <point x="19" y="225"/>
      <point x="59" y="-15"/>
      <point x="201" y="-5" type="curve"/>
      <point x="305" y="10"/>
      <point x="320" y="168"/>
      <point x="326" y="258" type="curve" smooth="yes"/>
      <point x="326" y="266"/>
      <point x="328" y="277"/>
      <point x="328" y="285" type="curve" smooth="yes"/>
      <point x="330" y="314"/>
      <point x="334" y="344"/>
      <point x="336" y="374" type="curve"/>
      <point x="342" y="437"/>
      <point x="349" y="507"/>
      <point x="349" y="574" type="curve" smooth="yes"/>
      <point x="349" y="641"/>
      <point x="342" y="707"/>
    </contour>
  </outline>
</glyph>
<glyph name="V" format="1">
  <advance width="430"/>
  <unicode hex="0056"/>
  <outline>
    <contour>
      <point x="345" y="723" type="curve" smooth="yes"/>
      <point x="295" y="592"/>
      <point x="269" y="459"/>
      <point x="241" y="328" type="curve" smooth="yes"/>
      <point x="229" y="273"/>
      <point x="217" y="215"/>
      <point x="204" y="162" type="curve"/>
      <point x="184" y="258"/>
      <point x="169" y="325"/>
      <point x="150" y="419" type="curve" smooth="yes"/>
      <point x="128" y="523"/>
      <point x="104" y="636"/>
      <point x="82" y="739" type="curve"/>
      <point x="73" y="773"/>
      <point x="21" y="765"/>
      <point x="26" y="729" type="curve"/>
      <point x="61" y="506"/>
      <point x="120" y="241"/>
      <point x="170" y="20" type="curve"/>
      <point x="178" y="-5"/>
      <point x="223" y="-16"/>
      <point x="232" y="17" type="curve" smooth="yes"/>
      <point x="252" y="99"/>
      <point x="269" y="183"/>
      <point x="285" y="267" type="curve" smooth="yes"/>
      <point x="315" y="417"/>
      <point x="344" y="566"/>
      <point x="396" y="704" type="curve"/>
      <point x="396" y="703" type="line"/>
      <point x="404" y="724"/>
      <point x="354" y="746"/>
    </contour>
  </outline>
</glyph>
<glyph name="W" format="1">
  <advance width="550"/>
  <unicode hex="0057"/>
  <outline>
    <contour>
      <point x="461" y="731" type="curve" smooth="yes"/>
      <point x="441" y="644"/>
      <point x="425" y="539"/>
      <point x="409" y="441" type="curve" smooth="yes"/>
      <point x="398" y="373"/>
      <point x="389" y="307"/>
      <point x="376" y="242" type="curve"/>
      <point x="364" y="458"/>
      <point x="335" y="750"/>
      <point x="231" y="738" type="curve" smooth="yes"/>
      <point x="212" y="736"/>
      <point x="206" y="713"/>
      <point x="216" y="700" type="curve" smooth="yes"/>
      <point x="271" y="633"/>
      <point x="280" y="520"/>
      <point x="288" y="428" type="curve"/>
      <point x="292" y="392" type="line"/>
      <point x="282" y="388"/>
      <point x="274" y="379"/>
      <point x="272" y="367" type="curve" smooth="yes"/>
      <point x="260" y="279"/>
      <point x="242" y="209"/>
      <point x="216" y="128" type="curve"/>
      <point x="210" y="174"/>
      <point x="207" y="186"/>
      <point x="201" y="229" type="curve" smooth="yes"/>
      <point x="177" y="397"/>
      <point x="137" y="575"/>
      <point x="80" y="738" type="curve" smooth="yes"/>
      <point x="69" y="766"/>
      <point x="24" y="752"/>
      <point x="32" y="723" type="curve"/>
      <point x="103" y="492"/>
      <point x="137" y="250"/>
      <point x="168" y="14" type="curve" smooth="yes"/>
      <point x="170" y="2"/>
      <point x="182" y="-12"/>
      <point x="197" y="-12" type="curve" smooth="yes"/>
      <point x="201" y="-12"/>
      <point x="209" y="-12"/>
      <point x="214" y="-11" type="curve" smooth="yes"/>
      <point x="225" y="-10"/>
      <point x="235" y="-1"/>
      <point x="237" y="9" type="curve"/>
      <point x="255" y="64" type="line"/>
      <point x="272" y="116"/>
      <point x="289" y="173"/>
      <point x="304" y="230" type="curve"/>
      <point x="309" y="159"/>
      <point x="313" y="86"/>
      <point x="325" y="18" type="curve"/>
      <point x="331" y="-10"/>
      <point x="378" y="-14"/>
      <point x="387" y="15" type="curve"/>
      <point x="413" y="121"/>
      <point x="436" y="260"/>
      <point x="456" y="383" type="curve" smooth="yes"/>
      <point x="473" y="496"/>
      <point x="493" y="617"/>
      <point x="516" y="715" type="curve" smooth="yes"/>
      <point x="522" y="739"/>
      <point x="467" y="756"/>
    </contour>
  </outline>
</glyph>
<glyph name="X" format="1">
  <advance width="378"/>
  <unicode hex="0058"/>
  <outline>
    <contour>
      <point x="301" y="738" type="line"/>
      <point x="252" y="677"/>
      <point x="216" y="604"/>
      <point x="187" y="525" type="curve"/>
      <point x="166" y="605"/>
      <point x="138" y="674"/>
      <point x="83" y="745" type="curve"/>
      <point x="62" y="769"/>
      <point x="31" y="737"/>
      <point x="42" y="711" type="curve"/>
      <point x="103" y="619"/>
      <point x="128" y="513"/>
      <point x="149" y="408" type="curve"/>
      <point x="138" y="371"/>
      <point x="130" y="334"/>
      <point x="120" y="298" type="curve" smooth="yes"/>
      <point x="96" y="203"/>
      <point x="71" y="110"/>
      <point x="36" y="29" type="curve" smooth="yes"/>
      <point x="27" y="7"/>
      <point x="79" y="-14"/>
      <point x="90" y="7" type="curve"/>
      <point x="124" y="81"/>
      <point x="154" y="157"/>
      <point x="180" y="233" type="curve"/>
      <point x="194" y="160"/>
      <point x="213" y="86"/>
      <point x="246" y="16" type="curve" smooth="yes"/>
      <point x="259" y="-10"/>
      <point x="316" y="17"/>
      <point x="305" y="43" type="curve"/>
      <point x="262" y="132"/>
      <point x="241" y="244"/>
      <point x="224" y="343" type="curve"/>
      <point x="220" y="361" type="line"/>
      <point x="231" y="397"/>
      <point x="243" y="435"/>
      <point x="254" y="471" type="curve" smooth="yes"/>
      <point x="279" y="556"/>
      <point x="304" y="641"/>
      <point x="333" y="721" type="curve"/>
      <point x="333" y="720" type="line"/>
      <point x="342" y="739"/>
      <point x="315" y="756"/>
      <point x="301" y="739" type="curve"/>
    </contour>
  </outline>
</glyph>
<glyph name="Y" format="1">
  <advance width="399"/>
  <unicode hex="0059"/>
  <outline>
    <contour>
      <point x="211" y="319" type="curve" smooth="yes"/>
      <point x="232" y="401"/>
      <point x="267" y="474"/>
      <point x="302" y="548" type="curve" smooth="yes"/>
      <point x="329" y="604"/>
      <point x="355" y="660"/>
      <point x="377" y="723" type="curve"/>
      <point x="384" y="747"/>
      <point x="350" y="764"/>
      <point x="339" y="741" type="curve"/>
      <point x="339" y="742" type="line"/>
      <point x="327" y="719"/>
      <point x="314" y="697"/>
      <point x="302" y="675" type="curve" smooth="yes"/>
      <point x="262" y="602"/>
      <point x="220" y="522"/>
      <point x="187" y="439" type="curve"/>
      <point x="166" y="533"/>
      <point x="124" y="630"/>
      <point x="87" y="718" type="curve"/>
      <point x="76" y="744" type="line"/>
      <point x="65" y="768"/>
      <point x="10" y="743"/>
      <point x="21" y="719" type="curve"/>
      <point x="42" y="664"/>
      <point x="61" y="602"/>
      <point x="80" y="537" type="curve" smooth="yes"/>
      <point x="98" y="472"/>
      <point x="117" y="408"/>
      <point x="146" y="340" type="curve"/>
      <point x="146" y="339"/>
      <point x="146" y="338"/>
      <point x="147" y="336" type="curve"/>
      <point x="147" y="331"/>
      <point x="147" y="321"/>
      <point x="146" y="324" type="curve" smooth="yes"/>
      <point x="155" y="270"/>
      <point x="162" y="220"/>
      <point x="163" y="168" type="curve" smooth="yes"/>
      <point x="163" y="146"/>
      <point x="159" y="123"/>
      <point x="157" y="99" type="curve" smooth="yes"/>
      <point x="153" y="73"/>
      <point x="150" y="46"/>
      <point x="151" y="21" type="curve"/>
      <point x="151" y="-4"/>
      <point x="186" y="-23"/>
      <point x="202" y="4" type="curve" smooth="yes"/>
      <point x="220" y="34"/>
      <point x="223" y="74"/>
      <point x="223" y="113" type="curve"/>
      <point x="223" y="164" type="line"/>
      <point x="222" y="208"/>
      <point x="219" y="262"/>
      <point x="204" y="305" type="curve"/>
      <point x="208" y="309"/>
      <point x="210" y="313"/>
    </contour>
  </outline>
</glyph>
<glyph name="Z" format="1">
  <advance width="327"/>
  <unicode hex="005A"/>
  <outline>
    <contour>
      <point x="274" y="758" type="curve" smooth="yes"/>
      <point x="200" y="757"/>
      <point x="121" y="755"/>
      <point x="51" y="734" type="curve" smooth="yes"/>
      <point x="19" y="724"/>
      <point x="26" y="681"/>
      <point x="59" y="683" type="curve"/>
      <point x="129" y="690" type="line"/>
      <point x="160" y="693"/>
      <point x="194" y="696"/>
      <point x="225" y="698" type="curve"/>
      <point x="182" y="604"/>
      <point x="164" y="512"/>
      <point x="143" y="414" type="curve" smooth="yes"/>
      <point x="119" y="299"/>
      <point x="92" y="172"/>
      <point x="29" y="69" type="curve" smooth="yes"/>
      <point x="24" y="61"/>
      <point x="23" y="55"/>
      <point x="25" y="48" type="curve"/>
      <point x="18" y="35"/>
      <point x="21" y="16"/>
      <point x="37" y="9" type="curve" smooth="yes"/>
      <point x="67" y="-3"/>
      <point x="96" y="-6"/>
      <point x="124" y="-6" type="curve" smooth="yes"/>
      <point x="161" y="-6"/>
      <point x="196" y="0"/>
      <point x="231" y="6" type="curve"/>
      <point x="256" y="11" type="line"/>
      <point x="213" y="4"/>
      <point x="200" y="45"/>
      <point x="232" y="67" type="curve"/>
      <point x="201" y="55"/>
      <point x="171" y="51"/>
      <point x="137" y="51" type="curve" smooth="yes"/>
      <point x="122" y="51"/>
      <point x="109" y="51"/>
      <point x="94" y="53" type="curve"/>
      <point x="150" y="156"/>
      <point x="173" y="270"/>
      <point x="195" y="384" type="curve" smooth="yes"/>
      <point x="217" y="497"/>
      <point x="241" y="610"/>
      <point x="296" y="713" type="curve" smooth="yes"/>
      <point x="305" y="728"/>
      <point x="298" y="758"/>
    </contour>
  </outline>
</glyph>
<glyph name="bracketleft" format="1">
  <advance width="287"/>
  <unicode hex="005B"/>
  <outline>
    <contour>
      <point x="27" y="469" type="curve" smooth="yes"/>
      <point x="27" y="556"/>
      <point x="29" y="645"/>
      <point x="35" y="732" type="curve"/>
      <point x="27" y="750"/>
      <point x="34" y="777"/>
      <point x="62" y="779" type="curve" smooth="yes"/>
      <point x="79" y="780"/>
      <point x="103" y="780"/>
      <point x="119" y="780" type="curve"/>
      <point x="219" y="780" type="line"/>
      <point x="242" y="780"/>
      <point x="255" y="761"/>
      <point x="255" y="742" type="curve" smooth="yes"/>
      <point x="255" y="727"/>
      <point x="244" y="711"/>
      <point x="224" y="710" type="curve" smooth="yes"/>
      <point x="203" y="710"/>
      <point x="174" y="710"/>
      <point x="154" y="710" type="curve" smooth="yes"/>
      <point x="131" y="710"/>
      <point x="117" y="709"/>
      <point x="94" y="710" type="curve"/>
      <point x="96" y="438"/>
      <point x="98" y="170"/>
      <point x="137" y="-99" type="curve"/>
      <point x="165" y="-97" type="line"/>
      <point x="194" y="-93" type="line"/>
      <point x="219" y="-90"/>
      <point x="231" y="-108"/>
      <point x="231" y="-125" type="curve" smooth="yes"/>
      <point x="231" y="-144"/>
      <point x="218" y="-163"/>
      <point x="193" y="-160" type="curve"/>
      <point x="187" y="-160"/>
      <point x="178" y="-158"/>
      <point x="173" y="-158" type="curve" smooth="yes"/>
      <point x="160" y="-157"/>
      <point x="146" y="-156"/>
      <point x="133" y="-154" type="curve"/>
      <point x="131" y="-153" type="line"/>
      <point x="129" y="-153"/>
      <point x="126" y="-153"/>
      <point x="124" y="-152" type="curve"/>
      <point x="111" y="-154"/>
      <point x="91" y="-147"/>
      <point x="86" y="-130" type="curve"/>
      <point x="50" y="52"/>
      <point x="27" y="279"/>
    </contour>
  </outline>
</glyph>
<glyph name="backslash" format="1">
  <advance width="361"/>
  <unicode hex="005C"/>
  <outline>
    <contour>
      <point x="12" y="757" type="line"/>
      <point x="49" y="601" type="line"/>
      <point x="105" y="364"/>
      <point x="173" y="95"/>
      <point x="275" y="-125" type="curve"/>
      <point x="260" y="-82"/>
      <point x="312" y="-58"/>
      <point x="336" y="-94" type="curve"/>
      <point x="259" y="47"/>
      <point x="214" y="220"/>
      <point x="178" y="376" type="curve" smooth="yes"/>
      <point x="148" y="502"/>
      <point x="110" y="651"/>
      <point x="56" y="772" type="curve"/>
      <point x="43" y="796"/>
      <point x="4" y="785"/>
      <point x="12" y="756" type="curve"/>
    </contour>
  </outline>
</glyph>
<glyph name="bracketright" format="1">
  <advance width="260"/>
  <unicode hex="005D"/>
  <outline>
    <contour>
      <point x="200" y="779" type="curve"/>
      <point x="182" y="780"/>
      <point x="161" y="780"/>
      <point x="143" y="780" type="curve"/>
      <point x="44" y="780" type="line"/>
      <point x="20" y="780"/>
      <point x="7" y="761"/>
      <point x="7" y="742" type="curve" smooth="yes"/>
      <point x="7" y="727"/>
      <point x="19" y="711"/>
      <point x="39" y="710" type="curve" smooth="yes"/>
      <point x="62" y="710"/>
      <point x="85" y="710"/>
      <point x="108" y="710" type="curve" smooth="yes"/>
      <point x="129" y="710"/>
      <point x="148" y="709"/>
      <point x="168" y="710" type="curve"/>
      <point x="166" y="438"/>
      <point x="164" y="170"/>
      <point x="125" y="-99" type="curve"/>
      <point x="98" y="-97" type="line"/>
      <point x="71" y="-93" type="line"/>
      <point x="45" y="-90"/>
      <point x="32" y="-108"/>
      <point x="32" y="-125" type="curve" smooth="yes"/>
      <point x="32" y="-144"/>
      <point x="46" y="-163"/>
      <point x="71" y="-160" type="curve"/>
      <point x="70" y="-160" type="line"/>
      <point x="89" y="-158" type="line"/>
      <point x="104" y="-157"/>
      <point x="119" y="-156"/>
      <point x="130" y="-154" type="curve" smooth="yes"/>
      <point x="131" y="-154"/>
      <point x="134" y="-153"/>
      <point x="136" y="-152" type="curve"/>
      <point x="150" y="-156"/>
      <point x="171" y="-148"/>
      <point x="176" y="-130" type="curve"/>
      <point x="211" y="48"/>
      <point x="236" y="278"/>
      <point x="236" y="463" type="curve" smooth="yes"/>
      <point x="236" y="554"/>
      <point x="233" y="644"/>
      <point x="225" y="733" type="curve"/>
      <point x="235" y="752"/>
      <point x="228" y="776"/>
    </contour>
  </outline>
</glyph>
<glyph name="asciicircum" format="1">
  <advance width="332"/>
  <unicode hex="005E"/>
  <outline>
    <contour>
      <point x="310" y="429" type="line"/>
      <point x="292" y="469"/>
      <point x="274" y="515"/>
      <point x="262" y="552" type="curve" smooth="yes"/>
      <point x="240" y="612"/>
      <point x="217" y="679"/>
      <point x="182" y="735" type="curve"/>
      <point x="182" y="735" type="line"/>
      <point x="166" y="763"/>
      <point x="127" y="757"/>
      <point x="122" y="724" type="curve"/>
      <point x="116" y="687" type="line"/>
      <point x="108" y="641"/>
      <point x="101" y="597"/>
      <point x="89" y="548" type="curve" smooth="yes"/>
      <point x="83" y="528"/>
      <point x="64" y="488"/>
      <point x="55" y="471" type="curve" smooth="yes"/>
      <point x="43" y="450"/>
      <point x="31" y="426"/>
      <point x="23" y="403" type="curve" smooth="yes"/>
      <point x="16" y="382"/>
      <point x="37" y="367"/>
      <point x="55" y="375" type="curve" smooth="yes"/>
      <point x="129" y="409"/>
      <point x="156" y="519"/>
      <point x="171" y="616" type="curve"/>
      <point x="187" y="579"/>
      <point x="190" y="565"/>
      <point x="203" y="530" type="curve" smooth="yes"/>
      <point x="219" y="487"/>
      <point x="235" y="439"/>
      <point x="253" y="403" type="curve" smooth="yes"/>
      <point x="266" y="376"/>
      <point x="323" y="404"/>
      <point x="310" y="430" type="curve"/>
    </contour>
  </outline>
</glyph>
<glyph name="underscore" format="1">
  <advance width="521"/>
  <unicode hex="005F"/>
  <outline>
    <contour>
      <point x="57" y="-135" type="curve" smooth="yes"/>
      <point x="85" y="-131"/>
      <point x="112" y="-130"/>
      <point x="139" y="-130" type="curve" smooth="yes"/>
      <point x="188" y="-130"/>
      <point x="236" y="-135"/>
      <point x="285" y="-139" type="curve" smooth="yes"/>
      <point x="342" y="-144"/>
      <point x="400" y="-150"/>
      <point x="457" y="-148" type="curve" smooth="yes"/>
      <point x="480" y="-147"/>
      <point x="492" y="-129"/>
      <point x="492" y="-112" type="curve" smooth="yes"/>
      <point x="492" y="-97"/>
      <point x="483" y="-82"/>
      <point x="463" y="-81" type="curve" smooth="yes"/>
      <point x="433" y="-79"/>
      <point x="402" y="-76"/>
      <point x="372" y="-73" type="curve" smooth="yes"/>
      <point x="306" y="-68"/>
      <point x="238" y="-62"/>
      <point x="171" y="-62" type="curve" smooth="yes"/>
      <point x="129" y="-62"/>
      <point x="88" y="-64"/>
      <point x="47" y="-70" type="curve" smooth="yes"/>
      <point x="28" y="-72"/>
      <point x="19" y="-86"/>
      <point x="19" y="-100" type="curve" smooth="yes"/>
      <point x="19" y="-119"/>
      <point x="33" y="-138"/>
    </contour>
  </outline>
</glyph>
<glyph name="grave" format="1">
  <advance width="208"/>
  <unicode hex="0060"/>
  <outline>
    <contour>
      <point x="26" y="783" type="line"/>
      <point x="39" y="750"/>
      <point x="57" y="724"/>
      <point x="77" y="699" type="curve" smooth="yes"/>
      <point x="96" y="676"/>
      <point x="124" y="644"/>
      <point x="153" y="635" type="curve"/>
      <point x="153" y="636" type="line"/>
      <point x="171" y="630"/>
      <point x="194" y="646"/>
      <point x="187" y="666" type="curve"/>
      <point x="187" y="665" type="line"/>
      <point x="180" y="689"/>
      <point x="164" y="708"/>
      <point x="149" y="725" type="curve"/>
      <point x="138" y="737" type="line"/>
      <point x="119" y="758"/>
      <point x="100" y="784"/>
      <point x="88" y="811" type="curve" smooth="yes"/>
      <point x="69" y="850"/>
      <point x="12" y="825"/>
      <point x="26" y="784" type="curve"/>
    </contour>
  </outline>
</glyph>
<glyph name="a" format="1">
  <advance width="443"/>
  <unicode hex="0061"/>
  <outline>
    <contour>
      <point x="375" y="94" type="curve" smooth="yes"/>
      <point x="363" y="85"/>
      <point x="354" y="82"/>
      <point x="347" y="82" type="curve" smooth="yes"/>
      <point x="309" y="82"/>
      <point x="302" y="193"/>
      <point x="299" y="240" type="curve" smooth="yes"/>
      <point x="297" y="271"/>
      <point x="296" y="300"/>
      <point x="296" y="331" type="curve" smooth="yes"/>
      <point x="296" y="356"/>
      <point x="297" y="380"/>
      <point x="297" y="405" type="curve" smooth="yes"/>
      <point x="297" y="406"/>
      <point x="298" y="408"/>
      <point x="298" y="409" type="curve" smooth="yes"/>
      <point x="299" y="419"/>
      <point x="299" y="434"/>
      <point x="297" y="445" type="curve"/>
      <point x="297" y="451" type="line"/>
      <point x="297" y="460"/>
      <point x="294" y="465"/>
      <point x="289" y="471" type="curve"/>
      <point x="272" y="513"/>
      <point x="232" y="541"/>
      <point x="189" y="541" type="curve" smooth="yes"/>
      <point x="166" y="541"/>
      <point x="140" y="533"/>
      <point x="118" y="514" type="curve"/>
      <point x="119" y="514" type="line"/>
      <point x="41" y="448"/>
      <point x="25" y="308"/>
      <point x="17" y="216" type="curve" smooth="yes"/>
      <point x="12" y="138"/>
      <point x="69" y="-18"/>
      <point x="173" y="1" type="curve"/>
      <point x="218" y="13"/>
      <point x="249" y="67"/>
      <point x="266" y="112" type="curve"/>
      <point x="282" y="57"/>
      <point x="306" y="18"/>
      <point x="344" y="18" type="curve" smooth="yes"/>
      <point x="362" y="18"/>
      <point x="383" y="29"/>
      <point x="409" y="53" type="curve"/>
      <point x="433" y="79"/>
      <point x="403" y="115"/>
    </contour>
    <contour>
      <point x="224" y="143" type="curve" smooth="yes"/>
      <point x="211" y="102"/>
      <point x="182" y="57"/>
      <point x="150" y="57" type="curve" smooth="yes"/>
      <point x="138" y="57"/>
      <point x="123" y="67"/>
      <point x="110" y="81" type="curve"/>
      <point x="85" y="114"/>
      <point x="68" y="171"/>
      <point x="69" y="212" type="curve" smooth="yes"/>
      <point x="71" y="268"/>
      <point x="87" y="331"/>
      <point x="104" y="387" type="curve"/>
      <point x="115" y="418"/>
      <point x="131" y="452"/>
      <point x="152" y="474" type="curve" smooth="yes"/>
      <point x="163" y="486"/>
      <point x="175" y="490"/>
      <point x="186" y="490" type="curve" smooth="yes"/>
      <point x="207" y="490"/>
      <point x="226" y="476"/>
      <point x="240" y="456" type="curve"/>
      <point x="240" y="454"/>
      <point x="239" y="455"/>
      <point x="239" y="454" type="curve" smooth="yes"/>
      <point x="236" y="428"/>
      <point x="235" y="401"/>
      <point x="235" y="375" type="curve" smooth="yes"/>
      <point x="235" y="354"/>
      <point x="236" y="335"/>
      <point x="236" y="315" type="curve"/>
      <point x="236" y="295"/>
      <point x="236" y="275"/>
      <point x="236" y="256" type="curve" smooth="yes"/>
      <point x="236" y="218"/>
      <point x="235" y="181"/>
    </contour>
  </outline>
</glyph>
<glyph name="b" format="1">
  <advance width="345"/>
  <unicode hex="0062"/>
  <outline>
    <contour>
      <point x="190" y="493" type="curve" smooth="yes"/>
      <point x="176" y="500"/>
      <point x="161" y="503"/>
      <point x="149" y="503" type="curve" smooth="yes"/>
      <point x="125" y="503"/>
      <point x="99" y="487"/>
      <point x="81" y="471" type="curve"/>
      <point x="80" y="573"/>
      <point x="78" y="661"/>
      <point x="72" y="763" type="curve"/>
      <point x="71" y="777"/>
      <point x="28" y="776"/>
      <point x="27" y="761" type="curve" smooth="yes"/>
      <point x="21" y="636"/>
      <point x="19" y="512"/>
      <point x="19" y="387" type="curve" smooth="yes"/>
      <point x="19" y="329"/>
      <point x="20" y="272"/>
      <point x="20" y="214" type="curve"/>
      <point x="20" y="2" type="line"/>
      <point x="20" y="-25"/>
      <point x="81" y="-28"/>
      <point x="80" y="-2" type="curve"/>
      <point x="80" y="48" type="line"/>
      <point x="96" y="18"/>
      <point x="118" y="-3"/>
      <point x="149" y="-3" type="curve" smooth="yes"/>
      <point x="165" y="-3"/>
      <point x="183" y="4"/>
      <point x="203" y="17" type="curve" smooth="yes"/>
      <point x="274" y="67"/>
      <point x="315" y="180"/>
      <point x="318" y="263" type="curve" smooth="yes"/>
      <point x="321" y="350"/>
      <point x="275" y="456"/>
    </contour>
    <contour>
      <point x="263" y="265" type="curve" smooth="yes"/>
      <point x="262" y="209"/>
      <point x="231" y="147"/>
      <point x="199" y="100" type="curve" smooth="yes"/>
      <point x="187" y="85"/>
      <point x="170" y="63"/>
      <point x="151" y="59" type="curve" smooth="yes"/>
      <point x="134" y="56"/>
      <point x="128" y="109"/>
      <point x="126" y="126" type="curve"/>
      <point x="126" y="131" type="line"/>
      <point x="123" y="155"/>
      <point x="99" y="162"/>
      <point x="80" y="155" type="curve"/>
      <point x="81" y="206"/>
      <point x="81" y="336"/>
      <point x="81" y="380" type="curve"/>
      <point x="96" y="416"/>
      <point x="118" y="451"/>
      <point x="150" y="451" type="curve" smooth="yes"/>
      <point x="159" y="451"/>
      <point x="169" y="447"/>
      <point x="182" y="441" type="curve"/>
      <point x="181" y="441" type="line"/>
      <point x="239" y="408"/>
      <point x="264" y="328"/>
    </contour>
  </outline>
</glyph>
<glyph name="c" format="1">
  <advance width="372"/>
  <unicode hex="0063"/>
  <outline>
    <contour>
      <point x="327" y="457" type="line"/>
      <point x="328" y="518"/>
      <point x="285" y="543"/>
      <point x="237" y="543" type="curve" smooth="yes"/>
      <point x="206" y="543"/>
      <point x="173" y="533"/>
      <point x="150" y="518" type="curve" smooth="yes"/>
      <point x="59" y="463"/>
      <point x="26" y="367"/>
      <point x="26" y="266" type="curve" smooth="yes"/>
      <point x="26" y="172"/>
      <point x="54" y="64"/>
      <point x="139" y="14" type="curve"/>
      <point x="161" y="2"/>
      <point x="181" y="-2"/>
      <point x="200" y="-2" type="curve" smooth="yes"/>
      <point x="271" y="-2"/>
      <point x="322" y="67"/>
      <point x="327" y="142" type="curve" smooth="yes"/>
      <point x="327" y="163"/>
      <point x="310" y="176"/>
      <point x="294" y="176" type="curve" smooth="yes"/>
      <point x="279" y="176"/>
      <point x="265" y="167"/>
      <point x="265" y="147" type="curve"/>
      <point x="262" y="108"/>
      <point x="252" y="71"/>
      <point x="211" y="63" type="curve"/>
      <point x="176" y="54"/>
      <point x="135" y="84"/>
      <point x="120" y="111" type="curve" smooth="yes"/>
      <point x="91" y="160"/>
      <point x="87" y="227"/>
      <point x="87" y="282" type="curve" smooth="yes"/>
      <point x="87" y="337"/>
      <point x="102" y="380"/>
      <point x="134" y="424" type="curve" smooth="yes"/>
      <point x="152" y="448"/>
      <point x="179" y="465"/>
      <point x="207" y="481" type="curve"/>
      <point x="206" y="481" type="line"/>
      <point x="233" y="493"/>
      <point x="253" y="476"/>
      <point x="273" y="458" type="curve" smooth="yes"/>
      <point x="278" y="454"/>
      <point x="259" y="466"/>
      <point x="294" y="441" type="curve" smooth="yes"/>
      <point x="304" y="433"/>
      <point x="325" y="441"/>
      <point x="327" y="456" type="curve"/>
    </contour>
  </outline>
</glyph>
<glyph name="d" format="1">
  <advance width="335"/>
  <unicode hex="0064"/>
  <outline>
    <contour>
      <point x="307" y="767" type="line"/>
      <point x="305" y="794"/>
      <point x="263" y="794"/>
      <point x="260" y="767" type="curve"/>
      <point x="255" y="669"/>
      <point x="254" y="573"/>
      <point x="253" y="475" type="curve"/>
      <point x="235" y="494"/>
      <point x="209" y="507"/>
      <point x="183" y="507" type="curve" smooth="yes"/>
      <point x="171" y="507"/>
      <point x="155" y="504"/>
      <point x="141" y="497" type="curve" smooth="yes"/>
      <point x="56" y="459"/>
      <point x="10" y="353"/>
      <point x="14" y="264" type="curve"/>
      <point x="14" y="265" type="line"/>
      <point x="17" y="181"/>
      <point x="59" y="69"/>
      <point x="129" y="18" type="curve" smooth="yes"/>
      <point x="150" y="5"/>
      <point x="168" y="-2"/>
      <point x="184" y="-2" type="curve" smooth="yes"/>
      <point x="214" y="-2"/>
      <point x="238" y="20"/>
      <point x="253" y="47" type="curve"/>
      <point x="253" y="-1" type="line"/>
      <point x="253" y="-28"/>
      <point x="314" y="-24"/>
      <point x="314" y="3" type="curve"/>
      <point x="314" y="383" type="line"/>
      <point x="314" y="511"/>
      <point x="313" y="639"/>
      <point x="307" y="766" type="curve"/>
    </contour>
    <contour>
      <point x="208" y="131" type="curve"/>
      <point x="208" y="127" type="line"/>
      <point x="206" y="110"/>
      <point x="199" y="57"/>
      <point x="182" y="60" type="curve" smooth="yes"/>
      <point x="163" y="64"/>
      <point x="146" y="86"/>
      <point x="134" y="101" type="curve" smooth="yes"/>
      <point x="101" y="148"/>
      <point x="71" y="210"/>
      <point x="70" y="267" type="curve" smooth="yes"/>
      <point x="69" y="331"/>
      <point x="94" y="412"/>
      <point x="151" y="444" type="curve" smooth="yes"/>
      <point x="163" y="451"/>
      <point x="174" y="455"/>
      <point x="183" y="455" type="curve" smooth="yes"/>
      <point x="216" y="455"/>
      <point x="238" y="420"/>
      <point x="253" y="383" type="curve"/>
      <point x="253" y="156" type="line"/>
      <point x="235" y="164"/>
      <point x="211" y="157"/>
    </contour>
  </outline>
</glyph>
<glyph name="e" format="1">
  <advance width="358"/>
  <unicode hex="0065"/>
  <outline>
    <contour>
      <point x="86" y="259" type="curve" smooth="yes"/>
      <point x="122" y="239"/>
      <point x="161" y="230"/>
      <point x="195" y="230" type="curve" smooth="yes"/>
      <point x="279" y="230"/>
      <point x="345" y="289"/>
      <point x="338" y="395" type="curve"/>
      <point x="329" y="477"/>
      <point x="261" y="542"/>
      <point x="189" y="542" type="curve" smooth="yes"/>
      <point x="154" y="542"/>
      <point x="116" y="526"/>
      <point x="85" y="491" type="curve" smooth="yes"/>
      <point x="40" y="440"/>
      <point x="20" y="362"/>
      <point x="20" y="285" type="curve" smooth="yes"/>
      <point x="20" y="203"/>
      <point x="43" y="120"/>
      <point x="83" y="64" type="curve" smooth="yes"/>
      <point x="115" y="20"/>
      <point x="163" y="-1"/>
      <point x="209" y="-1" type="curve" smooth="yes"/>
      <point x="268" y="-1"/>
      <point x="321" y="36"/>
      <point x="321" y="108" type="curve" smooth="yes"/>
      <point x="321" y="120"/>
      <point x="319" y="130"/>
      <point x="317" y="142" type="curve" smooth="yes"/>
      <point x="311" y="174"/>
      <point x="270" y="171"/>
      <point x="264" y="140" type="curve" smooth="yes"/>
      <point x="256" y="98"/>
      <point x="246" y="58"/>
      <point x="213" y="58" type="curve" smooth="yes"/>
      <point x="207" y="58"/>
      <point x="198" y="60"/>
      <point x="188" y="63" type="curve" smooth="yes"/>
      <point x="149" y="74"/>
      <point x="123" y="110"/>
      <point x="106" y="145" type="curve" smooth="yes"/>
      <point x="91" y="179"/>
      <point x="84" y="219"/>
      <point x="83" y="261" type="curve"/>
      <point x="84" y="260"/>
      <point x="85" y="259"/>
    </contour>
    <contour>
      <point x="107" y="414" type="curve" smooth="yes"/>
      <point x="124" y="458"/>
      <point x="154" y="479"/>
      <point x="186" y="479" type="curve" smooth="yes"/>
      <point x="223" y="479"/>
      <point x="263" y="445"/>
      <point x="276" y="398" type="curve" smooth="yes"/>
      <point x="278" y="389"/>
      <point x="279" y="379"/>
      <point x="279" y="372" type="curve" smooth="yes"/>
      <point x="279" y="345"/>
      <point x="271" y="318"/>
      <point x="250" y="298" type="curve" smooth="yes"/>
      <point x="241" y="289"/>
      <point x="227" y="286"/>
      <point x="210" y="286" type="curve" smooth="yes"/>
      <point x="191" y="286"/>
      <point x="168" y="291"/>
      <point x="147" y="294" type="curve" smooth="yes"/>
      <point x="130" y="297"/>
      <point x="115" y="301"/>
      <point x="99" y="301" type="curve" smooth="yes"/>
      <point x="93" y="301"/>
      <point x="88" y="298"/>
      <point x="83" y="294" type="curve"/>
      <point x="86" y="336"/>
      <point x="95" y="380"/>
    </contour>
  </outline>
</glyph>
<glyph name="f" format="1">
  <advance width="326"/>
  <unicode hex="0066"/>
  <outline>
    <contour>
      <point x="146" y="754" type="curve"/>
      <point x="122" y="726"/>
      <point x="119" y="682"/>
      <point x="119" y="641" type="curve" smooth="yes"/>
      <point x="119" y="629"/>
      <point x="119" y="613"/>
      <point x="120" y="601" type="curve" smooth="yes"/>
      <point x="120" y="591"/>
      <point x="121" y="581"/>
      <point x="121" y="572" type="curve"/>
      <point x="121" y="512" type="line"/>
      <point x="107" y="514"/>
      <point x="105" y="515"/>
      <point x="93" y="517" type="curve" smooth="yes"/>
      <point x="78" y="520"/>
      <point x="63" y="523"/>
      <point x="48" y="525" type="curve" smooth="yes"/>
      <point x="23" y="528"/>
      <point x="9" y="492"/>
      <point x="32" y="478" type="curve"/>
      <point x="31" y="479" type="line"/>
      <point x="55" y="461"/>
      <point x="85" y="453"/>
      <point x="119" y="448" type="curve"/>
      <point x="117" y="390"/>
      <point x="114" y="341"/>
      <point x="110" y="283" type="curve" smooth="yes"/>
      <point x="105" y="198"/>
      <point x="100" y="112"/>
      <point x="99" y="27" type="curve" smooth="yes"/>
      <point x="99" y="6"/>
      <point x="153" y="2"/>
      <point x="153" y="24" type="curve" smooth="yes"/>
      <point x="154" y="166"/>
      <point x="159" y="302"/>
      <point x="166" y="444" type="curve"/>
      <point x="198" y="443"/>
      <point x="228" y="446"/>
      <point x="252" y="450" type="curve" smooth="yes"/>
      <point x="277" y="454"/>
      <point x="266" y="508"/>
      <point x="243" y="509" type="curve"/>
      <point x="227" y="507"/>
      <point x="208" y="506"/>
      <point x="194" y="506" type="curve"/>
      <point x="170" y="506" type="line"/>
      <point x="170" y="514" type="line"/>
      <point x="171" y="540"/>
      <point x="172" y="565"/>
      <point x="172" y="590" type="curve" smooth="yes"/>
      <point x="172" y="602"/>
      <point x="173" y="615"/>
      <point x="173" y="627" type="curve" smooth="yes"/>
      <point x="173" y="642"/>
      <point x="174" y="659"/>
      <point x="176" y="675" type="curve"/>
      <point x="177" y="699"/>
      <point x="183" y="708"/>
      <point x="191" y="708" type="curve" smooth="yes"/>
      <point x="215" y="708"/>
      <point x="249" y="656"/>
      <point x="245" y="624" type="curve"/>
      <point x="240" y="597"/>
      <point x="278" y="591"/>
      <point x="289" y="612" type="curve" smooth="yes"/>
      <point x="295" y="625"/>
      <point x="298" y="640"/>
      <point x="298" y="654" type="curve" smooth="yes"/>
      <point x="298" y="715"/>
      <point x="250" y="785"/>
      <point x="200" y="785" type="curve" smooth="yes"/>
      <point x="181" y="785"/>
      <point x="162" y="776"/>
    </contour>
  </outline>
</glyph>
<glyph name="g" format="1">
  <advance width="398"/>
  <unicode hex="0067"/>
  <outline>
    <contour>
      <point x="333" y="563" type="curve" smooth="yes"/>
      <point x="293" y="565"/>
      <point x="249" y="545"/>
      <point x="221" y="516" type="curve"/>
      <point x="215" y="517"/>
      <point x="210" y="519"/>
      <point x="206" y="520" type="curve" smooth="yes"/>
      <point x="195" y="522"/>
      <point x="184" y="520"/>
      <point x="176" y="515" type="curve"/>
      <point x="163" y="515" type="line"/>
      <point x="120" y="512"/>
      <point x="87" y="477"/>
      <point x="64" y="442" type="curve"/>
      <point x="38" y="400"/>
      <point x="20" y="344"/>
      <point x="20" y="292" type="curve" smooth="yes"/>
      <point x="20" y="242"/>
      <point x="36" y="191"/>
      <point x="71" y="155" type="curve" smooth="yes"/>
      <point x="79" y="148"/>
      <point x="87" y="141"/>
      <point x="95" y="135" type="curve"/>
      <point x="69" y="120"/>
      <point x="54" y="97"/>
      <point x="43" y="62" type="curve"/>
      <point x="44" y="63" type="line"/>
      <point x="39" y="50"/>
      <point x="43" y="35"/>
      <point x="54" y="29" type="curve"/>
      <point x="53" y="30" type="line"/>
      <point x="63" y="23" type="line"/>
      <point x="113" y="-9"/>
      <point x="165" y="-38"/>
      <point x="200" y="-84" type="curve"/>
      <point x="209" y="-94"/>
      <point x="212" y="-103"/>
      <point x="212" y="-112" type="curve" smooth="yes"/>
      <point x="212" y="-136"/>
      <point x="184" y="-154"/>
      <point x="154" y="-160" type="curve" smooth="yes"/>
      <point x="119" y="-168"/>
      <point x="91" y="-144"/>
      <point x="91" y="-118" type="curve" smooth="yes"/>
      <point x="91" y="-104"/>
      <point x="99" y="-91"/>
      <point x="116" y="-81" type="curve" smooth="yes"/>
      <point x="142" y="-68"/>
      <point x="113" y="-9"/>
      <point x="86" y="-22" type="curve"/>
      <point x="48" y="-43"/>
      <point x="24" y="-77"/>
      <point x="24" y="-116" type="curve" smooth="yes"/>
      <point x="24" y="-134"/>
      <point x="28" y="-153"/>
      <point x="40" y="-171" type="curve" smooth="yes"/>
      <point x="62" y="-208"/>
      <point x="101" y="-223"/>
      <point x="138" y="-223" type="curve" smooth="yes"/>
      <point x="167" y="-223"/>
      <point x="199" y="-211"/>
      <point x="223" y="-196" type="curve" smooth="yes"/>
      <point x="258" y="-172"/>
      <point x="273" y="-145"/>
      <point x="273" y="-117" type="curve" smooth="yes"/>
      <point x="273" y="-45"/>
      <point x="171" y="28"/>
      <point x="106" y="66" type="curve"/>
      <point x="115" y="81"/>
      <point x="132" y="94"/>
      <point x="154" y="100" type="curve"/>
      <point x="161" y="103"/>
      <point x="165" y="107"/>
      <point x="167" y="114" type="curve"/>
      <point x="223" y="119"/>
      <point x="275" y="180"/>
      <point x="299" y="239" type="curve"/>
      <point x="308" y="267"/>
      <point x="314" y="303"/>
      <point x="314" y="336" type="curve" smooth="yes"/>
      <point x="314" y="389"/>
      <point x="303" y="444"/>
      <point x="270" y="481" type="curve"/>
      <point x="290" y="494"/>
      <point x="309" y="500"/>
      <point x="335" y="504" type="curve"/>
      <point x="370" y="508"/>
      <point x="366" y="561"/>
    </contour>
    <contour>
      <point x="110" y="204" type="curve" smooth="yes"/>
      <point x="89" y="225"/>
      <point x="82" y="255"/>
      <point x="82" y="287" type="curve" smooth="yes"/>
      <point x="82" y="322"/>
      <point x="91" y="359"/>
      <point x="103" y="387" type="curve"/>
      <point x="111" y="412"/>
      <point x="129" y="437"/>
      <point x="151" y="451" type="curve" smooth="yes"/>
      <point x="168" y="460"/>
      <point x="181" y="452"/>
      <point x="194" y="443" type="curve" smooth="yes"/>
      <point x="202" y="438"/>
      <point x="210" y="433"/>
      <point x="220" y="430" type="curve"/>
      <point x="219" y="430" type="line"/>
      <point x="224" y="427"/>
      <point x="227" y="426"/>
      <point x="233" y="429" type="curve"/>
      <point x="250" y="406"/>
      <point x="256" y="378"/>
      <point x="256" y="348" type="curve" smooth="yes"/>
      <point x="256" y="269"/>
      <point x="212" y="181"/>
      <point x="157" y="181" type="curve" smooth="yes"/>
      <point x="142" y="181"/>
      <point x="127" y="187"/>
    </contour>
  </outline>
</glyph>
<glyph name="h" format="1">
  <advance width="411"/>
  <unicode hex="0068"/>
  <outline>
    <contour>
      <point x="297" y="540" type="curve" smooth="yes"/>
      <point x="269" y="562"/>
      <point x="242" y="571"/>
      <point x="218" y="571" type="curve" smooth="yes"/>
      <point x="181" y="571"/>
      <point x="151" y="551"/>
      <point x="127" y="521" type="curve"/>
      <point x="127" y="524" type="line"/>
      <point x="128" y="543"/>
      <point x="129" y="565"/>
      <point x="129" y="587" type="curve" smooth="yes"/>
      <point x="129" y="657"/>
      <point x="116" y="738"/>
      <point x="67" y="777" type="curve" smooth="yes"/>
      <point x="51" y="791"/>
      <point x="27" y="768"/>
      <point x="35" y="750" type="curve" smooth="yes"/>
      <point x="60" y="701"/>
      <point x="70" y="631"/>
      <point x="70" y="571" type="curve" smooth="yes"/>
      <point x="70" y="533"/>
      <point x="68" y="493"/>
      <point x="65" y="456" type="curve"/>
      <point x="61" y="397" type="line"/>
      <point x="61" y="393"/>
      <point x="61" y="386"/>
      <point x="61" y="382" type="curve" smooth="yes"/>
      <point x="61" y="378"/>
      <point x="60" y="376"/>
      <point x="60" y="372" type="curve"/>
      <point x="55" y="349"/>
      <point x="52" y="328"/>
      <point x="52" y="309" type="curve" smooth="yes"/>
      <point x="52" y="306"/>
      <point x="52" y="304"/>
      <point x="53" y="301" type="curve"/>
      <point x="53" y="290"/>
      <point x="52" y="280"/>
      <point x="52" y="269" type="curve"/>
      <point x="48" y="206"/>
      <point x="43" y="142"/>
      <point x="43" y="79" type="curve"/>
      <point x="40" y="74"/>
      <point x="39" y="68"/>
      <point x="40" y="61" type="curve" smooth="yes"/>
      <point x="42" y="53"/>
      <point x="44" y="44"/>
      <point x="44" y="38" type="curve"/>
      <point x="44" y="30" type="line"/>
      <point x="46" y="1"/>
      <point x="109" y="11"/>
      <point x="108" y="39" type="curve" smooth="yes"/>
      <point x="107" y="58"/>
      <point x="107" y="77"/>
      <point x="107" y="97" type="curve" smooth="yes"/>
      <point x="107" y="174"/>
      <point x="112" y="251"/>
      <point x="117" y="328" type="curve"/>
      <point x="121" y="378" type="line"/>
      <point x="129" y="402"/>
      <point x="143" y="435"/>
      <point x="152" y="457" type="curve"/>
      <point x="170" y="485"/>
      <point x="196" y="507"/>
      <point x="214" y="507" type="curve" smooth="yes"/>
      <point x="255" y="507"/>
      <point x="295" y="453"/>
      <point x="304" y="398" type="curve"/>
      <point x="306" y="379"/>
      <point x="307" y="359"/>
      <point x="307" y="343" type="curve" smooth="yes"/>
      <point x="307" y="293"/>
      <point x="300" y="244"/>
      <point x="292" y="194" type="curve" smooth="yes"/>
      <point x="284" y="139"/>
      <point x="275" y="76"/>
      <point x="277" y="20" type="curve" smooth="yes"/>
      <point x="278" y="-6"/>
      <point x="338" y="3"/>
      <point x="339" y="29" type="curve"/>
      <point x="337" y="71"/>
      <point x="343" y="130"/>
      <point x="353" y="185" type="curve" smooth="yes"/>
      <point x="362" y="240"/>
      <point x="370" y="298"/>
      <point x="370" y="353" type="curve" smooth="yes"/>
      <point x="370" y="428"/>
      <point x="354" y="494"/>
    </contour>
  </outline>
</glyph>
<glyph name="i" format="1">
  <advance width="158"/>
  <unicode hex="0069"/>
  <outline>
    <contour>
      <point x="46" y="517" type="curve" smooth="yes"/>
      <point x="44" y="490"/>
      <point x="44" y="461"/>
      <point x="44" y="434" type="curve" smooth="yes"/>
      <point x="44" y="397"/>
      <point x="45" y="360"/>
      <point x="46" y="322" type="curve" smooth="yes"/>
      <point x="47" y="303"/>
      <point x="48" y="284"/>
      <point x="48" y="265" type="curve" smooth="yes"/>
      <point x="48" y="228"/>
      <point x="45" y="193"/>
      <point x="42" y="156" type="curve" smooth="yes"/>
      <point x="39" y="122"/>
      <point x="35" y="88"/>
      <point x="35" y="52" type="curve" smooth="yes"/>
      <point x="35" y="42"/>
      <point x="35" y="32"/>
      <point x="36" y="23" type="curve" smooth="yes"/>
      <point x="39" y="3"/>
      <point x="74" y="-6"/>
      <point x="84" y="13" type="curve" smooth="yes"/>
      <point x="110" y="60"/>
      <point x="113" y="114"/>
      <point x="113" y="168" type="curve"/>
      <point x="113" y="229" type="line"/>
      <point x="113" y="325"/>
      <point x="107" y="424"/>
      <point x="100" y="519" type="curve" smooth="yes"/>
      <point x="97" y="551"/>
      <point x="49" y="549"/>
    </contour>
    <contour>
      <point x="49" y="705" type="curve"/>
      <point x="30" y="705"/>
      <point x="11" y="681"/>
      <point x="21" y="661" type="curve"/>
      <point x="28" y="651"/>
      <point x="40" y="632"/>
      <point x="50" y="625" type="curve" smooth="yes"/>
      <point x="70" y="606"/>
      <point x="95" y="616"/>
      <point x="116" y="626" type="curve" smooth="yes"/>
      <point x="124" y="628"/>
      <point x="133" y="639"/>
      <point x="133" y="651" type="curve"/>
      <point x="133" y="657" type="line"/>
      <point x="133" y="671"/>
      <point x="132" y="688"/>
      <point x="116" y="700" type="curve"/>
      <point x="101" y="710"/>
      <point x="77" y="710"/>
      <point x="59" y="701" type="curve"/>
      <point x="56" y="703"/>
      <point x="52" y="704"/>
    </contour>
  </outline>
</glyph>
<glyph name="j" format="1">
  <advance width="309"/>
  <unicode hex="006A"/>
  <outline>
    <contour>
      <point x="40" y="-83" type="curve"/>
      <point x="22" y="-97"/>
      <point x="14" y="-113"/>
      <point x="14" y="-129" type="curve" smooth="yes"/>
      <point x="14" y="-183"/>
      <point x="114" y="-238"/>
      <point x="167" y="-220" type="curve"/>
      <point x="167" y="-221" type="line"/>
      <point x="240" y="-198"/>
      <point x="254" y="-82"/>
      <point x="259" y="-25" type="curve" smooth="yes"/>
      <point x="267" y="48"/>
      <point x="270" y="122"/>
      <point x="270" y="197" type="curve" smooth="yes"/>
      <point x="270" y="292"/>
      <point x="265" y="395"/>
      <point x="260" y="488" type="curve" smooth="yes"/>
      <point x="260" y="498"/>
      <point x="259" y="506"/>
      <point x="259" y="515" type="curve" smooth="yes"/>
      <point x="258" y="539"/>
      <point x="205" y="531"/>
      <point x="204" y="509" type="curve"/>
      <point x="210" y="425"/>
      <point x="213" y="341"/>
      <point x="213" y="256" type="curve" smooth="yes"/>
      <point x="213" y="163"/>
      <point x="210" y="71"/>
      <point x="204" y="-20" type="curve" smooth="yes"/>
      <point x="201" y="-69"/>
      <point x="182" y="-182"/>
      <point x="113" y="-167" type="curve"/>
      <point x="91" y="-160"/>
      <point x="86" y="-142"/>
      <point x="82" y="-124" type="curve" smooth="yes"/>
      <point x="80" y="-116"/>
      <point x="77" y="-101"/>
      <point x="72" y="-92" type="curve" smooth="yes"/>
      <point x="66" y="-81"/>
      <point x="50" y="-77"/>
    </contour>
    <contour>
      <point x="201" y="677" type="curve" smooth="yes"/>
      <point x="183" y="677"/>
      <point x="160" y="656"/>
      <point x="173" y="634" type="curve" smooth="yes"/>
      <point x="179" y="625"/>
      <point x="191" y="610"/>
      <point x="201" y="599" type="curve"/>
      <point x="223" y="579"/>
      <point x="249" y="588"/>
      <point x="268" y="599" type="curve"/>
      <point x="267" y="599" type="line"/>
      <point x="275" y="604"/>
      <point x="285" y="612"/>
      <point x="285" y="624" type="curve"/>
      <point x="285" y="627" type="line"/>
      <point x="285" y="640"/>
      <point x="283" y="660"/>
      <point x="268" y="672" type="curve" smooth="yes"/>
      <point x="255" y="682"/>
      <point x="230" y="681"/>
      <point x="213" y="674" type="curve"/>
      <point x="209" y="675"/>
      <point x="205" y="677"/>
    </contour>
  </outline>
</glyph>
<glyph name="k" format="1">
  <advance width="350"/>
  <unicode hex="006B"/>
  <outline>
    <contour>
      <point x="316" y="508" type="curve" smooth="yes"/>
      <point x="322" y="531"/>
      <point x="294" y="546"/>
      <point x="279" y="526" type="curve"/>
      <point x="279" y="527" type="line"/>
      <point x="260" y="506"/>
      <point x="238" y="471"/>
      <point x="217" y="437" type="curve" smooth="yes"/>
      <point x="204" y="416"/>
      <point x="190" y="396"/>
      <point x="176" y="376" type="curve"/>
      <point x="131" y="317" type="line"/>
      <point x="117" y="298"/>
      <point x="104" y="283"/>
      <point x="91" y="267" type="curve"/>
      <point x="87" y="347" type="line"/>
      <point x="85" y="397"/>
      <point x="83" y="447"/>
      <point x="83" y="496" type="curve" smooth="yes"/>
      <point x="83" y="581"/>
      <point x="89" y="665"/>
      <point x="110" y="749" type="curve"/>
      <point x="115" y="771"/>
      <point x="65" y="789"/>
      <point x="58" y="766" type="curve" smooth="yes"/>
      <point x="30" y="668"/>
      <point x="23" y="568"/>
      <point x="23" y="464" type="curve" smooth="yes"/>
      <point x="23" y="418"/>
      <point x="24" y="365"/>
      <point x="26" y="320" type="curve" smooth="yes"/>
      <point x="27" y="281"/>
      <point x="29" y="244"/>
      <point x="29" y="206" type="curve"/>
      <point x="18" y="192"/>
      <point x="20" y="178"/>
      <point x="29" y="168" type="curve"/>
      <point x="29" y="124"/>
      <point x="27" y="76"/>
      <point x="22" y="30" type="curve"/>
      <point x="23" y="14"/>
      <point x="38" y="-2"/>
      <point x="52" y="-2" type="curve" smooth="yes"/>
      <point x="67" y="-2"/>
      <point x="80" y="7"/>
      <point x="83" y="23" type="curve"/>
      <point x="90" y="77"/>
      <point x="92" y="130"/>
      <point x="92" y="185" type="curve"/>
      <point x="118" y="216" type="line"/>
      <point x="136" y="237" type="line"/>
      <point x="142" y="211"/>
      <point x="152" y="195"/>
      <point x="160" y="173" type="curve"/>
      <point x="167" y="153" type="line"/>
      <point x="178" y="121" type="line"/>
      <point x="191" y="81"/>
      <point x="210" y="31"/>
      <point x="239" y="8" type="curve"/>
      <point x="253" y="0"/>
      <point x="275" y="8"/>
      <point x="277" y="25" type="curve"/>
      <point x="278" y="57"/>
      <point x="261" y="89"/>
      <point x="246" y="118" type="curve"/>
      <point x="246" y="117" type="line"/>
      <point x="232" y="146" type="line"/>
      <point x="224" y="165"/>
      <point x="217" y="184"/>
      <point x="211" y="205" type="curve"/>
      <point x="211" y="205" type="line"/>
      <point x="204" y="231"/>
      <point x="194" y="260"/>
      <point x="180" y="289" type="curve"/>
      <point x="184" y="295" type="line"/>
      <point x="192" y="305"/>
      <point x="202" y="315"/>
      <point x="209" y="326" type="curve"/>
      <point x="216" y="336" type="line"/>
      <point x="253" y="384"/>
      <point x="300" y="451"/>
    </contour>
  </outline>
</glyph>
<glyph name="l" format="1">
  <advance width="122"/>
  <unicode hex="006C"/>
  <outline>
    <contour>
      <point x="44" y="760" type="curve" smooth="yes"/>
      <point x="45" y="671"/>
      <point x="39" y="582"/>
      <point x="32" y="492" type="curve" smooth="yes"/>
      <point x="26" y="408"/>
      <point x="19" y="323"/>
      <point x="19" y="239" type="curve" smooth="yes"/>
      <point x="19" y="168"/>
      <point x="24" y="94"/>
      <point x="38" y="24" type="curve" smooth="yes"/>
      <point x="43" y="-3"/>
      <point x="104" y="8"/>
      <point x="100" y="36" type="curve" smooth="yes"/>
      <point x="87" y="102"/>
      <point x="83" y="167"/>
      <point x="83" y="233" type="curve" smooth="yes"/>
      <point x="83" y="297"/>
      <point x="87" y="360"/>
      <point x="91" y="425" type="curve" smooth="yes"/>
      <point x="95" y="490"/>
      <point x="99" y="557"/>
      <point x="99" y="624" type="curve" smooth="yes"/>
      <point x="99" y="670"/>
      <point x="97" y="716"/>
      <point x="92" y="762" type="curve" smooth="yes"/>
      <point x="89" y="788"/>
      <point x="44" y="786"/>
    </contour>
  </outline>
</glyph>
<glyph name="m" format="1">
  <advance width="597"/>
  <unicode hex="006D"/>
  <outline>
    <contour>
      <point x="381" y="546" type="curve" smooth="yes"/>
      <point x="331" y="541"/>
      <point x="299" y="514"/>
      <point x="276" y="475" type="curve"/>
      <point x="252" y="522"/>
      <point x="223" y="542"/>
      <point x="191" y="542" type="curve" smooth="yes"/>
      <point x="157" y="542"/>
      <point x="123" y="519"/>
      <point x="97" y="487" type="curve"/>
      <point x="92" y="495"/>
      <point x="83" y="505"/>
      <point x="74" y="513" type="curve"/>
      <point x="58" y="521"/>
      <point x="44" y="512"/>
      <point x="41" y="496" type="curve" smooth="yes"/>
      <point x="38" y="478"/>
      <point x="42" y="456"/>
      <point x="46" y="437" type="curve" smooth="yes"/>
      <point x="47" y="432"/>
      <point x="50" y="412"/>
      <point x="50" y="412" type="curve"/>
      <point x="50" y="408" type="line"/>
      <point x="50" y="407"/>
      <point x="51" y="406"/>
      <point x="51" y="405" type="curve" smooth="yes"/>
      <point x="45" y="385"/>
      <point x="41" y="367"/>
      <point x="40" y="350" type="curve" smooth="yes"/>
      <point x="40" y="340"/>
      <point x="46" y="333"/>
      <point x="53" y="329" type="curve"/>
      <point x="53" y="319"/>
      <point x="51" y="308"/>
      <point x="51" y="298" type="curve" smooth="yes"/>
      <point x="50" y="287"/>
      <point x="50" y="271"/>
      <point x="50" y="260" type="curve"/>
      <point x="48" y="230"/>
      <point x="42" y="200"/>
      <point x="37" y="168" type="curve" smooth="yes"/>
      <point x="29" y="119"/>
      <point x="22" y="67"/>
      <point x="25" y="19" type="curve" smooth="yes"/>
      <point x="28" y="-11"/>
      <point x="65" y="-12"/>
      <point x="77" y="8" type="curve"/>
      <point x="109" y="79"/>
      <point x="110" y="173"/>
      <point x="111" y="252" type="curve" smooth="yes"/>
      <point x="111" y="270"/>
      <point x="111" y="286"/>
      <point x="112" y="302" type="curve" smooth="yes"/>
      <point x="112" y="309"/>
      <point x="112" y="318"/>
      <point x="113" y="326" type="curve" smooth="yes"/>
      <point x="114" y="343"/>
      <point x="116" y="363"/>
      <point x="116" y="383" type="curve" smooth="yes"/>
      <point x="116" y="397"/>
      <point x="116" y="412"/>
      <point x="114" y="424" type="curve"/>
      <point x="130" y="454"/>
      <point x="154" y="485"/>
      <point x="178" y="485" type="curve" smooth="yes"/>
      <point x="191" y="485"/>
      <point x="209" y="476"/>
      <point x="227" y="457" type="curve" smooth="yes"/>
      <point x="239" y="445"/>
      <point x="245" y="423"/>
      <point x="249" y="401" type="curve"/>
      <point x="240" y="357"/>
      <point x="236" y="305"/>
      <point x="236" y="255" type="curve" smooth="yes"/>
      <point x="236" y="200"/>
      <point x="240" y="144"/>
      <point x="244" y="99" type="curve" smooth="yes"/>
      <point x="245" y="70"/>
      <point x="248" y="44"/>
      <point x="248" y="25" type="curve" smooth="yes"/>
      <point x="249" y="-1"/>
      <point x="309" y="-5"/>
      <point x="309" y="21" type="curve" smooth="yes"/>
      <point x="310" y="54"/>
      <point x="312" y="87"/>
      <point x="314" y="123" type="curve" smooth="yes"/>
      <point x="317" y="167"/>
      <point x="321" y="212"/>
      <point x="321" y="258" type="curve" smooth="yes"/>
      <point x="321" y="299"/>
      <point x="319" y="341"/>
      <point x="310" y="379" type="curve"/>
      <point x="320" y="414"/>
      <point x="334" y="444"/>
      <point x="357" y="467" type="curve" smooth="yes"/>
      <point x="376" y="486"/>
      <point x="391" y="493"/>
      <point x="405" y="493" type="curve" smooth="yes"/>
      <point x="461" y="493"/>
      <point x="482" y="354"/>
      <point x="485" y="309" type="curve" smooth="yes"/>
      <point x="487" y="281"/>
      <point x="488" y="255"/>
      <point x="488" y="227" type="curve" smooth="yes"/>
      <point x="488" y="198"/>
      <point x="487" y="160"/>
      <point x="486" y="131" type="curve" smooth="yes"/>
      <point x="485" y="106"/>
      <point x="484" y="81"/>
      <point x="484" y="56" type="curve" smooth="yes"/>
      <point x="484" y="33"/>
      <point x="501" y="22"/>
      <point x="519" y="22" type="curve" smooth="yes"/>
      <point x="534" y="22"/>
      <point x="549" y="31"/>
      <point x="549" y="51" type="curve" smooth="yes"/>
      <point x="549" y="70"/>
      <point x="550" y="94"/>
      <point x="551" y="122" type="curve" smooth="yes"/>
      <point x="553" y="161"/>
      <point x="556" y="209"/>
      <point x="556" y="258" type="curve" smooth="yes"/>
      <point x="556" y="406"/>
      <point x="529" y="563"/>
    </contour>
  </outline>
</glyph>
<glyph name="n" format="1">
  <advance width="352"/>
  <unicode hex="006E"/>
  <outline>
    <contour>
      <point x="320" y="315" type="curve" smooth="yes"/>
      <point x="317" y="383"/>
      <point x="306" y="499"/>
      <point x="230" y="534" type="curve" smooth="yes"/>
      <point x="220" y="538"/>
      <point x="208" y="540"/>
      <point x="199" y="540" type="curve" smooth="yes"/>
      <point x="158" y="540"/>
      <point x="123" y="505"/>
      <point x="99" y="466" type="curve"/>
      <point x="95" y="496"/>
      <point x="91" y="510"/>
      <point x="85" y="534" type="curve" smooth="yes"/>
      <point x="79" y="554"/>
      <point x="32" y="544"/>
      <point x="31" y="525" type="curve"/>
      <point x="41" y="460"/>
      <point x="44" y="390"/>
      <point x="44" y="325" type="curve"/>
      <point x="44" y="292" type="line"/>
      <point x="39" y="253"/>
      <point x="39" y="209"/>
      <point x="39" y="170" type="curve"/>
      <point x="39" y="95" type="line"/>
      <point x="38" y="81"/>
      <point x="38" y="65"/>
      <point x="38" y="51" type="curve"/>
      <point x="38" y="45" type="line"/>
      <point x="37" y="16"/>
      <point x="53" y="-3"/>
      <point x="69" y="-3" type="curve" smooth="yes"/>
      <point x="83" y="-3"/>
      <point x="98" y="12"/>
      <point x="100" y="46" type="curve"/>
      <point x="103" y="91" type="line"/>
      <point x="105" y="154"/>
      <point x="109" y="220"/>
      <point x="109" y="285" type="curve"/>
      <point x="109" y="318" type="line"/>
      <point x="127" y="377"/>
      <point x="167" y="482"/>
      <point x="205" y="482" type="curve" smooth="yes"/>
      <point x="216" y="482"/>
      <point x="228" y="470"/>
      <point x="241" y="443" type="curve" smooth="yes"/>
      <point x="261" y="396"/>
      <point x="269" y="338"/>
      <point x="269" y="281" type="curve" smooth="yes"/>
      <point x="269" y="233"/>
      <point x="264" y="181"/>
      <point x="259" y="132" type="curve" smooth="yes"/>
      <point x="255" y="90"/>
      <point x="251" y="47"/>
      <point x="250" y="9" type="curve" smooth="yes"/>
      <point x="249" y="-13"/>
      <point x="269" y="-25"/>
      <point x="284" y="-25" type="curve" smooth="yes"/>
      <point x="298" y="-25"/>
      <point x="313" y="-15"/>
      <point x="313" y="4" type="curve" smooth="yes"/>
      <point x="313" y="43"/>
      <point x="315" y="82"/>
      <point x="317" y="122" type="curve" smooth="yes"/>
      <point x="319" y="167"/>
      <point x="322" y="211"/>
      <point x="322" y="257" type="curve" smooth="yes"/>
      <point x="322" y="276"/>
      <point x="321" y="295"/>
    </contour>
  </outline>
</glyph>
<glyph name="o" format="1">
  <advance width="416"/>
  <unicode hex="006F"/>
  <outline>
    <contour>
      <point x="377" y="388" type="curve" smooth="yes"/>
      <point x="359" y="475"/>
      <point x="293" y="542"/>
      <point x="218" y="542" type="curve" smooth="yes"/>
      <point x="190" y="542"/>
      <point x="161" y="531"/>
      <point x="132" y="511" type="curve"/>
      <point x="54" y="475"/>
      <point x="19" y="378"/>
      <point x="19" y="277" type="curve" smooth="yes"/>
      <point x="19" y="140"/>
      <point x="85" y="-2"/>
      <point x="195" y="-2" type="curve" smooth="yes"/>
      <point x="222" y="-2"/>
      <point x="252" y="7"/>
      <point x="285" y="28" type="curve" smooth="yes"/>
      <point x="364" y="77"/>
      <point x="389" y="179"/>
      <point x="389" y="274" type="curve" smooth="yes"/>
      <point x="389" y="316"/>
      <point x="384" y="355"/>
    </contour>
    <contour>
      <point x="262" y="81" type="curve" smooth="yes"/>
      <point x="240" y="59"/>
      <point x="221" y="50"/>
      <point x="202" y="50" type="curve" smooth="yes"/>
      <point x="143" y="50"/>
      <point x="99" y="146"/>
      <point x="88" y="206" type="curve" smooth="yes"/>
      <point x="83" y="229"/>
      <point x="80" y="254"/>
      <point x="80" y="280" type="curve" smooth="yes"/>
      <point x="80" y="338"/>
      <point x="94" y="401"/>
      <point x="130" y="442" type="curve"/>
      <point x="134" y="441"/>
      <point x="140" y="443"/>
      <point x="144" y="445" type="curve"/>
      <point x="168" y="457" type="line"/>
      <point x="187" y="466"/>
      <point x="206" y="476"/>
      <point x="227" y="476" type="curve" smooth="yes"/>
      <point x="238" y="476"/>
      <point x="251" y="473"/>
      <point x="264" y="462" type="curve"/>
      <point x="298" y="439"/>
      <point x="311" y="386"/>
      <point x="318" y="348" type="curve" smooth="yes"/>
      <point x="323" y="323"/>
      <point x="326" y="297"/>
      <point x="326" y="269" type="curve" smooth="yes"/>
      <point x="326" y="200"/>
      <point x="309" y="125"/>
    </contour>
  </outline>
</glyph>
<glyph name="p" format="1">
  <advance width="394"/>
  <unicode hex="0070"/>
  <outline>
    <contour>
      <point x="367" y="263" type="curve"/>
      <point x="360" y="353"/>
      <point x="321" y="455"/>
      <point x="247" y="515" type="curve"/>
      <point x="223" y="532"/>
      <point x="199" y="541"/>
      <point x="176" y="541" type="curve" smooth="yes"/>
      <point x="139" y="541"/>
      <point x="103" y="520"/>
      <point x="74" y="491" type="curve"/>
      <point x="73" y="494"/>
      <point x="73" y="497"/>
      <point x="73" y="499" type="curve" smooth="yes"/>
      <point x="71" y="522"/>
      <point x="35" y="520"/>
      <point x="33" y="498" type="curve"/>
      <point x="33" y="443" type="line"/>
      <point x="31" y="440"/>
      <point x="29" y="436"/>
      <point x="28" y="432" type="curve"/>
      <point x="28" y="433" type="line"/>
      <point x="19" y="417"/>
      <point x="23" y="404"/>
      <point x="34" y="393" type="curve"/>
      <point x="35" y="345"/>
      <point x="38" y="296"/>
      <point x="41" y="248" type="curve" smooth="yes"/>
      <point x="45" y="182"/>
      <point x="49" y="117"/>
      <point x="49" y="50" type="curve" smooth="yes"/>
      <point x="49" y="-27"/>
      <point x="42" y="-109"/>
      <point x="25" y="-186" type="curve"/>
      <point x="37" y="-150"/>
      <point x="87" y="-157"/>
      <point x="84" y="-198" type="curve"/>
      <point x="93" y="-123"/>
      <point x="96" y="-47"/>
      <point x="96" y="29" type="curve"/>
      <point x="96" y="31" type="line"/>
      <point x="122" y="1"/>
      <point x="157" y="-16"/>
      <point x="196" y="-16" type="curve" smooth="yes"/>
      <point x="217" y="-16"/>
      <point x="239" y="-12"/>
      <point x="259" y="3" type="curve"/>
      <point x="258" y="3" type="line"/>
      <point x="341" y="56"/>
      <point x="373" y="170"/>
    </contour>
    <contour>
      <point x="267" y="89" type="curve" smooth="yes"/>
      <point x="248" y="60"/>
      <point x="218" y="36"/>
      <point x="181" y="47" type="curve" smooth="yes"/>
      <point x="161" y="53"/>
      <point x="146" y="71"/>
      <point x="131" y="91" type="curve" smooth="yes"/>
      <point x="121" y="101"/>
      <point x="113" y="113"/>
      <point x="102" y="123" type="curve" smooth="yes"/>
      <point x="101" y="124"/>
      <point x="96" y="125"/>
      <point x="95" y="125" type="curve"/>
      <point x="93" y="199"/>
      <point x="88" y="265"/>
      <point x="84" y="340" type="curve"/>
      <point x="84" y="339" type="line"/>
      <point x="80" y="401" type="line"/>
      <point x="107" y="442"/>
      <point x="138" y="481"/>
      <point x="177" y="481" type="curve" smooth="yes"/>
      <point x="192" y="481"/>
      <point x="208" y="474"/>
      <point x="225" y="462" type="curve"/>
      <point x="274" y="423"/>
      <point x="299" y="345"/>
      <point x="308" y="285" type="curve"/>
      <point x="308" y="286" type="line"/>
      <point x="310" y="272"/>
      <point x="311" y="258"/>
      <point x="311" y="245" type="curve" smooth="yes"/>
      <point x="311" y="189"/>
      <point x="296" y="133"/>
    </contour>
  </outline>
</glyph>
